<svg xmlns="http://www.w3.org/2000/svg" width="290" height="290" viewBox="0 0 290 290">
  <defs>
    <style>
      .cls-1 {
        fill: #333;
      }

      .cls-2 {
        fill: #fff;
      }
    </style>
  </defs>
  <g id="Groupe_236" data-name="Groupe 236" transform="translate(-1550.18 -352.753)">
    <rect id="Rectangle_72" data-name="Rectangle 72" class="cls-1" width="290" height="290" transform="translate(1550.18 352.753)"/>
    <g id="Groupe_235" data-name="Groupe 235">
      <g id="Groupe_234" data-name="Groupe 234">
        <g id="Groupe_233" data-name="Groupe 233">
          <g id="Groupe_231" data-name="Groupe 231">
            <path id="Tracé_161" data-name="Tracé 161" class="cls-2" d="M1624.39,473.406c-3.982-.419-8.278-2.2-8.278-7.125,0-7.125,6.916-10.269,13.307-10.269a17.793,17.793,0,0,1,8.7,1.991l-.314.629a18.116,18.116,0,0,0-8.487-1.991c-6.078,0-11.317,3.667-11.317,9.745,0,3.458,3.143,6.182,7.126,6.391,5.344-7.23,18.232-17.394,28.71-17.394,2.1,0,5.03.524,5.03,3.249,0,6.391-17.709,14.879-30.283,14.984-3.353,3.458-10.164,11.945-10.164,15.927,0,2.724,2.515,3.667,4.925,3.667,5.973,0,16.87-7.335,16.87-12.364a2.833,2.833,0,0,0-3.038-2.934c-3.668,0-8.593,3.982-11.317,7.963l-.315-.419c1.468-2.619,7.23-8.173,11.841-8.173,2.3,0,3.458,1.677,3.458,3.982,0,6.811-10.059,12.574-17.5,12.574-3.982,0-6.182-2.2-6.182-6.182C1617.16,482.522,1621.141,476.864,1624.39,473.406Zm29.437-17.4c-8.488,0-19.595,11.107-24.939,16.975,14.565-.734,29.34-9.012,29.34-14.356C1658.228,456.319,1655.608,456.005,1653.827,456.005Z"/>
            <path id="Tracé_162" data-name="Tracé 162" class="cls-2" d="M1650.167,479.215c14.931-16.137,22.738-22.9,26.51-22.9a1.937,1.937,0,0,1,1.781,2.148c0,5.4-12.731,13.884-23.314,18.337l-4.873,5.5v.1c2.305-1.781,6.707-5.344,9.431-5.344a2.783,2.783,0,0,1,2.829,3.039c0,4.3-8.8,10.583-8.8,12.365a.747.747,0,0,0,.838.733c1.729,0,5.187-2.672,12.365-9.169v.734c-5.606,5.239-10.164,9.064-12.365,9.064-1.2,0-2.095-.734-2.095-2.41,0-3.93,8.8-10.269,8.8-12.26a1.494,1.494,0,0,0-1.676-1.467c-3.458,0-11.316,6.287-18.442,15.194h-3.667Zm26.2-22.267c-2.935,0-11,8.8-20.172,18.809l.053-.1.1.1c5.868-2.463,21.481-11.631,21.481-17.133C1677.83,457.577,1677.515,456.948,1676.363,456.948Z"/>
            <path id="Tracé_163" data-name="Tracé 163" class="cls-2" d="M1700.792,472.976h3.457l-4.282,4.284h3.249l-.419.629h-3.406l-9.744,10.494c-2.148,2.358-3.249,3.458-3.249,4.087,0,.524.629.733,1.153.733,1.519,0,4.768-1.467,13.307-9.116l.315.419c-7.335,6.549-11.474,9.326-13.831,9.326-1.258,0-1.887-1-1.887-2.2,0-1.519.891-3.353,3.878-6.6l6.6-7.141h-3.405l.523-.629h3.458Z"/>
            <path id="Tracé_164" data-name="Tracé 164" class="cls-2" d="M1717.272,484.873c-4.873,4.191-11.16,8.959-16.766,8.959-1.572,0-3.248-.629-3.248-2.62,0-5.658,10.216-14.46,15.77-14.46a2.256,2.256,0,0,1,2.358,2.358c0,4.872-9.117,7.6-12.994,7.6-3.091,3.354-3.563,4.506-3.563,5.24,0,1.048,1.049,1.257,2.1,1.257,4.611,0,10.164-3.825,16.347-8.959Zm-4.244-7.492c-1.991,0-4.715,2.619-10.112,8.7,5.606,0,11.212-4.82,11.212-7.649A1.032,1.032,0,0,0,1713.028,477.381Z"/>
            <path id="Tracé_165" data-name="Tracé 165" class="cls-2" d="M1738.706,477.381c-3.353,3.2-8.278,8.644-11.945,12.679-.943,1.047-1.257,1.571-1.257,2.043,0,.786.576,1.1,1.257,1.1,3.038,0,11.107-6.392,13.622-9.011l.524.314c-2.725,2.829-10.479,9.326-14.356,9.326a2.152,2.152,0,0,1-2.305-2.1,4.861,4.861,0,0,1,.471-2.2h-.1c-2.987,2.829-5.658,4.3-7.806,4.3a3.116,3.116,0,0,1-3.353-3.458c0-6.549,11.473-13.622,15.717-13.622,1.781,0,3.248.838,3.248,2.2a3.39,3.39,0,0,1-.209,1.257h.1l2.725-2.829Zm-8.959,0c-2.3,0-4.086,1.152-12.783,10.373-2.1,2.2-2.253,3.249-2.253,3.825,0,.943.786,1.624,2.1,1.624,4.977,0,14.983-11.264,14.983-13.988A1.961,1.961,0,0,0,1729.747,477.381Z"/>
            <path id="Tracé_166" data-name="Tracé 166" class="cls-2" d="M1763.585,484.686c-.022-.072-.038-.146-.055-.219l-.092-.118c-5.606,5.187-10.845,8.854-12.679,8.854a.94.94,0,0,1-1.048-1.048c0-.838.577-1.519,3.039-4.243l9.431-10.531h-3.353l-6.235,6.916c-6.182,6.81-10.007,8.906-12.364,8.906-1.468,0-2.358-.524-2.358-1.362,0-.786.472-1.729,2.044-3.51l9.692-10.95h-3.458l-7.649,9.011a7.7,7.7,0,0,0-2.2,4.663c0,1.467,1.625,2.777,3.353,2.777,2.934,0,5.659-1.782,9.326-5.03l.1.105a3.9,3.9,0,0,0-.629,2.3,2.211,2.211,0,0,0,2.148,2.62c2.447,0,6.913-3.623,13.087-8.912A1.216,1.216,0,0,1,1763.585,484.686Z"/>
            <path id="Tracé_167" data-name="Tracé 167" class="cls-2" d="M1768.679,477.525a5.57,5.57,0,1,1-5.57,5.569A5.564,5.564,0,0,1,1768.679,477.525Zm0,10.775a5.205,5.205,0,1,0-5.206-5.206A5.214,5.214,0,0,0,1768.679,488.3Zm-1.761-7.619c0-.3-.212-.394-.455-.394h-.334v-.273h2.459c1.214,0,2.155.485,2.155,1.608a1.709,1.709,0,0,1-1.26,1.67l1.5,2c.349.47.531.546.7.577v.121h-.866c-.212,0-.379,0-2.109-2.58h-.971v1.912c0,.3.212.395.455.395h.334v.273h-2.4v-.273h.334c.243,0,.455-.091.455-.395Zm.82,2.459h.85c.819,0,1.244-.516,1.244-1.487,0-1.063-.607-1.366-1.305-1.366h-.789Z"/>
            <path id="Tracé_168" data-name="Tracé 168" class="cls-2" d="M1688.464,477.381c-3.353,3.2-8.278,8.644-11.945,12.679-.944,1.047-1.258,1.571-1.258,2.043,0,.786.576,1.1,1.258,1.1,3.038,0,11.106-6.392,13.621-9.011l.524.314c-2.724,2.829-10.478,9.326-14.355,9.326a2.153,2.153,0,0,1-2.306-2.1,4.863,4.863,0,0,1,.472-2.2h-.1c-2.986,2.829-5.658,4.3-7.806,4.3a3.116,3.116,0,0,1-3.353-3.458c0-6.549,11.474-13.622,15.717-13.622,1.781,0,3.249.838,3.249,2.2a3.376,3.376,0,0,1-.21,1.257h.1l2.724-2.829Zm-8.959,0c-2.306,0-4.087,1.152-12.784,10.373-2.1,2.2-2.253,3.249-2.253,3.825,0,.943.786,1.624,2.1,1.624,4.977,0,14.984-11.264,14.984-13.988A1.962,1.962,0,0,0,1679.505,477.381Zm7.386-7.809c-.734,1.257-.89,1.068-.89,2.43a2.464,2.464,0,0,0,.839,1.886l-.21.21a3.63,3.63,0,0,1-1.886-3.353,19.661,19.661,0,0,1-7.754,3.353l-.21-.21a23.693,23.693,0,0,0,7.491-4.316Z"/>
          </g>
          <g id="Groupe_232" data-name="Groupe 232">
            <path id="Tracé_169" data-name="Tracé 169" class="cls-2" d="M1618.672,501.869l.027,22.294,13.594-.016,0,1.971-15.905.019-.03-24.266Z"/>
            <path id="Tracé_170" data-name="Tracé 170" class="cls-2" d="M1647.1,501.837l9.545,24.254-2.48,0-2.967-7.541-11.044.014-2.914,7.548-2.447,0,9.724-24.277Zm3.314,14.746L1645.7,504.15l-4.845,12.445Z"/>
            <path id="Tracé_171" data-name="Tracé 171" class="cls-2" d="M1686.076,501.789l.019,15.022a11.791,11.791,0,0,0,.48,3.585,5.99,5.99,0,0,0,1.4,2.411,5.376,5.376,0,0,0,2.245,1.357,9.753,9.753,0,0,0,2.99.421,9.91,9.91,0,0,0,3.025-.428,5.39,5.39,0,0,0,2.241-1.363,5.993,5.993,0,0,0,1.39-2.414,11.818,11.818,0,0,0,.472-3.586l-.019-15.022,2.311,0,.019,15.532a11.8,11.8,0,0,1-.522,3.552,7.79,7.79,0,0,1-1.661,2.941,7.909,7.909,0,0,1-2.921,1.992,13.116,13.116,0,0,1-8.632.011,7.9,7.9,0,0,1-2.925-1.985,7.759,7.759,0,0,1-1.669-2.938,11.811,11.811,0,0,1-.532-3.55l-.019-15.532Z"/>
            <path id="Tracé_172" data-name="Tracé 172" class="cls-2" d="M1709.764,501.761l.03,24.265-2.311,0-.03-24.265Z"/>
            <path id="Tracé_173" data-name="Tracé 173" class="cls-2" d="M1714.259,509.1a11.97,11.97,0,0,1,2.136-4.03,10.311,10.311,0,0,1,3.582-2.791,12.594,12.594,0,0,1,10.009-.012,10.361,10.361,0,0,1,3.572,2.782,11.968,11.968,0,0,1,2.146,4.025,16.449,16.449,0,0,1,.011,9.584,11.739,11.739,0,0,1-2.136,4.012,10.448,10.448,0,0,1-3.564,2.775,12.606,12.606,0,0,1-10.009.012,10.406,10.406,0,0,1-3.59-2.766,11.794,11.794,0,0,1-2.145-4.007,16.438,16.438,0,0,1-.012-9.584Zm2.134,8.681a10.464,10.464,0,0,0,1.636,3.43,8.223,8.223,0,0,0,2.841,2.427,8.753,8.753,0,0,0,4.148.912,8.636,8.636,0,0,0,4.127-.923,8.254,8.254,0,0,0,2.818-2.433,10.458,10.458,0,0,0,1.627-3.434,14.68,14.68,0,0,0-.009-7.8,10.519,10.519,0,0,0-1.636-3.414,8.259,8.259,0,0,0-2.823-2.426,9.785,9.785,0,0,0-8.276.01,8.231,8.231,0,0,0-2.835,2.433,10.472,10.472,0,0,0-1.627,3.418,14.709,14.709,0,0,0,.009,7.8Z"/>
            <path id="Tracé_174" data-name="Tracé 174" class="cls-2" d="M1741.421,501.721l.027,22.294,13.594-.017,0,1.971-15.905.02-.03-24.265Z"/>
            <path id="Tracé_175" data-name="Tracé 175" class="cls-2" d="M1773.993,501.681l0,1.971-14.444.017.011,8.769,13.526-.017,0,1.971-13.526.017.012,9.584,14.613-.018,0,1.971-16.925.021-.03-24.266Z"/>
          </g>
        </g>
        <path id="Tracé_176" data-name="Tracé 176" class="cls-2" d="M1677.916,526.014l-.311-4.418h-.068a8.208,8.208,0,0,1-3.5,3.76,8.719,8.719,0,0,1-2.327.87,11.9,11.9,0,0,1-2.565.274,11.445,11.445,0,0,1-5.014-1.03,10.4,10.4,0,0,1-3.59-2.765,11.8,11.8,0,0,1-2.146-4.008,16.447,16.447,0,0,1-.011-9.583,11.944,11.944,0,0,1,2.136-4.03,10.308,10.308,0,0,1,3.583-2.792,11.463,11.463,0,0,1,5.011-1.043,12.468,12.468,0,0,1,3.6.506,9.083,9.083,0,0,1,5.273,4.038,9.749,9.749,0,0,1,1.262,3.5l-2.311,0a5.46,5.46,0,0,0-.7-2.123,7.419,7.419,0,0,0-1.6-1.952,8.234,8.234,0,0,0-5.525-2,8.753,8.753,0,0,0-4.145.922,8.223,8.223,0,0,0-2.835,2.434,10.46,10.46,0,0,0-1.627,3.417,14.734,14.734,0,0,0,.009,7.8,10.453,10.453,0,0,0,1.636,3.431,8.209,8.209,0,0,0,2.84,2.426,8.751,8.751,0,0,0,4.149.912,9.166,9.166,0,0,0,3.584-.667,7.469,7.469,0,0,0,2.665-1.855,7.775,7.775,0,0,0,1.629-2.823,10.689,10.689,0,0,0,.505-3.569l-8.259.01,0-1.971,10.3-.012.015,12.336Z"/>
        <path id="Tracé_177" data-name="Tracé 177" class="cls-2" d="M1688.464,477.408c-3.353,3.2-8.278,8.645-11.945,12.679-.944,1.048-1.258,1.572-1.258,2.043,0,.786.576,1.1,1.258,1.1,3.038,0,11.106-6.392,13.621-9.012l.524.314c-2.724,2.83-10.478,9.326-14.355,9.326a2.152,2.152,0,0,1-2.306-2.1,4.866,4.866,0,0,1,.472-2.2h-.1c-2.986,2.829-5.658,4.3-7.806,4.3a3.115,3.115,0,0,1-3.353-3.457c0-6.55,11.474-13.623,15.717-13.623,1.781,0,3.249.839,3.249,2.2a3.373,3.373,0,0,1-.21,1.257h.1l2.724-2.829Zm-8.959,0c-2.306,0-4.087,1.153-12.784,10.374-2.1,2.2-2.253,3.248-2.253,3.824,0,.943.786,1.625,2.1,1.625,4.977,0,14.984-11.265,14.984-13.989A1.963,1.963,0,0,0,1679.505,477.408Z"/>
      </g>
    </g>
  </g>
</svg>
