<svg xmlns="http://www.w3.org/2000/svg" width="171.667" height="76.989" viewBox="0 0 171.667 76.989">
  <g id="cl-logo" transform="translate(-1609.347 -210.553)">
    <g id="Groupe_289" data-name="Groupe 289">
      <g id="Groupe_288" data-name="Groupe 288">
        <g id="Groupe_287" data-name="Groupe 287">
          <g id="Groupe_285" data-name="Groupe 285">
            <path id="Tracé_244" data-name="Tracé 244" d="M1618.333,230.058c-4.322-.454-8.986-2.381-8.986-7.711,0-7.711,7.507-11.113,14.446-11.113a19.358,19.358,0,0,1,9.441,2.154l-.341.681a19.714,19.714,0,0,0-9.214-2.155c-6.6,0-12.285,3.969-12.285,10.546,0,3.742,3.412,6.691,7.735,6.918,5.8-7.825,19.792-18.825,31.168-18.825,2.275,0,5.459.567,5.459,3.516,0,6.917-19.223,16.1-32.873,16.216-3.64,3.742-11.034,12.928-11.034,17.237,0,2.948,2.73,3.969,5.346,3.969,6.484,0,18.314-7.938,18.314-13.382a3.071,3.071,0,0,0-3.3-3.175c-3.982,0-9.328,4.31-12.286,8.619l-.341-.454c1.593-2.835,7.849-8.845,12.854-8.845,2.5,0,3.753,1.814,3.753,4.309,0,7.371-10.92,13.608-19,13.608-4.322,0-6.711-2.381-6.711-6.69C1610.484,239.924,1614.806,233.8,1618.333,230.058Zm31.956-18.832c-9.214,0-21.271,12.02-27.073,18.371,15.811-.794,31.85-9.753,31.85-15.536C1655.066,211.566,1652.222,211.226,1650.289,211.226Z" fill="#333"/>
            <path id="Tracé_245" data-name="Tracé 245" d="M1646.315,236.344c16.209-17.464,24.684-24.778,28.778-24.778a2.1,2.1,0,0,1,1.935,2.325c0,5.84-13.821,15.025-25.31,19.845l-5.289,5.953v.114c2.5-1.928,7.28-5.784,10.237-5.784a3.016,3.016,0,0,1,3.071,3.289c0,4.649-9.554,11.454-9.554,13.381a.81.81,0,0,0,.909.794c1.877,0,5.631-2.892,13.423-9.923v.794c-6.085,5.67-11.034,9.809-13.423,9.809-1.307,0-2.275-.794-2.275-2.608,0-4.252,9.555-11.113,9.555-13.268a1.62,1.62,0,0,0-1.819-1.587c-3.754,0-12.285,6.8-20.021,16.443h-3.981Zm28.438-24.1c-3.186,0-11.944,9.526-21.9,20.356l.058-.114.113.114c6.37-2.665,23.319-12.588,23.319-18.541C1676.345,212.927,1676,212.246,1674.753,212.246Z" fill="#333"/>
            <path id="Tracé_246" data-name="Tracé 246" d="M1701.272,229.593h3.753l-4.648,4.636h3.526l-.455.68h-3.7l-10.578,11.357c-2.331,2.552-3.526,3.743-3.526,4.423,0,.567.683.794,1.251.794,1.649,0,5.176-1.588,14.446-9.866l.342.454c-7.963,7.087-12.456,10.092-15.015,10.092-1.365,0-2.048-1.077-2.048-2.381,0-1.644.967-3.629,4.209-7.144l7.165-7.729h-3.7l.568-.68h3.754Z" fill="#333"/>
            <path id="Tracé_247" data-name="Tracé 247" d="M1719.162,242.468c-5.29,4.536-12.114,9.695-18.2,9.695-1.706,0-3.526-.68-3.526-2.835,0-6.123,11.09-15.649,17.119-15.649a2.445,2.445,0,0,1,2.56,2.552c0,5.273-9.9,8.221-14.106,8.221-3.355,3.629-3.867,4.876-3.867,5.67,0,1.134,1.138,1.361,2.275,1.361,5.005,0,11.034-4.139,17.745-9.7Zm-4.607-8.109c-2.162,0-5.119,2.835-10.977,9.413,6.086,0,12.171-5.217,12.171-8.279A1.12,1.12,0,0,0,1714.555,234.359Z" fill="#333"/>
            <path id="Tracé_248" data-name="Tracé 248" d="M1742.431,234.359c-3.64,3.459-8.987,9.356-12.968,13.722-1.024,1.134-1.365,1.7-1.365,2.211,0,.851.626,1.191,1.365,1.191,3.3,0,12.057-6.917,14.787-9.752l.569.34c-2.957,3.062-11.375,10.092-15.583,10.092a2.332,2.332,0,0,1-2.5-2.268,5.249,5.249,0,0,1,.512-2.381h-.114c-3.242,3.062-6.142,4.649-8.474,4.649a3.376,3.376,0,0,1-3.64-3.742c0-7.087,12.455-14.742,17.062-14.742,1.934,0,3.526.907,3.526,2.382a3.654,3.654,0,0,1-.227,1.36h.113l2.958-3.062Zm-9.726,0c-2.5,0-4.436,1.248-13.877,11.227-2.276,2.382-2.446,3.516-2.446,4.139,0,1.021.853,1.758,2.275,1.758,5.4,0,16.266-12.19,16.266-15.139A2.128,2.128,0,0,0,1732.7,234.359Z" fill="#333"/>
            <path id="Tracé_249" data-name="Tracé 249" d="M1769.438,242.265c-.024-.078-.041-.157-.06-.237l-.1-.128c-6.086,5.614-11.773,9.583-13.764,9.583a1.019,1.019,0,0,1-1.138-1.134c0-.907.626-1.644,3.3-4.593l10.238-11.4h-3.64l-6.768,7.485c-6.712,7.371-10.864,9.639-13.423,9.639-1.593,0-2.559-.567-2.559-1.474,0-.851.512-1.871,2.218-3.8l10.522-11.851h-3.754l-8.3,9.753c-1.535,1.814-2.389,3.516-2.389,5.046,0,1.588,1.764,3,3.64,3,3.185,0,6.143-1.928,10.124-5.443l.114.114a4.21,4.21,0,0,0-.683,2.494,2.394,2.394,0,0,0,2.333,2.835c2.655,0,7.5-3.921,14.206-9.645A1.294,1.294,0,0,1,1769.438,242.265Z" fill="#333"/>
            <path id="Tracé_250" data-name="Tracé 250" d="M1774.967,234.515a6.028,6.028,0,1,1-6.046,6.028A6.031,6.031,0,0,1,1774.967,234.515Zm0,11.661a5.634,5.634,0,1,0-5.651-5.633A5.652,5.652,0,0,0,1774.967,246.176Zm-1.91-8.244c0-.329-.231-.427-.495-.427h-.362v-.3h2.669c1.318,0,2.339.526,2.339,1.741a1.85,1.85,0,0,1-1.367,1.807l1.631,2.168c.379.509.576.591.758.624v.131h-.94c-.23,0-.412,0-2.29-2.792h-1.054v2.069c0,.329.231.427.495.427h.362v.3h-2.6v-.3h.362c.264,0,.495-.1.495-.427Zm.889,2.66h.923c.889,0,1.351-.558,1.351-1.609,0-1.15-.659-1.478-1.417-1.478h-.857Z" fill="#333"/>
            <path id="Tracé_251" data-name="Tracé 251" d="M1687.889,234.359c-3.64,3.459-8.986,9.356-12.967,13.722-1.024,1.134-1.365,1.7-1.365,2.211,0,.851.625,1.191,1.365,1.191,3.3,0,12.057-6.917,14.787-9.752l.569.34c-2.957,3.062-11.375,10.092-15.584,10.092a2.333,2.333,0,0,1-2.5-2.268,5.249,5.249,0,0,1,.512-2.381h-.113c-3.242,3.062-6.143,4.649-8.474,4.649a3.376,3.376,0,0,1-3.64-3.742c0-7.087,12.455-14.742,17.062-14.742,1.933,0,3.526.907,3.526,2.382a3.654,3.654,0,0,1-.227,1.36h.113l2.958-3.062Zm-9.725,0c-2.5,0-4.437,1.248-13.878,11.227-2.275,2.382-2.445,3.516-2.445,4.139,0,1.021.853,1.758,2.275,1.758,5.4,0,16.265-12.19,16.265-15.139A2.128,2.128,0,0,0,1678.164,234.359Zm8.018-8.451c-.8,1.361-.966,1.157-.966,2.631a2.667,2.667,0,0,0,.91,2.041l-.228.227c-1.251-.454-2.047-2.155-2.047-3.629a21.369,21.369,0,0,1-8.418,3.629l-.227-.227a25.751,25.751,0,0,0,8.132-4.672Z" fill="#333"/>
          </g>
          <g id="Groupe_286" data-name="Groupe 286">
            <path id="Tracé_252" data-name="Tracé 252" d="M1612.126,260.861l.029,24.128,14.757-.018,0,2.133-17.266.021-.032-26.261Z" fill="#333"/>
            <path id="Tracé_253" data-name="Tracé 253" d="M1642.982,260.827l10.362,26.249-2.693,0-3.22-8.161-11.99.014-3.163,8.169-2.656,0,10.556-26.274Zm3.6,15.958-5.108-13.455-5.259,13.468Z" fill="#333"/>
            <path id="Tracé_254" data-name="Tracé 254" d="M1685.3,260.775l.02,16.257a12.693,12.693,0,0,0,.521,3.88,6.477,6.477,0,0,0,1.516,2.609,5.86,5.86,0,0,0,2.437,1.469,10.667,10.667,0,0,0,3.247.456,10.79,10.79,0,0,0,3.283-.464,5.864,5.864,0,0,0,2.433-1.474,6.507,6.507,0,0,0,1.509-2.614,12.754,12.754,0,0,0,.512-3.88l-.02-16.257,2.508,0,.021,16.809a12.73,12.73,0,0,1-.567,3.844,8.435,8.435,0,0,1-1.8,3.184,8.594,8.594,0,0,1-3.171,2.155,14.273,14.273,0,0,1-9.371.012,8.584,8.584,0,0,1-3.175-2.148,8.413,8.413,0,0,1-1.812-3.179,12.757,12.757,0,0,1-.577-3.843l-.02-16.808Z" fill="#333"/>
            <path id="Tracé_255" data-name="Tracé 255" d="M1711.012,260.744l.033,26.261-2.509,0-.033-26.261Z" fill="#333"/>
            <path id="Tracé_256" data-name="Tracé 256" d="M1715.892,268.683a12.933,12.933,0,0,1,2.318-4.361,11.189,11.189,0,0,1,3.889-3.021,12.468,12.468,0,0,1,5.44-1.129,12.341,12.341,0,0,1,5.425,1.116,11.226,11.226,0,0,1,3.877,3.011,12.928,12.928,0,0,1,2.33,4.355,17.749,17.749,0,0,1,.013,10.372,12.709,12.709,0,0,1-2.319,4.343,11.341,11.341,0,0,1-3.87,3,13.718,13.718,0,0,1-10.865.013,11.311,11.311,0,0,1-3.9-2.993,12.743,12.743,0,0,1-2.329-4.337,17.74,17.74,0,0,1-.012-10.372Zm2.316,9.394a11.305,11.305,0,0,0,1.776,3.713,8.913,8.913,0,0,0,3.084,2.626,9.533,9.533,0,0,0,4.5.987,9.413,9.413,0,0,0,4.48-1,8.973,8.973,0,0,0,3.06-2.634,11.287,11.287,0,0,0,1.765-3.717,15.826,15.826,0,0,0-.01-8.44,11.337,11.337,0,0,0-1.775-3.7,8.976,8.976,0,0,0-3.065-2.626,10.662,10.662,0,0,0-8.984.011,8.928,8.928,0,0,0-3.077,2.633,11.323,11.323,0,0,0-1.767,3.7,15.882,15.882,0,0,0,.01,8.441Z" fill="#333"/>
            <path id="Tracé_257" data-name="Tracé 257" d="M1745.377,260.7l.03,24.128,14.757-.018,0,2.133-17.266.021-.032-26.261Z" fill="#333"/>
            <path id="Tracé_258" data-name="Tracé 258" d="M1780.736,260.658l0,2.133-15.679.019.011,9.489,14.684-.018,0,2.134-14.684.017.013,10.372,15.864-.019,0,2.133-18.373.023-.033-26.261Z" fill="#333"/>
          </g>
        </g>
        <path id="Tracé_259" data-name="Tracé 259" d="M1676.439,286.992l-.338-4.781h-.074a8.878,8.878,0,0,1-3.795,4.069,9.518,9.518,0,0,1-2.526.941,13.015,13.015,0,0,1-2.784.3,12.45,12.45,0,0,1-5.443-1.115,11.268,11.268,0,0,1-3.9-2.993,12.743,12.743,0,0,1-2.33-4.336,17.762,17.762,0,0,1-.012-10.372,12.923,12.923,0,0,1,2.319-4.362,11.194,11.194,0,0,1,3.889-3.021,12.464,12.464,0,0,1,5.44-1.128,13.576,13.576,0,0,1,3.911.547,10.107,10.107,0,0,1,3.286,1.651,9.989,9.989,0,0,1,2.437,2.719,10.507,10.507,0,0,1,1.37,3.786l-2.509,0a5.873,5.873,0,0,0-.758-2.3,8.026,8.026,0,0,0-1.737-2.113,8.959,8.959,0,0,0-2.6-1.56,9.06,9.06,0,0,0-3.394-.6,9.534,9.534,0,0,0-4.5,1,8.917,8.917,0,0,0-3.077,2.633,11.3,11.3,0,0,0-1.766,3.7,15.882,15.882,0,0,0,.01,8.441,11.3,11.3,0,0,0,1.775,3.713,8.909,8.909,0,0,0,3.084,2.625,9.524,9.524,0,0,0,4.5.988,9.987,9.987,0,0,0,3.891-.722,8.1,8.1,0,0,0,2.894-2.008,8.409,8.409,0,0,0,1.767-3.055,11.523,11.523,0,0,0,.549-3.862l-8.965.011,0-2.134,11.178-.013.017,13.351Z" fill="#333"/>
        <path id="Tracé_260" data-name="Tracé 260" d="M1687.889,234.389c-3.64,3.459-8.986,9.356-12.967,13.721-1.024,1.135-1.365,1.7-1.365,2.212,0,.85.625,1.191,1.365,1.191,3.3,0,12.057-6.918,14.787-9.753l.569.34c-2.957,3.062-11.375,10.093-15.584,10.093a2.333,2.333,0,0,1-2.5-2.268,5.249,5.249,0,0,1,.512-2.381h-.113c-3.242,3.062-6.143,4.649-8.474,4.649a3.377,3.377,0,0,1-3.64-3.742c0-7.088,12.455-14.742,17.062-14.742,1.933,0,3.526.907,3.526,2.381a3.658,3.658,0,0,1-.227,1.361h.113l2.958-3.062Zm-9.725,0c-2.5,0-4.437,1.248-13.878,11.227-2.275,2.381-2.445,3.515-2.445,4.139,0,1.021.853,1.758,2.275,1.758,5.4,0,16.265-12.191,16.265-15.139A2.127,2.127,0,0,0,1678.164,234.389Z" fill="#333"/>
      </g>
    </g>
  </g>
</svg>
