<svg xmlns="http://www.w3.org/2000/svg" width="" height="" viewBox="0 0 290 290">
  <g id="gv-box" transform="translate(-2266.019 -352.753)">
    <rect id="Rectangle_73" data-name="Rectangle 73" width="290" height="290" transform="translate(2266.019 352.753)" fill="#d9a149"/>
    <g id="Groupe_246" data-name="Groupe 246">
      <g id="Groupe_245" data-name="Groupe 245">
        <g id="Groupe_242" data-name="Groupe 242">
          <g id="Groupe_241" data-name="Groupe 241">
            <g id="Groupe_240" data-name="Groupe 240">
              <g id="Groupe_237" data-name="Groupe 237">
                <path id="Tracé_178" data-name="Tracé 178" d="M2426.991,502.662v11.951a6.052,6.052,0,0,0,.549,3.036,2.036,2.036,0,0,0,1.874.872,3.436,3.436,0,0,0,2.365-1.041,9.131,9.131,0,0,0,1.987-3.009,1.679,1.679,0,0,0,.492.379,3.4,3.4,0,0,0,.606.151q-2.385,5.223-6.851,5.223a5.373,5.373,0,0,1-3.823-1.248,4.7,4.7,0,0,1-1.325-3.6V506.6a3.469,3.469,0,0,0-.454-2.082,1.933,1.933,0,0,0-1.59-.567h-1.779a2.367,2.367,0,0,0,.114-.625,3.293,3.293,0,0,0-.114-.663Zm-2.309-9.121a2.461,2.461,0,0,1,1.836.757,2.51,2.51,0,0,1,.738,1.816,2.557,2.557,0,0,1-.738,1.855,2.461,2.461,0,0,1-1.836.757,2.586,2.586,0,0,1-2.612-2.612,2.477,2.477,0,0,1,.758-1.816A2.518,2.518,0,0,1,2424.682,493.541Z" fill="#fff"/>
                <path id="Tracé_179" data-name="Tracé 179" d="M2441.562,502.586h4.126v12.453q0,3.483,2.46,3.482a3.671,3.671,0,0,0,2.328-1.06,9.71,9.71,0,0,0,2.176-2.839,1.676,1.676,0,0,0,.416.379,2.343,2.343,0,0,0,.53.152q-2.724,5.071-6.888,5.071a5.712,5.712,0,0,1-2.555-.549,6.356,6.356,0,0,1-2.062-1.684,5.417,5.417,0,0,1-4.24,2.157,5.7,5.7,0,0,1-2.744-.681,6.531,6.531,0,0,1-2.176-1.912,9.845,9.845,0,0,1-1.438-2.894,12.617,12.617,0,0,1-.019-7.173,8.648,8.648,0,0,1,1.438-2.782,6.474,6.474,0,0,1,2.233-1.817,6.377,6.377,0,0,1,2.858-.643,5.1,5.1,0,0,1,3.557,1.476Zm-2.779,15.935a2.384,2.384,0,0,0,2-1.06,4.412,4.412,0,0,0,.78-2.687v-7.04a4.916,4.916,0,0,0-.761-2.914,2.44,2.44,0,0,0-2.094-1.06,2.941,2.941,0,0,0-2.646,1.874,11.351,11.351,0,0,0-.971,5.166,13.263,13.263,0,0,0,.99,5.677A3.014,3.014,0,0,0,2438.783,518.521Z" fill="#fff"/>
                <path id="Tracé_180" data-name="Tracé 180" d="M2456.209,494.639v18.772a8.2,8.2,0,0,0,.625,3.8,2.3,2.3,0,0,0,2.176,1.079q2.687,0,4.163-3.974a3.656,3.656,0,0,0,.625.341,2.892,2.892,0,0,0,.7.113,10.434,10.434,0,0,1-2.877,4.163,6.7,6.7,0,0,1-6.566.814,5.174,5.174,0,0,1-1.912-1.419,4.349,4.349,0,0,1-.833-1.628,9.472,9.472,0,0,1-.227-2.308V498.574a3.6,3.6,0,0,0-.435-2.062,1.891,1.891,0,0,0-1.609-.587h-1.74a2.394,2.394,0,0,0,.113-.623,3.309,3.309,0,0,0-.113-.663Z" fill="#fff"/>
                <path id="Tracé_181" data-name="Tracé 181" d="M2467,502.662v11.951a6.053,6.053,0,0,0,.549,3.036,2.036,2.036,0,0,0,1.873.872,3.438,3.438,0,0,0,2.366-1.041,9.127,9.127,0,0,0,1.987-3.009,1.666,1.666,0,0,0,.492.379,3.415,3.415,0,0,0,.6.151q-2.383,5.223-6.85,5.223a5.372,5.372,0,0,1-3.823-1.248,4.7,4.7,0,0,1-1.325-3.6V506.6a3.47,3.47,0,0,0-.454-2.082,1.933,1.933,0,0,0-1.59-.567h-1.779a2.365,2.365,0,0,0,.114-.625,3.287,3.287,0,0,0-.114-.663Zm-2.309-9.121a2.462,2.462,0,0,1,1.836.757,2.51,2.51,0,0,1,.738,1.816,2.557,2.557,0,0,1-.738,1.855,2.462,2.462,0,0,1-1.836.757,2.585,2.585,0,0,1-2.612-2.612,2.479,2.479,0,0,1,.757-1.816A2.522,2.522,0,0,1,2464.687,493.541Z" fill="#fff"/>
                <path id="Tracé_182" data-name="Tracé 182" d="M2475.209,505.8a1.979,1.979,0,0,0,.549,1.439,6.63,6.63,0,0,0,1.986,1.212l3.18,1.4a15.353,15.353,0,0,1,2.044,1.06,5.884,5.884,0,0,1,1.343,1.135,3.9,3.9,0,0,1,.738,1.287,4.909,4.909,0,0,1,.227,1.551,4.714,4.714,0,0,1-1.948,3.994,8.765,8.765,0,0,1-5.356,1.457,11.087,11.087,0,0,1-2.763-.322,7.623,7.623,0,0,1-2.158-.89,4.253,4.253,0,0,1-1.4-1.362,3.245,3.245,0,0,1-.492-1.741,2.484,2.484,0,0,1,.643-1.779,2.23,2.23,0,0,1,1.7-.681,2.354,2.354,0,0,1,1.647.605,1.971,1.971,0,0,1,.663,1.515,3.088,3.088,0,0,1-.152.983c-.051.2-.095.354-.132.455a.827.827,0,0,0-.057.3,1.559,1.559,0,0,0,.719,1.363,3.36,3.36,0,0,0,1.93.492,3.42,3.42,0,0,0,2.5-.89,3.16,3.16,0,0,0,.908-2.365,2.625,2.625,0,0,0-.568-1.741,5,5,0,0,0-1.892-1.249l-3.406-1.438a9.438,9.438,0,0,1-3.2-2.006,3.735,3.735,0,0,1-.928-2.612,3.993,3.993,0,0,1,1.8-3.5,8.956,8.956,0,0,1,5.09-1.23,9.959,9.959,0,0,1,4.732.947,2.889,2.889,0,0,1,1.741,2.61,2.235,2.235,0,0,1-.7,1.666,2.52,2.52,0,0,1-3.293.133,1.761,1.761,0,0,1-.625-1.382,1.125,1.125,0,0,1,.057-.359q.057-.171.171-.474a1.874,1.874,0,0,0,.113-.567,1.278,1.278,0,0,0-.681-1.136,3.55,3.55,0,0,0-1.855-.416,3.119,3.119,0,0,0-2.12.662A2.358,2.358,0,0,0,2475.209,505.8Z" fill="#fff"/>
              </g>
              <g id="Groupe_239" data-name="Groupe 239">
                <g id="Groupe_238" data-name="Groupe 238">
                  <path id="Tracé_183" data-name="Tracé 183" d="M2341.492,499.162a1.371,1.371,0,0,0-.038-.284,2.363,2.363,0,0,0-.114-.36h10.825a1.583,1.583,0,0,0-.151.644,2.059,2.059,0,0,0,.151.643h-.568a4.809,4.809,0,0,0-1.135.113,1.543,1.543,0,0,0-.738.4,1.688,1.688,0,0,0-.416.794,6.623,6.623,0,0,0-.171,1.344l-.076,1.59a14.279,14.279,0,0,1-.738,3.861,6.128,6.128,0,0,1-1.646,2.422,9.99,9.99,0,0,1-6.775,2.195,11.708,11.708,0,0,1-6.056-1.476,8.2,8.2,0,0,1-3.558-4.2,16.007,16.007,0,0,1-.946-3.444,26.216,26.216,0,0,1-.3-4.2q0-6.662,2.762-9.841t8.516-3.178a11.68,11.68,0,0,1,6,1.286,4,4,0,0,1,2.138,3.6,2.968,2.968,0,0,1-.738,2.043,2.353,2.353,0,0,1-1.836.833,2.494,2.494,0,0,1-1.816-.7,2.4,2.4,0,0,1-.72-1.8c0-.127.006-.266.019-.417a3.538,3.538,0,0,1,.057-.416l.076-.379a2.632,2.632,0,0,0,.037-.492,2.111,2.111,0,0,0-.983-1.741,3.936,3.936,0,0,0-2.385-.719,5.389,5.389,0,0,0-4.958,3.066q-1.7,3.066-1.7,8.969a27.567,27.567,0,0,0,.416,5.035,13.863,13.863,0,0,0,1.211,3.784,6.444,6.444,0,0,0,1.93,2.366,4.314,4.314,0,0,0,2.574.814,4.192,4.192,0,0,0,2.707-.965,5.4,5.4,0,0,0,1.722-2.593,13.07,13.07,0,0,0,.473-2.252,20.124,20.124,0,0,0,.17-2.592,11.039,11.039,0,0,0-.095-1.628,2.049,2.049,0,0,0-.359-.947,1.243,1.243,0,0,0-.795-.434,7.918,7.918,0,0,0-1.363-.1h-.757c.051-.152.088-.284.114-.4A1.3,1.3,0,0,0,2341.492,499.162Z" fill="#fff"/>
                  <path id="Tracé_184" data-name="Tracé 184" d="M2365.336,498.51h4.125v8.4q0,3.717,2.385,3.718a3.121,3.121,0,0,0,2.158-.909,11.676,11.676,0,0,0,2.119-3.066,1.684,1.684,0,0,0,.491.379,3.474,3.474,0,0,0,.607.151,11.677,11.677,0,0,1-3.048,3.936,6.082,6.082,0,0,1-3.766,1.212,5.993,5.993,0,0,1-2.819-.644,3.975,3.975,0,0,1-1.8-1.816,6.976,6.976,0,0,1-2.289,1.835,6.765,6.765,0,0,1-2.934.587,6.562,6.562,0,0,1-2.517-.474,4.834,4.834,0,0,1-1.873-1.305,4.487,4.487,0,0,1-.852-1.741,10.948,10.948,0,0,1-.246-2.574v-3.755a3.6,3.6,0,0,0-.435-2.082,1.926,1.926,0,0,0-1.609-.567h-1.741a2.351,2.351,0,0,0,.114-.624,3.263,3.263,0,0,0-.114-.663h7.91V505.7a6.826,6.826,0,0,0,.72,3.605,2.631,2.631,0,0,0,2.384,1.1q3.028,0,3.028-4.514Z" fill="#fff"/>
                  <path id="Tracé_185" data-name="Tracé 185" d="M2385.964,494.733h4.125v19.746a15.087,15.087,0,0,1-.113,1.952,8.377,8.377,0,0,1-.341,1.535,4.571,4.571,0,0,1-.625,1.232,6.144,6.144,0,0,1-.965,1.042,7.409,7.409,0,0,1-2.668,1.592,10.057,10.057,0,0,1-3.312.531,9.749,9.749,0,0,1-2.744-.371,7.108,7.108,0,0,1-2.2-1.041,4.989,4.989,0,0,1-1.438-1.56,3.842,3.842,0,0,1-.512-1.949,2.883,2.883,0,0,1,.776-2.043,2.7,2.7,0,0,1,3.747-.152,2.14,2.14,0,0,1,.738,1.627,2.776,2.776,0,0,1-.037.455,2.076,2.076,0,0,1-.114.416l-.151.416a4.382,4.382,0,0,0-.171.549,2.489,2.489,0,0,0-.057.549q0,1.816,2.257,1.817a3.384,3.384,0,0,0,2.934-1.191,7.054,7.054,0,0,0,.866-4.025l.037-5.291a6.85,6.85,0,0,1-4.883,1.739,7.163,7.163,0,0,1-2.686-.472,4.119,4.119,0,0,1-1.855-1.417,3.33,3.33,0,0,1-.7-1.456,11.488,11.488,0,0,1-.17-2.248v-8.05a3.455,3.455,0,0,0-.455-2.078,1.93,1.93,0,0,0-1.589-.567h-1.779a1.061,1.061,0,0,0,0-1.287h7.872v12.944a3.286,3.286,0,0,0,.715,2.272,2.641,2.641,0,0,0,2.069.794,3.175,3.175,0,0,0,2.539-1.022,4.263,4.263,0,0,0,.885-2.877Z" fill="#fff"/>
                </g>
              </g>
            </g>
            <path id="Tracé_186" data-name="Tracé 186" d="M2420.49,496.438c-.008-.11-.011-.222-.011-.335a4.046,4.046,0,0,1,.26-1.464h-8.011a2.088,2.088,0,0,1,.151.642,1.6,1.6,0,0,1-.151.644h.643a2.283,2.283,0,0,1,1.874.814,3.536,3.536,0,0,1,.662,2.29,14.625,14.625,0,0,1-.946,4.049l-4.011,12.15-5.451-16.01a6.467,6.467,0,0,1-.454-1.892q0-1.4,1.892-1.4h.795a1.586,1.586,0,0,1-.151-.644,2.059,2.059,0,0,1,.151-.642h-10.257a1.608,1.608,0,0,1,0,1.286,9.093,9.093,0,0,1,1.419.228,2.216,2.216,0,0,1,1,.549,3.6,3.6,0,0,1,.739,1.078q.321.681.7,1.741L2408.3,520a9.45,9.45,0,0,1,1.212-.114,11.281,11.281,0,0,1,1.211.114l5.526-16.5q.378-1.173.681-1.987t.549-1.381a7.752,7.752,0,0,1,.53-1.023c.19-.3.4-.63.624-.983a5.8,5.8,0,0,1,1.552-1.514A3.046,3.046,0,0,1,2420.49,496.438Z" fill="#fff"/>
          </g>
        </g>
        <g id="Groupe_244" data-name="Groupe 244">
          <g id="Groupe_243" data-name="Groupe 243">
            <path id="Tracé_187" data-name="Tracé 187" d="M2388.489,461.7c-.951.2-1.278-.48-.479-1.032,5.413-3.741,14.617-6.6,21.41-3.739,10.189,4.3,11.764,14.282,10.241,21.472,0,0-4.217-12.819-16.052-16.542,0,0,13.666,5.225,16,23.576,0,0-12.34,1.986-18.325-14.211C2398.038,462.442,2392.509,460.87,2388.489,461.7Z" fill="#fff"/>
          </g>
        </g>
      </g>
    </g>
  </g>
</svg>
