<svg xmlns="http://www.w3.org/2000/svg" width="187.614" height="79.727" viewBox="0 0 187.614 79.727">
  <g id="gv-logo" transform="translate(-2317.212 -212.833)">
    <g id="Groupe_283" data-name="Groupe 283">
      <g id="Groupe_282" data-name="Groupe 282">
        <g id="Groupe_279" data-name="Groupe 279">
          <g id="Groupe_278" data-name="Groupe 278">
            <g id="Groupe_277" data-name="Groupe 277">
              <g id="Groupe_274" data-name="Groupe 274">
                <path id="Tracé_234" data-name="Tracé 234" d="M2434.835,268.975v14.307a7.236,7.236,0,0,0,.659,3.635,2.449,2.449,0,0,0,2.251,1.044,4.129,4.129,0,0,0,2.84-1.247,10.879,10.879,0,0,0,2.386-3.6,2,2,0,0,0,.591.454,4.017,4.017,0,0,0,.727.181q-2.864,6.253-8.227,6.253a6.458,6.458,0,0,1-4.59-1.495,5.622,5.622,0,0,1-1.591-4.3V273.688a4.144,4.144,0,0,0-.545-2.492,2.324,2.324,0,0,0-1.91-.679h-2.136a2.826,2.826,0,0,0,.137-.748,3.952,3.952,0,0,0-.137-.794Zm-2.772-10.919a2.96,2.96,0,0,1,2.2.906,3,3,0,0,1,.886,2.175,3.053,3.053,0,0,1-.886,2.22,2.96,2.96,0,0,1-2.2.906,3.1,3.1,0,0,1-3.136-3.126,2.963,2.963,0,0,1,.909-2.175A3.033,3.033,0,0,1,2432.063,258.056Z" fill="#d9a149"/>
                <path id="Tracé_235" data-name="Tracé 235" d="M2452.333,268.885h4.954v14.907q0,4.17,2.955,4.169a4.417,4.417,0,0,0,2.8-1.268,11.631,11.631,0,0,0,2.613-3.4,1.986,1.986,0,0,0,.5.453,2.809,2.809,0,0,0,.636.182q-3.271,6.072-8.272,6.071a6.9,6.9,0,0,1-3.068-.657,7.642,7.642,0,0,1-2.476-2.016,6.509,6.509,0,0,1-5.091,2.582,6.855,6.855,0,0,1-3.295-.816,7.83,7.83,0,0,1-2.613-2.288,11.784,11.784,0,0,1-1.727-3.465,15.072,15.072,0,0,1-.023-8.587,10.362,10.362,0,0,1,1.727-3.331,7.766,7.766,0,0,1,2.681-2.174,7.674,7.674,0,0,1,3.432-.771,6.132,6.132,0,0,1,4.272,1.768ZM2449,287.961a2.868,2.868,0,0,0,2.4-1.268,5.279,5.279,0,0,0,.937-3.218v-8.428a5.876,5.876,0,0,0-.914-3.488,2.932,2.932,0,0,0-2.514-1.27,3.533,3.533,0,0,0-3.178,2.244,13.552,13.552,0,0,0-1.166,6.184,15.832,15.832,0,0,0,1.189,6.8Q2446.939,287.96,2449,287.961Z" fill="#d9a149"/>
                <path id="Tracé_236" data-name="Tracé 236" d="M2469.921,259.37v22.474a9.791,9.791,0,0,0,.75,4.553,2.766,2.766,0,0,0,2.614,1.293q3.227,0,5-4.758a4.476,4.476,0,0,0,.75.408,3.553,3.553,0,0,0,.841.135,12.5,12.5,0,0,1-3.454,4.984,8.061,8.061,0,0,1-7.886.974,6.193,6.193,0,0,1-2.295-1.7,5.194,5.194,0,0,1-1-1.948,11.286,11.286,0,0,1-.273-2.763V264.082a4.314,4.314,0,0,0-.522-2.47,2.279,2.279,0,0,0-1.932-.7h-2.091a2.822,2.822,0,0,0,.136-.746,3.915,3.915,0,0,0-.136-.794Z" fill="#d9a149"/>
                <path id="Tracé_237" data-name="Tracé 237" d="M2482.874,268.975v14.307a7.223,7.223,0,0,0,.66,3.635,2.448,2.448,0,0,0,2.25,1.044,4.127,4.127,0,0,0,2.84-1.247,10.879,10.879,0,0,0,2.386-3.6,2,2,0,0,0,.591.454,4.013,4.013,0,0,0,.727.181Q2489.464,290,2484.1,290a6.459,6.459,0,0,1-4.591-1.495,5.622,5.622,0,0,1-1.591-4.3V273.688a4.145,4.145,0,0,0-.545-2.492,2.323,2.323,0,0,0-1.909-.679h-2.136a2.836,2.836,0,0,0,.137-.748,3.97,3.97,0,0,0-.137-.794Zm-2.772-10.919a2.959,2.959,0,0,1,2.2.906,3,3,0,0,1,.886,2.175,3.049,3.049,0,0,1-.886,2.22,2.959,2.959,0,0,1-2.2.906,3.1,3.1,0,0,1-3.136-3.126,2.963,2.963,0,0,1,.909-2.175A3.033,3.033,0,0,1,2480.1,258.056Z" fill="#d9a149"/>
                <path id="Tracé_238" data-name="Tracé 238" d="M2492.737,272.736a2.365,2.365,0,0,0,.66,1.722,7.947,7.947,0,0,0,2.385,1.451l3.818,1.676a18.385,18.385,0,0,1,2.454,1.269,7.028,7.028,0,0,1,1.613,1.359,4.656,4.656,0,0,1,.886,1.54,5.844,5.844,0,0,1,.273,1.858,5.639,5.639,0,0,1-2.34,4.781,10.551,10.551,0,0,1-6.431,1.744,13.319,13.319,0,0,1-3.318-.386,9.18,9.18,0,0,1-2.591-1.064,5.087,5.087,0,0,1-1.681-1.632,3.872,3.872,0,0,1-.591-2.083,2.968,2.968,0,0,1,.772-2.13,2.684,2.684,0,0,1,2.045-.815,2.829,2.829,0,0,1,1.977.724,2.354,2.354,0,0,1,.8,1.813,3.683,3.683,0,0,1-.182,1.177,5.6,5.6,0,0,1-.159.545,1,1,0,0,0-.068.362,1.865,1.865,0,0,0,.863,1.631,4.05,4.05,0,0,0,2.319.589,4.11,4.11,0,0,0,3-1.065,3.777,3.777,0,0,0,1.091-2.831,3.139,3.139,0,0,0-.682-2.085,6.022,6.022,0,0,0-2.272-1.495l-4.091-1.721a11.356,11.356,0,0,1-3.84-2.4,4.465,4.465,0,0,1-1.114-3.127,4.777,4.777,0,0,1,2.159-4.192,10.786,10.786,0,0,1,6.113-1.472,11.99,11.99,0,0,1,5.681,1.134,3.459,3.459,0,0,1,2.092,3.125,2.671,2.671,0,0,1-.842,1.994,3.031,3.031,0,0,1-3.954.159,2.105,2.105,0,0,1-.75-1.654,1.361,1.361,0,0,1,.068-.43c.046-.137.114-.325.205-.567a2.224,2.224,0,0,0,.136-.679,1.528,1.528,0,0,0-.818-1.36,4.268,4.268,0,0,0-2.227-.5,3.754,3.754,0,0,0-2.546.793A2.815,2.815,0,0,0,2492.737,272.736Z" fill="#d9a149"/>
              </g>
              <g id="Groupe_276" data-name="Groupe 276">
                <g id="Groupe_275" data-name="Groupe 275">
                  <path id="Tracé_239" data-name="Tracé 239" d="M2332.164,264.785a1.631,1.631,0,0,0-.045-.34,2.831,2.831,0,0,0-.137-.431h13a1.9,1.9,0,0,0-.182.771,2.47,2.47,0,0,0,.182.77h-.682a5.848,5.848,0,0,0-1.364.135,1.851,1.851,0,0,0-.886.477,2.022,2.022,0,0,0-.5.951,7.978,7.978,0,0,0-.205,1.608l-.091,1.9a17.046,17.046,0,0,1-.886,4.623,7.338,7.338,0,0,1-1.977,2.9,12.019,12.019,0,0,1-8.136,2.628,14.1,14.1,0,0,1-7.271-1.766,9.823,9.823,0,0,1-4.273-5.031,19.134,19.134,0,0,1-1.136-4.123,31.272,31.272,0,0,1-.363-5.029q0-7.974,3.317-11.781t10.226-3.806a14.058,14.058,0,0,1,7.205,1.541,4.787,4.787,0,0,1,2.567,4.3,3.549,3.549,0,0,1-.886,2.447,2.83,2.83,0,0,1-2.2,1,3,3,0,0,1-2.181-.839,2.863,2.863,0,0,1-.864-2.151c0-.152.007-.319.023-.5a4.2,4.2,0,0,1,.068-.5l.091-.454a3.118,3.118,0,0,0,.045-.588,2.524,2.524,0,0,0-1.181-2.085,4.741,4.741,0,0,0-2.864-.861,6.474,6.474,0,0,0-5.954,3.67q-2.045,3.671-2.045,10.738a32.8,32.8,0,0,0,.5,6.027,16.6,16.6,0,0,0,1.454,4.531,7.735,7.735,0,0,0,2.318,2.832,5.189,5.189,0,0,0,3.09.975,5.044,5.044,0,0,0,3.251-1.156,6.458,6.458,0,0,0,2.068-3.1,15.563,15.563,0,0,0,.568-2.7,23.965,23.965,0,0,0,.2-3.1,13.146,13.146,0,0,0-.114-1.949,2.439,2.439,0,0,0-.431-1.133,1.494,1.494,0,0,0-.955-.521,9.714,9.714,0,0,0-1.637-.113h-.909c.061-.182.106-.34.137-.476A1.541,1.541,0,0,0,2332.164,264.785Z" fill="#d9a149"/>
                  <path id="Tracé_240" data-name="Tracé 240" d="M2360.8,264h4.954v10.059q0,4.451,2.863,4.451a3.753,3.753,0,0,0,2.591-1.088,13.987,13.987,0,0,0,2.545-3.67,2,2,0,0,0,.59.453,3.975,3.975,0,0,0,.728.181,13.971,13.971,0,0,1-3.659,4.712,7.321,7.321,0,0,1-4.522,1.451,7.211,7.211,0,0,1-3.386-.771,4.763,4.763,0,0,1-2.159-2.174,8.387,8.387,0,0,1-2.749,2.2,8.144,8.144,0,0,1-3.524.7,7.907,7.907,0,0,1-3.022-.566,5.816,5.816,0,0,1-2.249-1.564,5.362,5.362,0,0,1-1.023-2.083,13.091,13.091,0,0,1-.295-3.082v-4.495a4.293,4.293,0,0,0-.523-2.492,2.312,2.312,0,0,0-1.931-.679h-2.092a2.852,2.852,0,0,0,.138-.748,3.993,3.993,0,0,0-.138-.794h9.5v8.606a8.148,8.148,0,0,0,.864,4.315,3.164,3.164,0,0,0,2.864,1.317q3.636,0,3.636-5.4Z" fill="#d9a149"/>
                  <path id="Tracé_241" data-name="Tracé 241" d="M2385.568,259.483h4.954v23.64a17.8,17.8,0,0,1-.136,2.336,10.039,10.039,0,0,1-.409,1.838,5.474,5.474,0,0,1-.75,1.475,7.483,7.483,0,0,1-1.159,1.247,8.909,8.909,0,0,1-3.205,1.906,12.1,12.1,0,0,1-3.976.635,11.76,11.76,0,0,1-3.295-.443,8.55,8.55,0,0,1-2.637-1.247,6,6,0,0,1-1.727-1.867,4.594,4.594,0,0,1-.614-2.333,3.448,3.448,0,0,1,.932-2.447,3.256,3.256,0,0,1,4.5-.182,2.56,2.56,0,0,1,.886,1.949,3.324,3.324,0,0,1-.045.544,2.467,2.467,0,0,1-.136.5l-.182.5a5.354,5.354,0,0,0-.205.657,2.951,2.951,0,0,0-.068.657q0,2.177,2.71,2.176a4.073,4.073,0,0,0,3.523-1.426q1.039-1.425,1.039-4.819l.045-6.333a8.243,8.243,0,0,1-5.863,2.081,8.625,8.625,0,0,1-3.226-.565,4.936,4.936,0,0,1-2.228-1.7,3.977,3.977,0,0,1-.841-1.742,13.794,13.794,0,0,1-.2-2.692V264.19a4.126,4.126,0,0,0-.546-2.487,2.323,2.323,0,0,0-1.908-.679h-2.136a1.268,1.268,0,0,0,0-1.541h9.453v15.5a3.92,3.92,0,0,0,.858,2.718,3.173,3.173,0,0,0,2.485.952,3.817,3.817,0,0,0,3.049-1.224,5.087,5.087,0,0,0,1.062-3.444Z" fill="#d9a149"/>
                </g>
              </g>
            </g>
            <path id="Tracé_242" data-name="Tracé 242" d="M2427.028,261.524c-.009-.132-.013-.265-.013-.4a4.837,4.837,0,0,1,.313-1.753h-9.62a2.491,2.491,0,0,1,.181.77,1.914,1.914,0,0,1-.181.77h.772a2.747,2.747,0,0,1,2.251.975,4.226,4.226,0,0,1,.795,2.741,17.494,17.494,0,0,1-1.136,4.848l-4.818,14.544-6.546-19.165a7.762,7.762,0,0,1-.545-2.265q0-1.677,2.273-1.678h.955a1.88,1.88,0,0,1-.182-.77,2.436,2.436,0,0,1,.182-.77h-12.317a1.93,1.93,0,0,1,0,1.54,10.944,10.944,0,0,1,1.7.273,2.674,2.674,0,0,1,1.2.657,4.326,4.326,0,0,1,.887,1.291q.386.814.84,2.084l8.363,24.514a11.172,11.172,0,0,1,1.455-.137,13.337,13.337,0,0,1,1.454.137l6.636-19.757q.454-1.4.818-2.378t.659-1.653a9.231,9.231,0,0,1,.636-1.225q.342-.543.75-1.177a6.968,6.968,0,0,1,1.863-1.813A4.013,4.013,0,0,1,2427.028,261.524Z" fill="#d9a149"/>
          </g>
        </g>
        <g id="Groupe_281" data-name="Groupe 281">
          <g id="Groupe_280" data-name="Groupe 280">
            <path id="Tracé_243" data-name="Tracé 243" d="M2388.6,219.939c-1.142.235-1.535-.575-.576-1.235,6.5-4.479,17.553-7.9,25.71-4.476,12.236,5.141,14.127,17.1,12.3,25.7,0,0-5.063-15.346-19.275-19.8,0,0,16.411,6.254,19.213,28.224,0,0-14.819,2.377-22.006-17.013C2400.068,220.825,2393.428,218.944,2388.6,219.939Z" fill="#d9a149"/>
          </g>
        </g>
      </g>
    </g>
  </g>
</svg>
