<svg xmlns="http://www.w3.org/2000/svg" width="37.271" height="37.27" viewBox="0 0 37.271 37.27">
  <g id="Groupe_331" data-name="Groupe 331" transform="translate(-2851.329 -436.819)">
    <circle id="Ellipse_12" data-name="Ellipse 12" cx="17.764" cy="17.764" r="17.764" transform="translate(2852.2 437.69)" fill="#fff" stroke="#333" stroke-miterlimit="10" stroke-width="1.742"/>
    <g id="Groupe_330" data-name="Groupe 330">
      <path id="Tracé_340" data-name="Tracé 340" d="M2868.338,459.21a7.676,7.676,0,0,1,.346-2.408,6.2,6.2,0,0,1,1.311-1.964l1.683-1.731a3.881,3.881,0,0,0,1.077-2.614,2.981,2.981,0,0,0-.706-2.107,2.664,2.664,0,0,0-2.054-.762,3.106,3.106,0,0,0-2.107.691,2.348,2.348,0,0,0-.8,1.865h-2.374a4.315,4.315,0,0,1,1.483-3.359,5.537,5.537,0,0,1,3.794-1.279,5.237,5.237,0,0,1,3.781,1.3,4.718,4.718,0,0,1,1.355,3.571,6.455,6.455,0,0,1-2.08,4.423l-1.4,1.385a4.324,4.324,0,0,0-.936,2.987Zm-.1,4.082a1.413,1.413,0,0,1,.354-.98,1.332,1.332,0,0,1,1.045-.4,1.36,1.36,0,0,1,1.055.4,1.407,1.407,0,0,1,.358.98,1.356,1.356,0,0,1-.358.964,1.379,1.379,0,0,1-1.055.383,1.273,1.273,0,0,1-1.4-1.347Z" fill="#333"/>
    </g>
  </g>
</svg>
