<?xml version="1.0" encoding="utf-8"?>
<svg width="40" height="37" viewBox="0 0 40 37" fill="none" xmlns="http://www.w3.org/2000/svg">
<path d="M8.63596 30.0015C8.88934 30.2404 9.14998 30.4793 9.41785 30.7037L9.91739 30.1101C9.664 29.8929 9.41061 29.6684 9.17171 29.4368L8.63596 30.0015Z" fill="#1F1F1D"/>
<path d="M6.98892 26.8446L6.3446 27.279C6.8731 28.0681 7.47399 28.8138 8.1328 29.5016L8.69025 28.9658C8.06764 28.3142 7.4957 27.5975 6.98892 26.8446Z" fill="#1F1F1D"/>
<path d="M6.12475 25.3967C4.9664 23.1814 4.35104 20.6837 4.35104 18.1715C4.35104 16.2023 4.73473 14.3273 5.40078 12.597C8.97717 10.816 14.197 9.68664 20.0032 9.68664C23.0294 9.68664 26.0266 10.0124 28.7125 10.6061L26.8664 11.6993L27.127 12.1409L29.755 10.5844L28.0102 8.07221L27.5904 8.36179L28.7994 10.1065C26.0773 9.50566 23.0511 9.17263 19.9959 9.17263C14.3707 9.17263 9.28848 10.2369 5.64693 11.9382C8.05773 6.4288 13.5526 2.56282 19.9453 2.56282C22.1968 2.56282 24.3542 3.03341 26.3741 3.95284L23.2031 5.04604L23.4565 5.77723L27.8437 4.26414L26.0193 0L25.3098 0.304053L26.5406 3.1782C24.4628 2.25876 22.2475 1.79542 19.9453 1.79542C12.9155 1.79542 6.91388 6.24781 4.59719 12.4739C1.73028 14.0449 0 16.0648 0 18.2656C0 19.7642 0.803603 21.2484 2.33117 22.5515L2.66419 22.1606C1.23798 20.9371 0.51401 19.6267 0.51401 18.2584C0.51401 16.3399 1.94747 14.5662 4.37276 13.14C3.85875 14.7254 3.58364 16.4123 3.58364 18.157C3.58364 20.7995 4.22795 23.4203 5.44422 25.7442L5.78448 25.5632L5.44422 25.7442C5.61073 26.0555 5.77724 26.3596 5.96547 26.6636L6.62429 26.2655C6.44329 25.9831 6.27678 25.6935 6.12475 25.3967Z" fill="#1F1F1D"/>
<path d="M37.2778 13.6608L36.9665 14.059C38.6172 15.3404 39.4932 16.7956 39.4932 18.2652C39.4932 20.2344 37.9729 22.0516 35.4317 23.5067C36.0109 21.8344 36.3294 20.0389 36.3294 18.1711C36.3294 15.3042 35.5765 12.4807 34.1503 10.0048C33.8173 9.43282 33.4481 8.86813 33.0499 8.3324L32.4345 8.79575C32.8182 9.30252 33.173 9.83824 33.4843 10.3885L33.8173 10.193L33.4843 10.3885C34.8381 12.7413 35.562 15.4345 35.562 18.1711C35.562 20.2561 35.1421 22.2398 34.4037 24.0569C30.8345 25.78 25.7089 26.8587 20.0113 26.8587C17.1878 26.8587 14.4729 26.5908 11.9318 26.0696L13.7562 24.9474L13.4883 24.513L10.882 26.113L12.663 28.5962L13.0757 28.2994L11.8304 26.5763C14.4005 27.0976 17.1371 27.3727 19.9968 27.3727C25.4917 27.3727 30.4726 26.3592 34.0924 24.723C31.6092 30.0586 26.2156 33.7798 19.9461 33.7798C17.8973 33.7798 15.9136 33.3889 14.0386 32.6215L17.1661 31.4197L16.891 30.6957L12.5617 32.3608L14.5381 36.5598L15.2403 36.234L13.9082 33.4033C15.8267 34.1707 17.8538 34.5544 19.9533 34.5544C26.86 34.5544 32.7748 30.2541 35.1783 24.1945C38.1828 22.6018 40 20.5385 40 18.2797C40.0072 16.6363 39.0588 15.0436 37.2778 13.6608Z" fill="#1F1F1D"/>
<path d="M30.9137 6.00361C30.3924 5.53304 29.8349 5.09866 29.263 4.69324L28.8214 5.33033C29.3716 5.71403 29.9001 6.13393 30.3996 6.57555L30.9137 6.00361Z" fill="#1F1F1D"/>
<path d="M32.1228 8.39875L32.7237 7.9137C32.282 7.37073 31.8042 6.84224 31.3047 6.35718L30.769 6.91462C31.2468 7.3852 31.7029 7.88473 32.1228 8.39875Z" fill="#1F1F1D"/>
<path d="M15.5066 22.3502C15.1373 22.4153 14.8043 22.3502 14.5147 22.1619C14.2251 21.9737 14.0514 21.7275 14.0007 21.4162L11.6189 21.8217C11.713 22.3936 11.9519 22.8859 12.3211 23.2841C12.6903 23.6895 13.1826 23.9646 13.8052 24.1239C14.4206 24.2831 15.0649 24.3049 15.731 24.189C16.8749 23.9936 17.7509 23.5664 18.359 22.9004C18.9671 22.2343 19.1915 21.4452 19.0395 20.533C18.9381 19.9466 18.6992 19.476 18.3228 19.1285C17.9463 18.781 17.4685 18.5566 16.8966 18.448C17.3671 18.115 17.7074 17.7313 17.9101 17.2969C18.1128 16.8625 18.178 16.4209 18.1056 15.9865C17.9536 15.0815 17.5047 14.4227 16.7663 14.0101C16.0278 13.5974 15.0939 13.4961 13.9573 13.6843C13.3202 13.7929 12.7555 14.0101 12.2704 14.3359C11.7781 14.6616 11.4234 15.0598 11.1917 15.5304C10.96 16.001 10.8949 16.5077 10.989 17.0435L13.3564 16.6453C13.3129 16.3702 13.3853 16.1241 13.588 15.9069C13.7907 15.6824 14.0442 15.5449 14.3555 15.4942C14.7392 15.4291 15.0505 15.487 15.3039 15.6607C15.55 15.8417 15.702 16.0951 15.7599 16.4281C15.9047 17.2969 15.5355 17.8036 14.6523 17.9484L13.5374 18.1367L13.8342 19.8959L14.9853 19.7004C15.4414 19.6208 15.8106 19.6715 16.1074 19.8452C16.4043 20.019 16.5925 20.3593 16.6794 20.8733C16.7373 21.2353 16.6649 21.5538 16.455 21.8217C16.2378 22.1112 15.9265 22.285 15.5066 22.3502Z" fill="#1F1F1D"/>
<path d="M26.9478 14.0522C26.4193 13.3716 25.7532 12.8938 24.9641 12.6042C24.175 12.3147 23.3279 12.2495 22.423 12.4015L19.1362 12.959L20.8665 23.1742L24.2256 22.6022C25.1089 22.4502 25.8763 22.1027 26.5206 21.5597C27.165 21.0168 27.6283 20.3435 27.8962 19.5399C28.164 18.729 28.222 17.8602 28.0627 16.9263L27.983 16.4558C27.8238 15.5291 27.4763 14.7255 26.9478 14.0522ZM25.3623 19.6919C25.0727 20.2566 24.5659 20.6041 23.8637 20.7199L23.0094 20.8647L21.9234 14.4431L22.7488 14.3056C23.4727 14.1825 24.0664 14.3418 24.5297 14.7761C24.9931 15.2105 25.3116 15.92 25.4781 16.9119L25.5505 17.3535C25.717 18.3453 25.6591 19.1199 25.3623 19.6919Z" fill="#1F1F1D"/>
</svg>
