<svg xmlns="http://www.w3.org/2000/svg" width="290" height="290" viewBox="0 0 290 290">
  <g id="lw-box" transform="translate(-1187.513 -352.753)">
    <rect id="Rectangle_75" data-name="Rectangle 75" width="290" height="290" transform="translate(1187.513 352.753)" fill="#881516"/>
    <g id="Groupe_261" data-name="Groupe 261">
      <g id="Groupe_260" data-name="Groupe 260">
        <path id="Tracé_208" data-name="Tracé 208" d="M1253.618,473.334v23.427h15.356v-1.907h-13.124v-21.52Z" fill="#fff"/>
        <rect id="Rectangle_76" data-name="Rectangle 76" width="2.229" height="23.427" transform="translate(1275.34 473.334)" fill="#fff"/>
        <path id="Tracé_209" data-name="Tracé 209" d="M1304.805,496.79l-.3-4.551h-.064a7.676,7.676,0,0,1-1.462,2.07,7.822,7.822,0,0,1-1.918,1.419,8.588,8.588,0,0,1-2.248.81,12.2,12.2,0,0,1-2.476.25,11.416,11.416,0,0,1-4.841-.965,10.016,10.016,0,0,1-3.463-2.574,10.816,10.816,0,0,1-2.065-3.726,14.725,14.725,0,0,1,0-8.909,10.986,10.986,0,0,1,2.065-3.743,9.917,9.917,0,0,1,3.463-2.589,11.385,11.385,0,0,1,4.841-.963,12.442,12.442,0,0,1,3.478.472,9.008,9.008,0,0,1,2.919,1.422,8.65,8.65,0,0,1,2.166,2.338,8.814,8.814,0,0,1,1.213,3.254h-2.231a4.895,4.895,0,0,0-.671-1.976,7,7,0,0,0-1.543-1.813,7.935,7.935,0,0,0-2.314-1.346,8.286,8.286,0,0,0-3.017-.52,8.723,8.723,0,0,0-4,.851,7.876,7.876,0,0,0-2.741,2.26,9.58,9.58,0,0,0-1.574,3.177,13.172,13.172,0,0,0,0,7.246,9.521,9.521,0,0,0,1.574,3.19,7.873,7.873,0,0,0,2.741,2.263,8.761,8.761,0,0,0,4,.85,9.233,9.233,0,0,0,3.461-.615,7.033,7.033,0,0,0,4.15-4.344,9.552,9.552,0,0,0,.493-3.317h-7.974V484.88h9.941v11.91" fill="#fff"/>
        <path id="Tracé_210" data-name="Tracé 210" d="M1317.109,473.333l13.65,19.817h.066V473.333h2.232V496.76h-2.5l-13.65-19.817h-.064V496.76h-2.232V473.333" fill="#fff"/>
        <path id="Tracé_211" data-name="Tracé 211" d="M1357.86,473.333v1.9h-13.945V483.7h13.058v1.9h-13.058v9.248h13.931v1.907h-16.162V473.333" fill="#fff"/>
        <path id="Tracé_212" data-name="Tracé 212" d="M1403.4,473.332l-3.838,16.144h-.064l-4-16.144h-4.822l-4.068,15.946h-.067l-3.709-15.946h-5.152l6.2,23.429h5.218l3.9-15.949h.067l3.969,15.949h5.117l6.3-23.429Z" fill="#fff"/>
        <rect id="Rectangle_77" data-name="Rectangle 77" width="0.964" height="34.544" transform="translate(1367.285 467.782)" fill="#fff"/>
        <g id="Groupe_259" data-name="Groupe 259">
          <path id="Tracé_213" data-name="Tracé 213" d="M1288.179,518.3h1.563v-3.233h4.381V513.9h-4.381v-1.879h4.631v-1.167h-6.194Zm13.492,0h1.563v-2.941h2.661c1.147,0,1.293.75,1.293,1.814a2.525,2.525,0,0,0,.188,1.127h1.688a3.125,3.125,0,0,1-.313-1.6c0-1.053-.2-1.825-1.083-2.013v-.019a1.758,1.758,0,0,0,1.229-1.8c0-1.158-.615-2.022-2.512-2.022h-4.714Zm1.563-4.108v-2.171h2.7c.824,0,1.335.3,1.335,1.074,0,.836-.47,1.1-1.335,1.1Zm15.36,1.095,1.291-3.141,1.273,3.141Zm-2.931,3.013h1.689l.773-1.846h3.5l.783,1.846h1.741l-3.316-7.446h-1.855Zm15.5,0h1.5v-5.591h.021l4.465,5.591h1.761v-7.446h-1.5v5.591h-.021l-4.434-5.591h-1.793Zm23.43-4.694c-.167-1.606-1.5-2.961-4.067-2.961-2.931,0-4.161,1.835-4.161,3.931a3.706,3.706,0,0,0,3.973,3.933c3.066,0,4.036-1.574,4.255-3.055h-1.69a2.142,2.142,0,0,1-2.294,1.888,2.506,2.506,0,0,1-2.618-2.63c0-1.94,1.074-2.9,2.514-2.9a2.168,2.168,0,0,1,2.4,1.794Zm7.61,4.694h6.549v-1.167h-4.986v-2.066h4.7V513.9h-4.7v-1.879h4.9v-1.167h-6.466Z" fill="#fff"/>
        </g>
      </g>
    </g>
  </g>
</svg>
