<svg xmlns="http://www.w3.org/2000/svg" width="192.178" height="62.768" viewBox="0 0 192.178 62.768">
  <g id="lw-logo" transform="translate(-1236.424 -221.567)">
    <g id="Groupe_294" data-name="Groupe 294">
      <g id="Groupe_293" data-name="Groupe 293">
        <g id="Groupe_292" data-name="Groupe 292">
          <path id="Tracé_261" data-name="Tracé 261" d="M1236.424,228.437v28.988h19.06v-2.36h-16.289V228.437Z" fill="#881516"/>
          <rect id="Rectangle_78" data-name="Rectangle 78" width="2.767" height="28.988" transform="translate(1263.384 228.437)" fill="#881516"/>
          <path id="Tracé_262" data-name="Tracé 262" d="M1299.955,257.461l-.368-5.631h-.079a9.528,9.528,0,0,1-1.814,2.561,9.725,9.725,0,0,1-2.382,1.755,10.662,10.662,0,0,1-2.789,1,15.138,15.138,0,0,1-3.074.31,14.2,14.2,0,0,1-6.008-1.2,12.414,12.414,0,0,1-4.3-3.184,13.372,13.372,0,0,1-2.564-4.611,18.175,18.175,0,0,1,0-11.024,13.574,13.574,0,0,1,2.564-4.631,12.289,12.289,0,0,1,4.3-3.2,14.169,14.169,0,0,1,6.008-1.191,15.467,15.467,0,0,1,4.317.584,11.194,11.194,0,0,1,3.623,1.759,10.763,10.763,0,0,1,2.689,2.893,10.907,10.907,0,0,1,1.505,4.027h-2.769a6.058,6.058,0,0,0-.833-2.445,8.643,8.643,0,0,0-1.915-2.244,9.825,9.825,0,0,0-2.872-1.665,10.3,10.3,0,0,0-3.745-.643,10.85,10.85,0,0,0-4.969,1.053,9.779,9.779,0,0,0-3.4,2.8,11.815,11.815,0,0,0-1.952,3.931,16.241,16.241,0,0,0,0,8.966,11.767,11.767,0,0,0,1.952,3.948,9.79,9.79,0,0,0,3.4,2.8,10.915,10.915,0,0,0,4.969,1.051,11.5,11.5,0,0,0,4.3-.761,8.714,8.714,0,0,0,5.15-5.375,11.767,11.767,0,0,0,.612-4.1h-9.9v-2.266h12.339v14.737" fill="#881516"/>
          <path id="Tracé_263" data-name="Tracé 263" d="M1315.227,228.436l16.942,24.521h.081V228.436h2.77v28.988h-3.1L1314.981,232.9h-.08v24.521h-2.771V228.436Z" fill="#881516"/>
          <path id="Tracé_264" data-name="Tracé 264" d="M1365.807,228.436v2.353H1348.5V241.27h16.208v2.351H1348.5v11.444h17.291v2.36h-20.06V228.436Z" fill="#881516"/>
          <path id="Tracé_265" data-name="Tracé 265" d="M1422.329,228.435l-4.764,19.976h-.08l-4.969-19.976h-5.985l-5.048,19.731h-.083l-4.6-19.731h-6.4l7.7,28.99h6.477l4.845-19.735h.084l4.926,19.735h6.351l7.819-28.99Z" fill="#881516"/>
          <rect id="Rectangle_79" data-name="Rectangle 79" width="1.197" height="42.744" transform="translate(1377.505 221.567)" fill="#881516"/>
          <g id="Groupe_291" data-name="Groupe 291">
            <path id="Tracé_266" data-name="Tracé 266" d="M1279.321,284.076h1.939v-4h5.438v-1.444h-5.438v-2.325h5.748v-1.444h-7.687Zm16.745,0h1.94v-3.639h3.3c1.424,0,1.6.929,1.6,2.246a3.1,3.1,0,0,0,.233,1.393h2.095a3.851,3.851,0,0,1-.388-1.974c0-1.3-.246-2.258-1.344-2.491v-.024a2.175,2.175,0,0,0,1.525-2.221c0-1.433-.764-2.5-3.118-2.5h-5.851Zm1.94-5.083v-2.686h3.354c1.023,0,1.658.374,1.658,1.33,0,1.034-.583,1.356-1.658,1.356Zm19.064,1.356,1.6-3.887,1.58,3.887Zm-3.637,3.727h2.1l.959-2.284h4.347l.971,2.284h2.162l-4.117-9.213h-2.3Zm19.243,0h1.862v-6.917h.026l5.543,6.917h2.186v-9.213h-1.863v6.918h-.026l-5.5-6.918h-2.225Zm29.081-5.807c-.207-1.988-1.865-3.664-5.049-3.664-3.638,0-5.164,2.27-5.164,4.864a4.592,4.592,0,0,0,4.931,4.866c3.806,0,5.01-1.947,5.282-3.78h-2.1a2.656,2.656,0,0,1-2.848,2.336,3.1,3.1,0,0,1-3.249-3.254c0-2.4,1.333-3.588,3.12-3.588a2.689,2.689,0,0,1,2.977,2.22Zm9.445,5.807h8.128v-1.443h-6.188v-2.557h5.839v-1.444h-5.839v-2.325h6.085v-1.444H1371.2Z" fill="#881516"/>
          </g>
        </g>
      </g>
    </g>
    <g id="Groupe_295" data-name="Groupe 295">
      <rect id="Rectangle_80" data-name="Rectangle 80" width="12.998" height="13" transform="translate(1326.014 246.451)" fill="none"/>
    </g>
  </g>
</svg>
