<svg xmlns="http://www.w3.org/2000/svg" width="290" height="290" viewBox="0 0 290 290">
  <g id="mcl-box" transform="translate(-823.488 -352.753)">
    <rect id="Rectangle_70" data-name="Rectangle 70" width="290" height="290" transform="translate(823.488 352.753)" fill="#333"/>
    <g id="Groupe_229" data-name="Groupe 229">
      <g id="Groupe_222" data-name="Groupe 222">
        <path id="Tracé_128" data-name="Tracé 128" d="M948.285,500.3c6.347,0,14.929-4.917,14.929-10.728,0-1.966-.983-3.4-2.95-3.4-3.933,0-8.85,4.738-10.1,6.973l.268.358c2.325-3.4,6.526-6.794,9.656-6.794a2.417,2.417,0,0,1,2.592,2.5c0,4.291-9.3,10.549-14.393,10.549-2.056,0-4.2-.805-4.2-3.129,0-3.4,5.811-10.639,8.672-13.589,10.728-.089,25.836-7.33,25.836-12.783,0-2.325-2.5-2.772-4.291-2.772-8.94,0-19.936,8.672-24.495,14.84-3.4-.179-6.079-2.5-6.079-5.453,0-5.185,4.469-8.314,9.654-8.314a15.455,15.455,0,0,1,7.242,1.7l.268-.537a15.175,15.175,0,0,0-7.42-1.7c-5.453,0-11.353,2.682-11.353,8.76,0,4.2,3.665,5.722,7.062,6.08-2.772,2.95-6.169,7.777-6.169,12.158C943.01,498.419,944.888,500.3,948.285,500.3Zm26.009-32.278c1.519,0,3.754.268,3.754,2.234,0,4.56-12.6,11.622-25.031,12.248C957.576,477.494,967.052,468.018,974.294,468.018Z" fill="#fff"/>
        <path id="Tracé_129" data-name="Tracé 129" d="M1074.248,493.007l-1.282-1.709a1.458,1.458,0,0,0,1.075-1.425c0-.958-.8-1.372-1.839-1.372h-2.1v.233h.285c.207,0,.388.078.388.336v3.962c0,.26-.181.337-.388.337h-.285v.233h2.046v-.233h-.285c-.208,0-.389-.077-.389-.337V491.4h.829c1.476,2.2,1.619,2.2,1.8,2.2h.738v-.1C1074.7,493.473,1074.546,493.408,1074.248,493.007Zm-2.046-1.839h-.725v-2.434h.674c.595,0,1.113.259,1.113,1.165C1073.264,490.728,1072.9,491.168,1072.2,491.168Z" fill="#fff"/>
        <path id="Tracé_130" data-name="Tracé 130" d="M1072.28,486.377a4.736,4.736,0,0,0-4.6,5.938c-4.735,4.363-9.14,7.439-10.691,7.439a.8.8,0,0,1-.894-.894c0-.716.492-1.3,2.593-3.621l8.045-8.984h-2.86l-5.319,5.9c-5.275,5.811-8.538,7.6-10.549,7.6-1.252,0-2.012-.447-2.012-1.163,0-.67.4-1.475,1.744-2.994l8.269-9.342h-2.95l-5.016,5.908c-2.244,2.29-8.969,7.591-11.525,7.591-.582,0-1.073-.269-1.073-.939,0-.4.268-.849,1.073-1.743,3.128-3.442,7.33-8.091,10.191-10.818h-3.129l-2.325,2.414h-.089a2.879,2.879,0,0,0,.179-1.072c0-1.163-1.252-1.878-2.771-1.878-2.859,0-9.557,3.761-12.253,8.094-4.435,3.5-8.442,5.942-11.845,5.942-.894,0-1.788-.179-1.788-1.073,0-.626.4-1.609,3.039-4.47,3.308,0,11.086-2.324,11.086-6.481a1.924,1.924,0,0,0-2.012-2.012c-2.964,0-7.486,2.94-10.456,6.323-7.23,6.468-9.988,7.713-11.28,7.713-.447,0-.983-.179-.983-.626,0-.537.939-1.475,2.771-3.487l8.314-8.953h2.905l.358-.536h-2.772l3.653-3.655h-2.949l-3.654,3.655h-2.95l-.447.536h2.905l-5.319,5.755c-2.48,2.415-8.787,7.311-11.244,7.311-.578,0-1.066-.266-1.072-.928.006-.4.275-.846,1.072-1.731,3.129-3.442,7.33-8.09,10.191-10.817h-.024l.024-.024h-3.129l-2.324,2.414h-.082a2.884,2.884,0,0,0,.171-1.049h0V487.6c0-1.163-1.252-1.878-2.771-1.878-2.823,0-9.4,3.669-12.155,7.935-4.835,4.293-7.318,6.1-8.629,6.1a.638.638,0,0,1-.715-.626c0-1.52,7.509-6.884,7.509-10.549a2.374,2.374,0,0,0-2.413-2.593c-2.325,0-6.079,3.04-8.046,4.56v-.09l4.157-4.693c9.029-3.8,19.891-11.041,19.891-15.645a1.652,1.652,0,0,0-1.52-1.832c-1.2,0-2.87.8-5.153,2.507a7.682,7.682,0,0,1-.436-2.559,5.934,5.934,0,0,1,5.869-5.837,5.052,5.052,0,0,1,5.163,5.035,3.6,3.6,0,0,1-2.6,3.784c-.06.018-.108.033-.151.048a1.724,1.724,0,0,1-.068.168l-.007.02,0,0c0,.008-.006.017-.01.025a1.13,1.13,0,0,1-.066.112.138.138,0,0,0,.048.009,5.062,5.062,0,0,0-1.059-10.038,8,8,0,0,0-8.081,8.306,7.7,7.7,0,0,0,.219,1.844c-3.795,3.068-9.062,8.3-16.285,16.106l-10.817,11.666h3.128c6.079-7.6,12.784-12.962,15.734-12.962a1.275,1.275,0,0,1,1.43,1.251c0,1.7-7.509,7.107-7.509,10.46,0,1.43.76,2.056,1.788,2.056,1.52,0,4.358-2.139,7.92-5.324a5.938,5.938,0,0,0-.545,2.374v.023a2.657,2.657,0,0,0,2.86,2.95c1.833,0,4.112-1.251,6.66-3.665h.08a4.154,4.154,0,0,0-.393,1.854v.023a1.836,1.836,0,0,0,1.967,1.788c2.286,0,6.151-2.647,9.088-5.079a5.6,5.6,0,0,0-1.285,3.179c0,1.028.537,1.877,1.61,1.877,1.813,0,4.869-1.934,10.036-6.407a7.96,7.96,0,0,0-1.576,4.172c0,1.7,1.43,2.235,2.771,2.235,3.816,0,8-2.589,11.648-5.452a6.021,6.021,0,0,0-.6,2.5,2.659,2.659,0,0,0,2.861,2.95c1.833,0,4.112-1.252,6.66-3.665h.089a4.147,4.147,0,0,0-.4,1.877,1.836,1.836,0,0,0,1.967,1.788c2.384,0,6.488-2.88,9.463-5.393a5.5,5.5,0,0,0-1.147,3.024,2.764,2.764,0,0,0,2.861,2.369c2.5,0,4.827-1.52,7.957-4.291l.089.089a3.329,3.329,0,0,0-.537,1.967,1.886,1.886,0,0,0,1.833,2.235c2.064,0,5.815-3.025,10.99-7.454a4.751,4.751,0,1,0,4.432-6.459Zm-47.479-.123a.882.882,0,0,1,.939.895c0,2.413-4.783,6.525-9.566,6.525C1020.778,488.489,1023.1,486.254,1024.8,486.254Zm-36.989-13.477a6.62,6.62,0,0,0,1.624,2.28c.047-.043.1-.084.143-.128q.219-.2.431-.414c.143-.141.283-.284.422-.428.071-.074.14-.15.21-.225a7.731,7.731,0,0,1-1.635-2.186c2-1.786,3.569-2.854,4.513-2.854.983,0,1.252.536,1.252,1.43,0,4.694-13.321,12.516-18.327,14.617l-.07-.07C980.662,480.119,984.663,475.758,987.812,472.777Zm-2.518,22.351c7.42-7.867,8.94-8.85,10.907-8.85a1.676,1.676,0,0,1,1.742,1.55c-.019,2.338-8.541,11.926-12.783,11.926-1.116,0-1.785-.58-1.787-1.382C983.376,497.876,983.529,496.982,985.294,495.128Zm42.731,4.626c-1.118,0-1.788-.582-1.788-1.386,0-.492.134-1.386,1.922-3.263,7.42-7.867,8.94-8.851,10.906-8.851a1.675,1.675,0,0,1,1.744,1.565C1040.809,490.143,1032.271,499.754,1028.025,499.754Zm44.255-4.184a4.441,4.441,0,1,1,4.441-4.441A4.448,4.448,0,0,1,1072.28,495.57Z" fill="#fff"/>
        <path id="Tracé_131" data-name="Tracé 131" d="M1000.267,479.592a20.215,20.215,0,0,1-6.391,3.683l.179.179a16.771,16.771,0,0,0,6.616-2.861,3.1,3.1,0,0,0,1.609,2.861l.179-.179a2.1,2.1,0,0,1-.716-1.609c0-1.162.133-1,.759-2.074Z" fill="#fff"/>
        <path id="Tracé_132" data-name="Tracé 132" d="M945.075,523.258l-.021-17.56-2.007,0,.024,19.3,12.714-.016,0-1.739Z" fill="#fff"/>
        <path id="Tracé_133" data-name="Tracé 133" d="M967.413,505.673l-2.161,0-7.734,19.309,2.129,0,2.3-5.946,8.572-.01,2.337,5.939,2.154,0-7.569-19.231ZM962.574,517.3l3.679-9.45,3.572,9.441Z" fill="#fff"/>
        <path id="Tracé_134" data-name="Tracé 134" d="M1009.175,505.622l.015,11.925a9.22,9.22,0,0,1-.367,2.8,4.673,4.673,0,0,1-1.072,1.865,4.179,4.179,0,0,1-1.728,1.05,7.768,7.768,0,0,1-2.354.333h-.011a7.607,7.607,0,0,1-2.316-.328,4.163,4.163,0,0,1-1.73-1.045,4.657,4.657,0,0,1-1.078-1.863,9.241,9.241,0,0,1-.374-2.795l-.014-11.925-2.007,0,.015,12.327a9.442,9.442,0,0,0,.423,2.824,6.251,6.251,0,0,0,1.334,2.348,6.349,6.349,0,0,0,2.338,1.587,9.049,9.049,0,0,0,3.407.579h.015a9.16,9.16,0,0,0,3.448-.587,6.346,6.346,0,0,0,2.334-1.593,6.239,6.239,0,0,0,1.328-2.351,9.426,9.426,0,0,0,.416-2.826l-.015-12.327Z" fill="#fff"/>
        <rect id="Rectangle_71" data-name="Rectangle 71" width="2.007" height="19.299" transform="translate(1014.797 505.615) rotate(-0.072)" fill="#fff"/>
        <path id="Tracé_135" data-name="Tracé 135" d="M1035.524,508.234a8.3,8.3,0,0,0-2.845-2.217,9.056,9.056,0,0,0-3.962-.821h-.015a9.157,9.157,0,0,0-3.987.831,8.249,8.249,0,0,0-2.854,2.224,9.562,9.562,0,0,0-1.7,3.2,13.041,13.041,0,0,0,.009,7.6,9.438,9.438,0,0,0,1.707,3.188,8.326,8.326,0,0,0,2.859,2.2,9.14,9.14,0,0,0,3.975.821h.015a9.078,9.078,0,0,0,3.975-.831,8.362,8.362,0,0,0,2.839-2.21,9.416,9.416,0,0,0,1.7-3.192,13.041,13.041,0,0,0-.009-7.6A9.586,9.586,0,0,0,1035.524,508.234Zm-.137,10.046a8.165,8.165,0,0,1-1.266,2.675,6.452,6.452,0,0,1-2.189,1.889,6.746,6.746,0,0,1-3.207.716h-.012a6.832,6.832,0,0,1-3.212-.708,6.4,6.4,0,0,1-2.2-1.884,8.163,8.163,0,0,1-1.274-2.672h0a11.5,11.5,0,0,1-.008-6.094,8.206,8.206,0,0,1,1.268-2.662,6.41,6.41,0,0,1,2.2-1.889,6.842,6.842,0,0,1,3.222-.716h.011a6.742,6.742,0,0,1,3.2.708,6.452,6.452,0,0,1,2.193,1.884,8.226,8.226,0,0,1,1.273,2.659,11.459,11.459,0,0,1,.007,6.094Z" fill="#fff"/>
        <path id="Tracé_136" data-name="Tracé 136" d="M1041.76,523.141l-.021-17.56-2.007,0,.024,19.3,12.714-.016,0-1.739Z" fill="#fff"/>
        <path id="Tracé_137" data-name="Tracé 137" d="M1056.039,523.124l-.009-7.363,10.654-.013,0-1.739-10.654.013-.008-6.72,11.377-.014,0-1.739-13.383.017.024,19.3,13.517-.017,0-1.739Z" fill="#fff"/>
        <path id="Tracé_138" data-name="Tracé 138" d="M984.721,515.008l0,1.738,6.506-.008a8.314,8.314,0,0,1-.394,2.689,6.055,6.055,0,0,1-1.263,2.19,5.822,5.822,0,0,1-2.067,1.438,7.174,7.174,0,0,1-2.787.518H984.7a6.819,6.819,0,0,1-3.209-.708,6.4,6.4,0,0,1-2.206-1.883,8.2,8.2,0,0,1-1.274-2.672,11.513,11.513,0,0,1-.007-6.094,8.2,8.2,0,0,1,1.267-2.662,6.4,6.4,0,0,1,2.2-1.889,6.829,6.829,0,0,1,3.221-.716h.011a6.388,6.388,0,0,1,4.279,1.551,5.725,5.725,0,0,1,1.24,1.513,4.216,4.216,0,0,1,.54,1.636l.008.084,2.015,0-.019-.108a7.781,7.781,0,0,0-1.006-2.789,7.238,7.238,0,0,0-4.206-3.221,9.956,9.956,0,0,0-2.853-.4H984.7a9.154,9.154,0,0,0-3.987.83,8.254,8.254,0,0,0-2.854,2.224,9.54,9.54,0,0,0-1.7,3.206,13.042,13.042,0,0,0,.009,7.6,9.413,9.413,0,0,0,1.707,3.188,8.321,8.321,0,0,0,2.859,2.2,9.144,9.144,0,0,0,3.973.82h.016a9.533,9.533,0,0,0,2.041-.218,7.025,7.025,0,0,0,1.858-.694,6.549,6.549,0,0,0,2.687-2.788l.233,3.317h1.492l-.012-9.9Z" fill="#fff"/>
        <path id="Tracé_139" data-name="Tracé 139" d="M1004.522,464.514c2.886,0,4.2-3.175,4.2-3.464,0-.1-.064-.16-.192-.16s-.193.256-.385.641a3.694,3.694,0,0,1-3.143,2.277c-2.052,0-2.565-1.956-2.565-3.624a5.7,5.7,0,0,1,5.612-5.355c2.79,0,3.431,2.309,3.431,4.521,0,7.248-7.44,16.708-15.073,16.708a8.834,8.834,0,0,1-2.729-.429l-.23.271q-.2.23-.393.456c-.119.138-.24.274-.362.411a8.5,8.5,0,0,0,2.047.253c7.7,0,16.323-8.145,18.151-14.879h.064a26.335,26.335,0,0,1-.513,4.489c-1.732,8.691-4.233,7.793-4.233,9.941a.632.632,0,0,0,.673.642c2.053,0,.45-4.907,10.487-15.1a13.14,13.14,0,0,0,1.475,1.314c-2.373,2.534-4.682,6.158-4.682,9.493,0,2.565.994,4.1,3.335,4.1,1.988,0,4.554-1.507,6.67-3.88a6.828,6.828,0,0,0,.588-.719.1.1,0,0,1,.052-.018,8.041,8.041,0,0,0-.16,1.507c0,1.443.385,2.918,2.021,2.918,1.218,0,3.014-1.828,3.976-2.79,0,.16-.032.353-.032.577,0,1.764.545,2.213,1.411,2.213s2.085-.994,3.559-2.533c.6-.648,1.379-1.524,1.659-1.872.059-.058.145-.159.3-.341,1.539-1.732,2.341-2.566,2.726-2.95l.064.064c-1.09,1.635-3.047,3.816-3.047,5.964a1.5,1.5,0,0,0,1.54,1.668c.9,0,2.213-.834,3.784-2.469,1-1.047,1.59-1.721,1.83-2.04l.061-.077c.77-.866,3.335-3.912,3.72-4.137l.064.064a9.714,9.714,0,0,0-.192,3.015c0,1.732-1.732,5.259-3.239,5.259-.385,0-.545-.192-.545-.481,0-.577.449-.321.449-.962,0-.288-.321-.513-.673-.513-.578,0-.8.353-.8.9a1.663,1.663,0,0,0,.513,1.09,1.942,1.942,0,0,0,1.443.353c1.8,0,3.3-1.026,5.034-2.982a14.585,14.585,0,0,0,1.3-1.566.408.408,0,0,1,.273-.166c.063,0,.1.064.1.192a8.292,8.292,0,0,0-.161,1.668c0,1.732.7,2.854,1.988,2.854a5.611,5.611,0,0,0,4.1-2.277,1.339,1.339,0,0,0,.417.032,4.408,4.408,0,0,0,3.175-1.379,7.593,7.593,0,0,0,.755-.852c.172-.206.529-.648,1.393-1.585,1.636-1.8,2.5-2.469,3.4-2.469a.454.454,0,0,1,.481.481c0,.994-4.522,6.862-5.131,8.049l2.148-.192c.962-1.508,6.767-8.338,8.306-8.338.289,0,.449.16.449.385,0,.866-3.463,3.527-3.463,6.093,0,1.154.448,2.052,1.411,2.052.737,0,1.859-.866,3.27-2.277a21.243,21.243,0,0,0,2.021-2.341c0-.064-.032-.16-.129-.16-.192,0-.064.1-1.7,1.828-1.315,1.411-2.662,2.565-3.4,2.565a.583.583,0,0,1-.514-.641c0-.513.706-1.668,2.149-3.624a4.814,4.814,0,0,0,1.187-2.758c0-.673-.353-1.507-1.155-1.507-1.635,0-5.323,4.49-6.574,5.676l-.064-.064c.706-.93,2.02-2.758,2.02-4.041,0-.962-.352-1.571-1.186-1.571-1.251,0-2.534,1.154-4.073,2.95-.33.382-.9,1.019-1.12,1.317-.072.077-.183.212-.387.447a4.13,4.13,0,0,1-2.982,1.571.748.748,0,0,1-.353-.064,6.608,6.608,0,0,0,1.892-4.008,1.956,1.956,0,0,0-1.924-2.213,8.169,8.169,0,0,0-5.259,2.533c-.542.52-1.241,1.228-1.609,1.659-.015.016-.032.037-.052.063-.061.073-.11.136-.144.186-.1.136-.259.326-.5.594a11.9,11.9,0,0,1-2.309,2.245l-.034-.034a2.836,2.836,0,0,0,.868-1.923c0-1.315-.673-2.02-.673-4.393a2.973,2.973,0,0,1,.128-.738c.577-.192,1.283-.384,1.283-.994,0-.288-.16-.481-.546-.481-.7,0-.994.93-1.058.962a32.885,32.885,0,0,0-2.79,3.015c-.609.761-1.035,1.194-1.25,1.466-.317.337-1.147,1.316-1.828,2-1.058,1.09-2.533,2.373-3.559,2.373-.289,0-.61-.128-.61-.673,0-.674.525-1.364,4.373-7.714h-1.935c-.481.673-1.925,2.134-2.758,3.1-.465.536-.706.809-.833.96-.056.049-.153.174-.417.483-1.86,2.181-3.592,3.848-4.554,3.848-.417,0-.545-.192-.545-.449,0-1.122,3.72-6.848,4.618-7.938l-1.54.082c-.673.031-.609.448-1.763,2.276l-.064-.064a3.074,3.074,0,0,0,.1-.866c0-.866-.417-1.571-1.379-1.571-2.213,0-4.81,1.636-6.542,3.752-.19.233-.311.365-.389.453-.207.164-.754.875-1.79,1.856-.963.9-2.759,2.213-4.362,2.213s-2.437-1.219-2.437-3.56a14.643,14.643,0,0,1,3.335-8.819,12.224,12.224,0,0,0,6.286,1.988c3.944,0,8.338-1.956,8.338-6.509,0-3.175-2.63-4.458-5.452-4.458-4.586,0-8.53,2.918-11.641,6.125-2.566-3.592-1.6-6.638-2.341-6.638a.405.405,0,0,0-.353.449,13.166,13.166,0,0,0,2.437,6.51c-3.11,3.4-5.387,7.5-7.664,11.512l-.064-.064a29.709,29.709,0,0,0,2.565-11.7c0-3.175-1.09-6.574-5.259-6.574-3.175,0-7.248,3.111-7.248,6.35A3.411,3.411,0,0,0,1004.522,464.514Zm55.764,3.784c.8,0,1.122.673,1.122,1.443,0,2.918-2.982,6.7-5.515,6.7-.449,0-.834-.289-.834-1.186C1055.059,472.563,1058.041,468.3,1060.286,468.3Zm-26.743,0c.673,0,.994.513.994,1.154,0,2.373-4.009,6.991-5.868,6.991-.514,0-.738-.417-.738-1.026C1027.931,473.108,1030.945,468.3,1033.543,468.3Zm-1.6-12.764c1.764,0,3.335,1.027,3.335,2.822,0,4.137-4.714,6.735-8.338,6.735a9.085,9.085,0,0,1-5.388-1.571c.674-.9,2.726-2.726,3.721-2.726,1.09,0,1.186.513,2.212.513a1.132,1.132,0,0,0,1.155-1.059,1,1,0,0,0-1.09-.929c-1.764,0-5.2,2.629-6.446,3.88a11.376,11.376,0,0,1-1.444-1.315C1022.769,458.9,1027.548,455.534,1031.941,455.534Z" fill="#fff"/>
        <path id="Tracé_140" data-name="Tracé 140" d="M1045.393,465.764a1.2,1.2,0,0,0,1.122-1.218.753.753,0,0,0-.738-.834,1.2,1.2,0,0,0-1.122,1.219A.753.753,0,0,0,1045.393,465.764Z" fill="#fff"/>
      </g>
      <g id="Groupe_228" data-name="Groupe 228">
        <g id="Groupe_227" data-name="Groupe 227">
          <path id="Tracé_141" data-name="Tracé 141" d="M896.471,457.127c9.619,0,17.149,1.32,21.007,2.507a15.552,15.552,0,0,0,2.318,10.478,17.092,17.092,0,0,0,8.111,6.35,39.867,39.867,0,0,0,.979,16.275l.008.028.008.027.019.065v.005l0,.005c1.929,6.52,1.444,12.188-1.442,16.847a26.166,26.166,0,0,1-10.173,8.9,37.745,37.745,0,0,1-10.328,3.7,21.416,21.416,0,0,0-10.948,5.246,21.426,21.426,0,0,0-10.924-5.3,37.753,37.753,0,0,1-10.31-3.743,26.166,26.166,0,0,1-10.132-8.945c-2.864-4.672-3.323-10.342-1.361-16.863l.02-.065.008-.027.007-.028a39.777,39.777,0,0,0,1.062-16.27,17.1,17.1,0,0,0,8.14-6.313,15.556,15.556,0,0,0,2.366-10.467c3.9-1.18,11.545-2.382,21.292-2.407h.27m0-.64v0H896.2c-9.986.026-17.642,1.275-21.477,2.435l-.506.154.055.525a14.951,14.951,0,0,1-2.263,10.048,16.27,16.27,0,0,1-7.842,6.07l-.468.186.07.5a39.567,39.567,0,0,1-1.018,15.919l-.027.093-.007.027-.005.015-.019.065c-2.016,6.7-1.536,12.546,1.428,17.38a26.8,26.8,0,0,0,10.375,9.174,38.4,38.4,0,0,0,10.5,3.809,20.783,20.783,0,0,1,10.6,5.138l.432.4.434-.4a20.776,20.776,0,0,1,10.626-5.089,38.352,38.352,0,0,0,10.517-3.76,26.793,26.793,0,0,0,10.418-9.126c2.986-4.82,3.495-10.663,1.512-17.365l-.022-.073-.008-.027,0-.015-.026-.091a39.608,39.608,0,0,1-.939-15.926l.073-.5-.468-.187a16.271,16.271,0,0,1-7.813-6.107,14.947,14.947,0,0,1-2.217-10.058l.057-.525-.505-.156c-3.984-1.225-11.644-2.535-21.2-2.535Z" fill="#fff"/>
          <g id="Groupe_223" data-name="Groupe 223">
            <path id="Tracé_142" data-name="Tracé 142" d="M905.357,492.3h21.882c-.091-.392-.2-.9-.322-1.513H906.881A12.748,12.748,0,0,1,905.357,492.3Z" fill="#706f6f"/>
            <path id="Tracé_143" data-name="Tracé 143" d="M899.323,490.791V492.3h1.967a22.735,22.735,0,0,0,2.182-1.51Z" fill="#706f6f"/>
            <path id="Tracé_144" data-name="Tracé 144" d="M902.04,494.605c-.491.292-1.327.725-1.327.725h27.3q-.165-.748-.376-1.514H903.323S902.809,494.149,902.04,494.605Z" fill="#706f6f"/>
            <path id="Tracé_145" data-name="Tracé 145" d="M899.323,498.355H928.5q-.07-.746-.194-1.513H899.323Z" fill="#706f6f"/>
            <path id="Tracé_146" data-name="Tracé 146" d="M899.323,501.38h29.238q.042-.742.026-1.513H899.323Z" fill="#706f6f"/>
            <path id="Tracé_147" data-name="Tracé 147" d="M899.323,504.4h28.788c.122-.5.222-1,.3-1.513H899.323Z" fill="#706f6f"/>
            <path id="Tracé_148" data-name="Tracé 148" d="M899.323,507.431h27.706a15.714,15.714,0,0,0,.629-1.513H899.323Z" fill="#706f6f"/>
            <path id="Tracé_149" data-name="Tracé 149" d="M909.873,510.456h15.27a17.628,17.628,0,0,0,1.059-1.513H909.873Z" fill="#706f6f"/>
            <path id="Tracé_150" data-name="Tracé 150" d="M896.027,513.481h26.222c.543-.471,1.074-.977,1.585-1.513H896.027Z" fill="#706f6f"/>
            <path id="Tracé_151" data-name="Tracé 151" d="M896.027,516.507h21.98c.749-.444,1.533-.946,2.323-1.514h-24.3Z" fill="#706f6f"/>
            <path id="Tracé_152" data-name="Tracé 152" d="M896.027,519.532h15.454a38.892,38.892,0,0,0,3.675-1.513H896.027Z" fill="#706f6f"/>
            <path id="Tracé_153" data-name="Tracé 153" d="M896.027,522.557H901a24.141,24.141,0,0,1,4.668-1.513h-9.645Z" fill="#706f6f"/>
            <path id="Tracé_154" data-name="Tracé 154" d="M896.027,525.572l.01.008a22.048,22.048,0,0,1,2.117-1.511h-2.127Z" fill="#706f6f"/>
          </g>
          <g id="Groupe_224" data-name="Groupe 224">
            <path id="Tracé_155" data-name="Tracé 155" d="M896.02,532.984l-.666-.844a17.467,17.467,0,0,0-10.888-6.313c-5.476-.987-17.309-5.258-22.892-14.363-3.428-5.591-4.015-12.251-1.745-19.795l.038-.128a36.3,36.3,0,0,0,.555-16.92l-.17-.789.779-.214c2.659-.728,6.289-2.294,8.485-5.616,1.831-2.772,2.317-6.2,1.443-10.18l-.16-.733.705-.253c3.409-1.226,12.446-3.307,24.7-3.337,12.261.087,21.288,2.21,24.69,3.451l.7.257-.164.732c-.892,3.979-.422,7.406,1.4,10.187,2.18,3.332,5.8,4.915,8.459,5.656l.777.217-.173.788a36.312,36.312,0,0,0,.472,16.925l.037.13c2.234,7.55,1.616,14.207-1.838,19.783-5.625,9.078-17.478,13.294-22.959,14.255a17.472,17.472,0,0,0-10.916,6.263ZM862.248,475.04a38.179,38.179,0,0,1-.742,16.978l-.041.141c-2.125,7.06-1.6,13.254,1.564,18.413,5.267,8.589,16.524,12.635,21.74,13.574a19.273,19.273,0,0,1,11.257,6.14,19.28,19.28,0,0,1,11.287-6.087c5.22-.916,16.495-4.91,21.8-13.474,3.186-5.143,3.742-11.335,1.651-18.4l-.041-.141a38.2,38.2,0,0,1-.658-16.983,15.929,15.929,0,0,1-8.664-6.138,14.22,14.22,0,0,1-1.788-10.745c-3.734-1.218-12.158-3.029-23.414-3.108-11.25.027-19.683,1.8-23.423,3a14.214,14.214,0,0,1-1.838,10.736A15.922,15.922,0,0,1,862.248,475.04Z" fill="#fff"/>
          </g>
          <g id="Groupe_226" data-name="Groupe 226">
            <g id="Groupe_225" data-name="Groupe 225">
              <path id="Tracé_156" data-name="Tracé 156" d="M896.027,494.633l.913-.361c.313-.123.869-.388.869-.388v-3.091l-1.782,0Z" fill="#fff"/>
              <path id="Tracé_157" data-name="Tracé 157" d="M897.809,496.979s-.608.253-.847.346l-.935.357v12.774h12.18V508.94h-10.4Z" fill="#fff"/>
              <path id="Tracé_158" data-name="Tracé 158" d="M907.677,487.436c.412-.335.839-.711,1.287-1.13.052-.048-.062-.4-.062-.4-.425.342-.851.67-1.27.976l-.962.669a6.034,6.034,0,0,1-2.785,1.2c-1.265,0-1.99-1.024-2.144-2.637a10.338,10.338,0,0,0-1.639.512,3.094,3.094,0,0,0,2.917,2.871,6,6,0,0,0,3.459-1.172Zm-30.343-.469a7.973,7.973,0,0,1-2.391-5.426,5.328,5.328,0,0,1,5.281-5.227,4.534,4.534,0,0,1,4.623,4.53,3.229,3.229,0,0,1-2.339,3.392c.063.089.22.283.22.283A4.666,4.666,0,0,0,886,479.955a4.494,4.494,0,0,0-4.653-4.386,7.183,7.183,0,0,0-7.271,7.438,6.77,6.77,0,0,0,2.165,4.863,7.868,7.868,0,0,0,1.946,1.14,10.866,10.866,0,0,0,2.61.432,13.725,13.725,0,0,0,7.512-2.34,6.736,6.736,0,0,0-.678-.138,11.983,11.983,0,0,1-5.336,1.618A6.386,6.386,0,0,1,877.334,486.967Z" fill="#fff"/>
              <path id="Tracé_159" data-name="Tracé 159" d="M912.967,469.6c-4.116-.009-7.361,1.778-10.574,5.2-2.3-3.229-1.312-5.685-1.974-5.687a.365.365,0,0,0-.318.4,10.638,10.638,0,0,0,2.086,5.523,35.623,35.623,0,0,0-6.255,9.5h0c1.606-3.59,2.632-6.411,2.632-9.606,0-7.943-3.282-12.125-7.658-12.125-2.849-.006-6.511,2.777-6.518,5.685a3.061,3.061,0,0,0,3.187,3.346c2.591.006,3.581-2.408,3.778-3.1l-.294-.042s-.106.243-.225.473a3.342,3.342,0,0,1-2.825,2.037c-1.843,0-2.3-1.761-2.3-3.258a5.126,5.126,0,0,1,5.049-4.8c3.107,0,5.842,4.077,5.34,10.048a17.911,17.911,0,0,1-6.179,11.927c.211.063.372.124.516.177,3.212-2.615,5.817-6.022,6.682-9.18h.057a23.686,23.686,0,0,1-.469,4.029c-.762,3.776-1.585,5.3-2.316,6.285.479-.245,1.155-.567,1.63-.757a33.451,33.451,0,0,1,6.912-9.572,11.727,11.727,0,0,0,1.322,1.183c-1.827,1.941-3.932,4.721-4.428,7.314a9.482,9.482,0,0,1,1.606-.239,14.509,14.509,0,0,1,3.281-6.728,10.982,10.982,0,0,0,5.638,1.8c3.54.008,7.488-1.739,7.5-5.826C917.858,470.76,915.5,469.6,912.967,469.6Zm-3.245,9.2a8.15,8.15,0,0,1-4.833-1.422c.607-.8,2.453-2.441,3.346-2.439.978,0,1.063.463,1.984.465a1.014,1.014,0,0,0,1.039-.947.894.894,0,0,0-.977-.837c-1.583,0-4.669,2.349-5.794,3.469a10.1,10.1,0,0,1-1.292-1.183c2.8-2.67,7.094-5.683,11.038-5.674,1.583,0,2.991.928,2.987,2.54C917.212,476.487,912.975,478.808,909.722,478.8Z" fill="#fff"/>
            </g>
          </g>
        </g>
        <path id="Tracé_160" data-name="Tracé 160" d="M880.049,514.718c5.854,0,13.769-4.508,13.769-9.835,0-1.8-.907-3.114-2.721-3.114-3.627,0-8.162,4.343-9.316,6.392l.247.328c2.144-3.114,6.019-6.229,8.9-6.229a2.223,2.223,0,0,1,2.39,2.295c0,3.934-8.574,9.671-13.274,9.671-1.9,0-3.874-.738-3.874-2.868,0-3.115,5.5-9.588,8.14-12.293,9.894-.082,23.684-6.886,23.684-11.885,0-2.131-2.308-2.541-3.957-2.541-8.245,0-18.763,7.6-22.968,13.256-3.133-.164-5.229-1.945-5.229-4.65,0-4.754,4.122-7.622,8.9-7.622a14.331,14.331,0,0,1,6.678,1.557l.247-.492a14.07,14.07,0,0,0-6.843-1.557c-5.029,0-10.47,2.459-10.47,8.032,0,3.852,3.692,5.355,5.952,5.671-2.557,2.7-5.128,7.032-5.128,11.048C875.185,513,876.916,514.718,880.049,514.718Zm23.987-29.593c1.4,0,3.463.246,3.463,2.049,0,4.18-10.977,10.281-22.437,10.854C889.267,493.439,897.358,485.125,904.036,485.125Z" fill="#fff"/>
      </g>
    </g>
  </g>
</svg>
