<svg xmlns="http://www.w3.org/2000/svg" width="220.837" height="79.532" viewBox="0 0 220.837 79.532">
  <g id="mcl-logo" transform="translate(-858.07 -213.695)">
    <g id="Groupe_305" data-name="Groupe 305">
      <g id="Groupe_304" data-name="Groupe 304">
        <g id="Groupe_297" data-name="Groupe 297">
          <path id="Tracé_267" data-name="Tracé 267" d="M948.21,260.52c6.371,0,14.985-4.92,14.985-10.734,0-1.968-.987-3.4-2.961-3.4-3.948,0-8.883,4.741-10.139,6.977l.269.358c2.333-3.4,6.55-6.8,9.691-6.8a2.422,2.422,0,0,1,2.6,2.5c0,4.294-9.331,10.555-14.446,10.555-2.063,0-4.216-.8-4.216-3.13,0-3.4,5.831-10.645,8.7-13.6,10.767-.09,25.931-7.335,25.931-12.792,0-2.325-2.512-2.773-4.307-2.773-8.973,0-20.009,8.677-24.585,14.849-3.41-.179-6.1-2.5-6.1-5.456,0-5.188,4.487-8.319,9.691-8.319a15.555,15.555,0,0,1,7.268,1.7l.269-.536a15.266,15.266,0,0,0-7.447-1.7c-5.474,0-11.4,2.684-11.4,8.766,0,4.205,3.679,5.725,7.089,6.083-2.782,2.952-6.192,7.782-6.192,12.165C942.916,258.642,944.8,260.52,948.21,260.52Zm26.1-32.3c1.525,0,3.768.268,3.768,2.236,0,4.562-12.651,11.629-25.123,12.255C957.536,237.7,967.047,228.222,974.315,228.222Z" fill="#333"/>
          <path id="Tracé_268" data-name="Tracé 268" d="M1074.638,253.226l-1.287-1.71a1.458,1.458,0,0,0,1.079-1.425c0-.959-.805-1.373-1.845-1.373h-2.1v.233h.286c.207,0,.389.078.389.337v3.964c0,.259-.182.337-.389.337h-.286v.233h2.053v-.233h-.286c-.208,0-.39-.078-.39-.337V251.62h.831c1.482,2.2,1.625,2.2,1.807,2.2h.741v-.1C1075.093,253.693,1074.937,253.628,1074.638,253.226Zm-2.053-1.839h-.728v-2.436h.676c.6,0,1.117.259,1.117,1.166C1073.65,250.946,1073.287,251.387,1072.585,251.387Z" fill="#333"/>
          <path id="Tracé_269" data-name="Tracé 269" d="M1072.663,246.593a4.739,4.739,0,0,0-4.615,5.941c-4.752,4.366-9.173,7.443-10.73,7.443a.8.8,0,0,1-.9-.894c0-.716.493-1.3,2.6-3.623l8.076-8.99h-2.872l-5.338,5.9c-5.294,5.814-8.569,7.6-10.588,7.6-1.257,0-2.019-.447-2.019-1.163,0-.671.4-1.476,1.75-3l8.3-9.348h-2.961l-5.034,5.912c-2.252,2.292-9,7.595-11.568,7.595-.583,0-1.076-.268-1.076-.939,0-.4.269-.85,1.076-1.744,3.141-3.444,7.358-8.1,10.229-10.824h-3.14l-2.333,2.415h-.09a2.881,2.881,0,0,0,.179-1.073c0-1.163-1.256-1.879-2.781-1.879-2.869,0-9.592,3.764-12.3,8.1-4.451,3.5-8.473,5.945-11.889,5.945-.9,0-1.794-.179-1.794-1.073,0-.626.4-1.61,3.05-4.473,3.32,0,11.127-2.325,11.127-6.485a1.929,1.929,0,0,0-2.019-2.013c-2.976,0-7.514,2.942-10.5,6.327-7.256,6.472-10.025,7.717-11.321,7.717-.449,0-.987-.179-.987-.626,0-.537.942-1.476,2.781-3.489l8.344-8.958h2.917l.358-.537h-2.781l3.666-3.657h-2.96l-3.667,3.657H1007.9l-.449.537h2.916l-5.339,5.759c-2.489,2.416-8.82,7.314-11.285,7.314-.58,0-1.07-.266-1.076-.928.005-.4.276-.847,1.076-1.732,3.14-3.444,7.357-8.095,10.228-10.824h-.024l.024-.023h-3.14l-2.333,2.415h-.082a2.872,2.872,0,0,0,.172-1.05h0v-.022c0-1.163-1.257-1.879-2.782-1.879-2.833,0-9.431,3.672-12.2,7.94-4.853,4.295-7.345,6.1-8.661,6.1a.639.639,0,0,1-.718-.626c0-1.521,7.537-6.888,7.537-10.555a2.378,2.378,0,0,0-2.422-2.594c-2.333,0-6.1,3.041-8.076,4.562v-.09l4.172-4.7c9.063-3.8,19.965-11.047,19.965-15.654a1.655,1.655,0,0,0-1.526-1.834c-1.2,0-2.88.8-5.172,2.509a7.687,7.687,0,0,1-.437-2.561,5.947,5.947,0,0,1,5.89-5.84,5.062,5.062,0,0,1,5.182,5.038,3.6,3.6,0,0,1-2.607,3.786l-.152.048a1.675,1.675,0,0,1-.068.169l-.007.019,0,0c0,.008-.006.017-.01.025a1.24,1.24,0,0,1-.066.111.136.136,0,0,0,.048.01,5.064,5.064,0,0,0-1.063-10.044,8.019,8.019,0,0,0-8.111,8.311,7.643,7.643,0,0,0,.22,1.844c-3.809,3.071-9.1,8.306-16.346,16.116l-10.856,11.674h3.14c6.1-7.6,12.831-12.971,15.792-12.971a1.278,1.278,0,0,1,1.435,1.253c0,1.7-7.537,7.111-7.537,10.465,0,1.432.763,2.058,1.795,2.058,1.525,0,4.373-2.14,7.949-5.327a5.934,5.934,0,0,0-.548,2.375v.024a2.664,2.664,0,0,0,2.872,2.951c1.839,0,4.127-1.252,6.684-3.667h.08a4.142,4.142,0,0,0-.394,1.855v.023a1.84,1.84,0,0,0,1.974,1.789c2.294,0,6.174-2.648,9.122-5.082a5.592,5.592,0,0,0-1.29,3.18c0,1.029.538,1.879,1.616,1.879,1.819,0,4.886-1.936,10.073-6.411a7.957,7.957,0,0,0-1.582,4.175c0,1.7,1.435,2.236,2.781,2.236,3.83,0,8.03-2.591,11.691-5.455a6.008,6.008,0,0,0-.6,2.5,2.664,2.664,0,0,0,2.871,2.952c1.84,0,4.127-1.252,6.685-3.668h.089a4.157,4.157,0,0,0-.4,1.879,1.84,1.84,0,0,0,1.974,1.789c2.393,0,6.512-2.882,9.5-5.4a5.489,5.489,0,0,0-1.151,3.025,2.771,2.771,0,0,0,2.871,2.371c2.513,0,4.845-1.521,7.986-4.294l.089.09a3.323,3.323,0,0,0-.538,1.968,1.888,1.888,0,0,0,1.84,2.236c2.071,0,5.836-3.026,11.03-7.459a4.765,4.765,0,1,0,4.449-6.462Zm-47.654-.123a.883.883,0,0,1,.942.9c0,2.415-4.8,6.529-9.6,6.529C1020.971,248.706,1023.3,246.47,1025.009,246.47Zm-37.126-13.486a6.607,6.607,0,0,0,1.63,2.281c.048-.042.1-.084.143-.127.147-.136.291-.274.434-.414s.284-.284.423-.429c.071-.074.141-.15.211-.225a7.728,7.728,0,0,1-1.642-2.187c2.011-1.788,3.583-2.856,4.53-2.856.987,0,1.256.537,1.256,1.431,0,4.7-13.369,12.523-18.394,14.626l-.07-.071C980.707,240.331,984.722,235.967,987.883,232.984Zm-2.527,22.365c7.447-7.872,8.973-8.856,10.947-8.856a1.68,1.68,0,0,1,1.748,1.551c-.019,2.34-8.572,11.933-12.829,11.933-1.12,0-1.792-.58-1.794-1.383C983.431,258.1,983.584,257.2,985.356,255.349Zm42.888,4.628c-1.121,0-1.794-.581-1.794-1.386,0-.492.134-1.387,1.929-3.265,7.447-7.872,8.972-8.856,10.947-8.856a1.678,1.678,0,0,1,1.749,1.565C1041.075,250.361,1032.506,259.977,1028.244,259.977Zm44.419-4.186a4.444,4.444,0,1,1,4.457-4.443A4.458,4.458,0,0,1,1072.663,255.791Z" fill="#333"/>
          <path id="Tracé_270" data-name="Tracé 270" d="M1000.385,239.8a20.338,20.338,0,0,1-6.415,3.685l.179.179a16.862,16.862,0,0,0,6.64-2.863,3.1,3.1,0,0,0,1.615,2.863l.18-.179a2.1,2.1,0,0,1-.718-1.61c0-1.163.134-1,.762-2.075Z" fill="#333"/>
          <path id="Tracé_271" data-name="Tracé 271" d="M944.989,283.5l-.022-17.571-2.014,0,.024,19.311,12.761-.016,0-1.74Z" fill="#333"/>
          <path id="Tracé_272" data-name="Tracé 272" d="M967.409,265.9l-2.169,0-7.762,19.32,2.136,0,2.3-5.949,8.6-.011,2.345,5.943,2.162,0-7.6-19.243Zm-4.857,11.631,3.693-9.455,3.585,9.446Z" fill="#333"/>
          <path id="Tracé_273" data-name="Tracé 273" d="M1009.325,265.849l.015,11.932a9.192,9.192,0,0,1-.368,2.8,4.661,4.661,0,0,1-1.077,1.866,4.174,4.174,0,0,1-1.734,1.05,7.786,7.786,0,0,1-2.362.334h-.012a7.666,7.666,0,0,1-2.324-.328,4.194,4.194,0,0,1-1.737-1.046,4.665,4.665,0,0,1-1.081-1.864,9.181,9.181,0,0,1-.375-2.8l-.015-11.933-2.014,0,.015,12.334a9.389,9.389,0,0,0,.425,2.826,6.235,6.235,0,0,0,1.339,2.35,6.376,6.376,0,0,0,2.346,1.588,9.107,9.107,0,0,0,3.419.579h.016a9.218,9.218,0,0,0,3.46-.587,6.388,6.388,0,0,0,2.343-1.594,6.251,6.251,0,0,0,1.333-2.353,9.438,9.438,0,0,0,.418-2.828l-.016-12.334Z" fill="#333"/>
          <rect id="Rectangle_81" data-name="Rectangle 81" width="2.014" height="19.311" transform="matrix(1, -0.001, 0.001, 1, 1014.968, 265.842)" fill="#333"/>
          <path id="Tracé_274" data-name="Tracé 274" d="M1035.771,268.463a8.312,8.312,0,0,0-2.855-2.218,9.125,9.125,0,0,0-3.977-.822h-.015a9.219,9.219,0,0,0-4,.831,8.285,8.285,0,0,0-2.864,2.226,9.543,9.543,0,0,0-1.7,3.206,13.017,13.017,0,0,0,.009,7.61,9.434,9.434,0,0,0,1.713,3.19,8.364,8.364,0,0,0,2.87,2.2,9.2,9.2,0,0,0,3.989.821h.015a9.135,9.135,0,0,0,3.989-.831,8.4,8.4,0,0,0,2.85-2.211,9.413,9.413,0,0,0,1.705-3.194,12.994,12.994,0,0,0-.009-7.609A9.563,9.563,0,0,0,1035.771,268.463Zm-.137,10.052a8.182,8.182,0,0,1-1.271,2.676,6.487,6.487,0,0,1-2.2,1.891,6.783,6.783,0,0,1-3.219.716h-.012a6.857,6.857,0,0,1-3.223-.709,6.4,6.4,0,0,1-2.214-1.885,8.149,8.149,0,0,1-1.279-2.673h0a11.474,11.474,0,0,1-.007-6.1,8.171,8.171,0,0,1,1.272-2.663,6.434,6.434,0,0,1,2.209-1.891,6.89,6.89,0,0,1,3.234-.716h.011a6.8,6.8,0,0,1,3.21.708,6.484,6.484,0,0,1,2.2,1.886,8.206,8.206,0,0,1,1.278,2.66,11.449,11.449,0,0,1,.007,6.1Z" fill="#333"/>
          <path id="Tracé_275" data-name="Tracé 275" d="M1042.03,283.379l-.021-17.571-2.014,0,.024,19.311,12.761-.016,0-1.74Z" fill="#333"/>
          <path id="Tracé_276" data-name="Tracé 276" d="M1056.362,283.361l-.009-7.367,10.693-.013,0-1.74-10.693.013-.008-6.724,11.419-.014,0-1.74-13.433.017.024,19.311,13.567-.017,0-1.74Z" fill="#333"/>
          <path id="Tracé_277" data-name="Tracé 277" d="M984.78,275.241l0,1.739,6.53-.008a8.262,8.262,0,0,1-.4,2.69,6.05,6.05,0,0,1-1.268,2.192,5.843,5.843,0,0,1-2.074,1.439,7.228,7.228,0,0,1-2.8.518h-.014a6.864,6.864,0,0,1-3.221-.708,6.424,6.424,0,0,1-2.214-1.885,8.147,8.147,0,0,1-1.278-2.673,11.461,11.461,0,0,1-.008-6.1,8.171,8.171,0,0,1,1.272-2.663,6.431,6.431,0,0,1,2.209-1.891,6.893,6.893,0,0,1,3.234-.716h.011a6.42,6.42,0,0,1,4.295,1.552,5.77,5.77,0,0,1,1.245,1.514,4.222,4.222,0,0,1,.541,1.637l.008.084,2.022,0-.018-.108a7.8,7.8,0,0,0-1.01-2.791,7.269,7.269,0,0,0-4.221-3.223,10.032,10.032,0,0,0-2.864-.4h-.011a9.2,9.2,0,0,0-4,.831,8.276,8.276,0,0,0-2.865,2.225,9.558,9.558,0,0,0-1.705,3.207,13.015,13.015,0,0,0,.009,7.609,9.392,9.392,0,0,0,1.714,3.19,8.341,8.341,0,0,0,2.869,2.2,9.193,9.193,0,0,0,3.988.821h.016a9.6,9.6,0,0,0,2.048-.218,7.061,7.061,0,0,0,1.865-.7,6.661,6.661,0,0,0,1.593-1.224,6.571,6.571,0,0,0,1.1-1.565l.234,3.319h1.5l-.012-9.91Z" fill="#333"/>
          <path id="Tracé_278" data-name="Tracé 278" d="M1004.655,224.716c2.9,0,4.216-3.177,4.216-3.466,0-.1-.064-.16-.193-.16s-.193.257-.386.642a3.708,3.708,0,0,1-3.154,2.278c-2.06,0-2.575-1.957-2.575-3.626a5.717,5.717,0,0,1,5.633-5.359c2.8,0,3.443,2.311,3.443,4.525,0,7.252-7.467,16.718-15.128,16.718a8.911,8.911,0,0,1-2.74-.43c-.076.09-.152.181-.23.271-.13.153-.262.305-.394.457s-.242.274-.364.41a8.51,8.51,0,0,0,2.055.254c7.725,0,16.383-8.15,18.218-14.889h.064a26.274,26.274,0,0,1-.515,4.493c-1.738,8.7-4.249,7.8-4.249,9.947a.634.634,0,0,0,.676.642c2.06,0,.451-4.91,10.526-15.114a13.185,13.185,0,0,0,1.48,1.316c-2.382,2.535-4.7,6.161-4.7,9.5,0,2.567,1,4.107,3.347,4.107,2,0,4.571-1.508,6.7-3.882a6.8,6.8,0,0,0,.59-.72.1.1,0,0,1,.052-.018,8.045,8.045,0,0,0-.161,1.508c0,1.444.387,2.92,2.028,2.92,1.223,0,3.026-1.829,3.991-2.792,0,.161-.032.353-.032.578,0,1.765.547,2.214,1.416,2.214s2.093-.995,3.573-2.535c.6-.648,1.384-1.525,1.664-1.873.06-.058.147-.159.3-.341,1.545-1.733,2.35-2.567,2.736-2.952l.064.064c-1.094,1.636-3.058,3.818-3.058,5.968a1.5,1.5,0,0,0,1.545,1.669c.9,0,2.221-.834,3.8-2.471,1-1.047,1.6-1.722,1.837-2.041l.062-.077c.772-.866,3.347-3.915,3.733-4.139l.065.064a9.667,9.667,0,0,0-.193,3.016c0,1.733-1.738,5.263-3.251,5.263-.387,0-.547-.193-.547-.481,0-.578.45-.322.45-.963,0-.289-.322-.514-.676-.514-.579,0-.8.353-.8.9a1.664,1.664,0,0,0,.515,1.091,1.955,1.955,0,0,0,1.448.353c1.8,0,3.315-1.027,5.053-2.984a14.486,14.486,0,0,0,1.3-1.567.41.41,0,0,1,.274-.166c.064,0,.1.064.1.192a8.261,8.261,0,0,0-.162,1.669c0,1.733.708,2.856,2,2.856a5.64,5.64,0,0,0,4.12-2.278,1.343,1.343,0,0,0,.418.032,4.433,4.433,0,0,0,3.187-1.38,7.681,7.681,0,0,0,.757-.853c.174-.206.532-.648,1.4-1.586,1.642-1.8,2.511-2.471,3.412-2.471a.455.455,0,0,1,.483.482c0,.994-4.539,6.866-5.15,8.054l2.156-.193c.966-1.508,6.792-8.343,8.337-8.343.29,0,.451.161.451.385,0,.867-3.477,3.53-3.477,6.1,0,1.155.451,2.054,1.417,2.054.74,0,1.866-.866,3.282-2.278a21.319,21.319,0,0,0,2.029-2.343c0-.064-.033-.16-.13-.16-.193,0-.064.1-1.7,1.829-1.32,1.412-2.672,2.567-3.412,2.567a.584.584,0,0,1-.515-.642c0-.513.708-1.669,2.157-3.626a4.813,4.813,0,0,0,1.19-2.759c0-.674-.354-1.509-1.159-1.509-1.641,0-5.342,4.493-6.6,5.68l-.064-.064c.708-.931,2.028-2.76,2.028-4.043,0-.963-.354-1.573-1.191-1.573-1.256,0-2.543,1.155-4.088,2.952-.332.382-.9,1.02-1.124,1.318-.073.077-.184.212-.388.447a4.151,4.151,0,0,1-2.994,1.573.736.736,0,0,1-.354-.065,6.6,6.6,0,0,0,1.9-4.011,1.959,1.959,0,0,0-1.931-2.214,8.209,8.209,0,0,0-5.279,2.535c-.544.52-1.245,1.229-1.614,1.66-.015.016-.033.037-.053.062-.061.074-.11.137-.144.187-.1.136-.26.326-.506.594a11.921,11.921,0,0,1-2.317,2.246l-.034-.034a2.835,2.835,0,0,0,.871-1.923c0-1.316-.676-2.022-.676-4.4a2.931,2.931,0,0,1,.129-.738c.579-.193,1.287-.385,1.287-.995,0-.289-.161-.481-.547-.481-.708,0-1,.93-1.062.962a33,33,0,0,0-2.8,3.017c-.611.762-1.039,1.195-1.255,1.467-.318.337-1.15,1.317-1.834,2-1.062,1.091-2.542,2.375-3.572,2.375-.29,0-.612-.129-.612-.674,0-.674.526-1.365,4.389-7.719h-1.943c-.483.674-1.931,2.136-2.768,3.1-.467.537-.709.81-.835.961-.057.049-.154.174-.419.483-1.867,2.182-3.6,3.851-4.571,3.851-.419,0-.547-.193-.547-.449,0-1.124,3.733-6.852,4.635-7.944l-1.545.082c-.676.032-.612.449-1.771,2.278l-.064-.064a3.068,3.068,0,0,0,.1-.866c0-.867-.419-1.573-1.384-1.573-2.221,0-4.828,1.637-6.567,3.755-.19.233-.311.364-.39.453-.207.164-.756.876-1.8,1.857-.966.9-2.768,2.214-4.377,2.214s-2.446-1.219-2.446-3.562a14.628,14.628,0,0,1,3.347-8.824,12.3,12.3,0,0,0,6.309,1.989c3.959,0,8.368-1.957,8.368-6.513,0-3.177-2.639-4.461-5.472-4.461-4.6,0-8.561,2.92-11.683,6.129-2.575-3.594-1.61-6.642-2.35-6.642a.406.406,0,0,0-.354.449,13.138,13.138,0,0,0,2.446,6.514c-3.122,3.4-5.407,7.509-7.693,11.52l-.064-.064a29.654,29.654,0,0,0,2.575-11.713c0-3.176-1.094-6.578-5.279-6.578-3.186,0-7.274,3.113-7.274,6.354A3.418,3.418,0,0,0,1004.655,224.716Zm55.969,3.786c.8,0,1.127.674,1.127,1.444,0,2.92-2.993,6.707-5.536,6.707-.451,0-.837-.289-.837-1.188C1055.378,232.77,1058.371,228.5,1060.624,228.5Zm-26.841,0c.675,0,1,.514,1,1.156,0,2.374-4.023,6.995-5.89,6.995-.515,0-.74-.417-.74-1.027C1028.15,233.316,1031.176,228.5,1033.783,228.5Zm-1.608-12.771c1.77,0,3.347,1.027,3.347,2.824,0,4.14-4.731,6.739-8.369,6.739a9.133,9.133,0,0,1-5.407-1.573c.676-.9,2.736-2.727,3.734-2.727,1.094,0,1.191.513,2.221.513a1.134,1.134,0,0,0,1.158-1.059,1,1,0,0,0-1.094-.93c-1.77,0-5.214,2.631-6.469,3.882a11.354,11.354,0,0,1-1.449-1.315C1022.969,219.1,1027.765,215.731,1032.175,215.731Z" fill="#333"/>
          <path id="Tracé_279" data-name="Tracé 279" d="M1045.676,225.967a1.2,1.2,0,0,0,1.126-1.219.754.754,0,0,0-.74-.834,1.2,1.2,0,0,0-1.126,1.219A.754.754,0,0,0,1045.676,225.967Z" fill="#333"/>
        </g>
        <g id="Groupe_303" data-name="Groupe 303">
          <g id="Groupe_302" data-name="Groupe 302">
            <path id="Tracé_280" data-name="Tracé 280" d="M896.206,217.325c9.654,0,17.212,1.321,21.084,2.508a15.524,15.524,0,0,0,2.327,10.485,17.15,17.15,0,0,0,8.14,6.354,39.756,39.756,0,0,0,.983,16.285l.008.027.008.027.019.065v.006l0,.005c1.936,6.524,1.449,12.2-1.447,16.856a26.229,26.229,0,0,1-10.211,8.9,37.909,37.909,0,0,1-10.366,3.7,21.521,21.521,0,0,0-10.988,5.25,21.53,21.53,0,0,0-10.964-5.3,37.953,37.953,0,0,1-10.349-3.745,26.253,26.253,0,0,1-10.169-8.95c-2.875-4.675-3.335-10.349-1.365-16.874l.019-.064.008-.028.008-.028a39.693,39.693,0,0,0,1.065-16.28,17.148,17.148,0,0,0,8.17-6.317,15.516,15.516,0,0,0,2.375-10.472c3.914-1.181,11.587-2.385,21.371-2.41h.271m0-.641v0h-.273c-10.022.025-17.706,1.275-21.555,2.436l-.508.154.055.526a14.919,14.919,0,0,1-2.272,10.053,16.321,16.321,0,0,1-7.87,6.074l-.471.186.071.5a39.481,39.481,0,0,1-1.022,15.93l-.027.092-.007.027-.005.015-.019.065c-2.023,6.7-1.541,12.553,1.433,17.39a26.866,26.866,0,0,0,10.414,9.18,38.616,38.616,0,0,0,10.538,3.812,20.877,20.877,0,0,1,10.642,5.141l.434.4.435-.4a20.886,20.886,0,0,1,10.666-5.092,38.642,38.642,0,0,0,10.556-3.762,26.871,26.871,0,0,0,10.456-9.132c3-4.823,3.508-10.669,1.517-17.376l-.021-.073-.008-.027,0-.015-.026-.091a39.5,39.5,0,0,1-.942-15.935l.073-.5-.47-.188a16.322,16.322,0,0,1-7.842-6.11,14.922,14.922,0,0,1-2.225-10.064l.058-.526-.508-.156c-4-1.226-11.686-2.537-21.272-2.537Z" fill="#333"/>
            <g id="Groupe_298" data-name="Groupe 298">
              <path id="Tracé_281" data-name="Tracé 281" d="M905.124,252.523h21.963c-.092-.392-.2-.9-.323-1.514h-20.11A12.679,12.679,0,0,1,905.124,252.523Z" fill="#dadada"/>
              <path id="Tracé_282" data-name="Tracé 282" d="M899.068,251.009v1.514h1.974a22.893,22.893,0,0,0,2.191-1.511Z" fill="#dadada"/>
              <path id="Tracé_283" data-name="Tracé 283" d="M901.795,254.826c-.493.291-1.332.725-1.332.725h27.4q-.166-.75-.378-1.515H903.083S902.567,254.369,901.795,254.826Z" fill="#dadada"/>
              <path id="Tracé_284" data-name="Tracé 284" d="M899.068,258.578h29.283q-.07-.747-.194-1.514H899.068Z" fill="#dadada"/>
              <path id="Tracé_285" data-name="Tracé 285" d="M899.068,261.605h29.346q.042-.744.026-1.514H899.068Z" fill="#dadada"/>
              <path id="Tracé_286" data-name="Tracé 286" d="M899.068,264.632h28.894c.122-.5.223-1,.3-1.514H899.068Z" fill="#dadada"/>
              <path id="Tracé_287" data-name="Tracé 287" d="M899.068,267.659h27.808a15.5,15.5,0,0,0,.631-1.514H899.068Z" fill="#dadada"/>
              <path id="Tracé_288" data-name="Tracé 288" d="M909.657,270.686h15.326a17.685,17.685,0,0,0,1.063-1.514H909.657Z" fill="#dadada"/>
              <path id="Tracé_289" data-name="Tracé 289" d="M895.76,273.713h26.318c.546-.471,1.078-.978,1.591-1.514H895.76Z" fill="#dadada"/>
              <path id="Tracé_290" data-name="Tracé 290" d="M895.76,276.74h22.061c.752-.443,1.539-.945,2.332-1.514H895.76Z" fill="#dadada"/>
              <path id="Tracé_291" data-name="Tracé 291" d="M895.76,279.767h15.511a38.966,38.966,0,0,0,3.689-1.514h-19.2Z" fill="#dadada"/>
              <path id="Tracé_292" data-name="Tracé 292" d="M895.76,282.8h4.995a24.364,24.364,0,0,1,4.685-1.515h-9.68Z" fill="#dadada"/>
              <path id="Tracé_293" data-name="Tracé 293" d="M895.76,285.811l.01.008a22.061,22.061,0,0,1,2.125-1.511H895.76Z" fill="#dadada"/>
            </g>
            <g id="Groupe_299" data-name="Groupe 299">
              <path id="Tracé_294" data-name="Tracé 294" d="M895.753,293.227l-.669-.843a17.537,17.537,0,0,0-10.927-6.318c-5.5-.987-17.373-5.261-22.977-14.371-3.441-5.6-4.03-12.259-1.751-19.807l.037-.128a36.2,36.2,0,0,0,.557-16.931l-.17-.789.782-.214c2.668-.729,6.312-2.3,8.516-5.62,1.838-2.773,2.325-6.2,1.449-10.186l-.161-.733.708-.254c3.421-1.226,12.492-3.309,24.792-3.338,12.306.086,21.366,2.211,24.781,3.453l.707.257-.165.732c-.9,3.982-.423,7.411,1.4,10.193,2.188,3.334,5.825,4.918,8.49,5.659l.78.218-.174.788a36.241,36.241,0,0,0,.473,16.936l.038.129c2.242,7.556,1.622,14.217-1.845,19.8-5.646,9.084-17.542,13.3-23.043,14.265a17.544,17.544,0,0,0-10.957,6.267Zm-33.9-57.978a38.1,38.1,0,0,1-.745,16.988l-.041.141c-2.133,7.065-1.6,13.262,1.57,18.424,5.286,8.594,16.584,12.643,21.819,13.583a19.358,19.358,0,0,1,11.3,6.143,19.366,19.366,0,0,1,11.328-6.091c5.24-.916,16.556-4.912,21.883-13.481,3.2-5.147,3.755-11.343,1.657-18.414l-.041-.142a38.122,38.122,0,0,1-.661-16.994,15.974,15.974,0,0,1-8.7-6.141,14.187,14.187,0,0,1-1.795-10.751c-3.748-1.219-12.2-3.031-23.5-3.111-11.292.027-19.756,1.8-23.51,3a14.187,14.187,0,0,1-1.844,10.743A15.988,15.988,0,0,1,861.857,235.249Z" fill="#333"/>
            </g>
            <g id="Groupe_301" data-name="Groupe 301">
              <g id="Groupe_300" data-name="Groupe 300">
                <path id="Tracé_295" data-name="Tracé 295" d="M895.76,254.853l.916-.36c.315-.124.872-.388.872-.388v-3.094l-1.788,0Z" fill="#333"/>
                <path id="Tracé_296" data-name="Tracé 296" d="M897.548,257.2s-.609.253-.849.346-.939.357-.939.357v12.782h12.225v-1.517H897.548Z" fill="#333"/>
                <path id="Tracé_297" data-name="Tracé 297" d="M907.453,247.652c.413-.335.842-.711,1.292-1.13.052-.049-.063-.4-.063-.4-.427.342-.854.671-1.274.977l-.966.669a6.061,6.061,0,0,1-2.8,1.2c-1.269,0-2-1.024-2.151-2.639a10.425,10.425,0,0,0-1.645.513,3.1,3.1,0,0,0,2.928,2.873,6.043,6.043,0,0,0,3.472-1.173ZM877,247.183a7.962,7.962,0,0,1-2.4-5.429,5.337,5.337,0,0,1,5.3-5.23,4.544,4.544,0,0,1,4.641,4.532,3.231,3.231,0,0,1-2.348,3.394c.064.09.221.283.221.283a4.672,4.672,0,0,0,3.285-4.567,4.5,4.5,0,0,0-4.67-4.388,7.2,7.2,0,0,0-7.3,7.442,6.76,6.76,0,0,0,2.173,4.866,7.845,7.845,0,0,0,1.953,1.141,10.939,10.939,0,0,0,2.619.432,13.809,13.809,0,0,0,7.541-2.341,6.8,6.8,0,0,0-.681-.138,12.032,12.032,0,0,1-5.356,1.618A6.422,6.422,0,0,1,877,247.183Z" fill="#333"/>
                <path id="Tracé_298" data-name="Tracé 298" d="M912.763,229.8c-4.132-.01-7.389,1.779-10.614,5.2-2.3-3.232-1.317-5.689-1.981-5.69a.364.364,0,0,0-.319.4,10.621,10.621,0,0,0,2.094,5.527,35.661,35.661,0,0,0-6.279,9.509h0c1.613-3.591,2.642-6.414,2.642-9.612,0-7.947-3.294-12.131-7.686-12.131-2.86-.007-6.535,2.778-6.542,5.687a3.067,3.067,0,0,0,3.2,3.349c2.6.006,3.594-2.41,3.792-3.1l-.295-.042s-.107.243-.226.473a3.354,3.354,0,0,1-2.836,2.038c-1.849,0-2.307-1.762-2.3-3.26a5.137,5.137,0,0,1,5.067-4.8c3.119,0,5.864,4.079,5.361,10.053a17.911,17.911,0,0,1-6.2,11.935c.212.063.373.123.518.177,3.224-2.617,5.838-6.025,6.707-9.185h.058a23.626,23.626,0,0,1-.472,4.031c-.764,3.778-1.59,5.3-2.324,6.288.481-.245,1.159-.567,1.636-.757a33.468,33.468,0,0,1,6.938-9.578,11.857,11.857,0,0,0,1.326,1.184c-1.833,1.942-3.946,4.724-4.444,7.319a9.554,9.554,0,0,1,1.612-.24,14.5,14.5,0,0,1,3.293-6.732,11.04,11.04,0,0,0,5.659,1.8c3.553.008,7.515-1.74,7.525-5.829C917.672,230.966,915.3,229.808,912.763,229.8Zm-3.258,9.209a8.2,8.2,0,0,1-4.85-1.423c.609-.805,2.462-2.442,3.357-2.44.983,0,1.068.463,1.993.465a1.018,1.018,0,0,0,1.042-.948.9.9,0,0,0-.98-.837c-1.589,0-4.686,2.351-5.816,3.471a10.215,10.215,0,0,1-1.3-1.184c2.809-2.672,7.121-5.686,11.079-5.677,1.589,0,3,.929,3,2.542C917.023,236.7,912.77,239.019,909.505,239.012Z" fill="#333"/>
              </g>
            </g>
          </g>
          <path id="Tracé_299" data-name="Tracé 299" d="M879.723,274.95c5.876,0,13.82-4.51,13.82-9.84,0-1.8-.91-3.117-2.731-3.117-3.641,0-8.192,4.347-9.351,6.4l.248.328c2.152-3.116,6.041-6.233,8.938-6.233a2.228,2.228,0,0,1,2.4,2.3c0,3.936-8.606,9.676-13.323,9.676-1.9,0-3.889-.738-3.889-2.87,0-3.116,5.523-9.594,8.171-12.3,9.93-.082,23.771-6.89,23.771-11.892,0-2.132-2.317-2.542-3.972-2.542-8.275,0-18.832,7.6-23.052,13.263-3.145-.164-5.249-1.946-5.249-4.652,0-4.757,4.138-7.627,8.937-7.627a14.417,14.417,0,0,1,6.7,1.558l.248-.492a14.153,14.153,0,0,0-6.868-1.558c-5.048,0-10.509,2.46-10.509,8.036,0,3.855,3.705,5.359,5.974,5.675-2.566,2.707-5.147,7.037-5.147,11.055C874.841,273.228,876.579,274.95,879.723,274.95ZM903.8,245.34c1.407,0,3.476.246,3.476,2.05,0,4.183-11.017,10.287-22.519,10.861C888.975,253.659,897.095,245.34,903.8,245.34Z" fill="#333"/>
        </g>
      </g>
    </g>
  </g>
</svg>
