<svg xmlns="http://www.w3.org/2000/svg" width="" height="" viewBox="0 0 290 290">
  <g id="mg-box" transform="translate(-1896.97 -352.753)">
    <rect id="Rectangle_74" data-name="Rectangle 74" width="290" height="290" transform="translate(1896.97 352.753)" fill="#03456f"/>
    <g id="Groupe_257" data-name="Groupe 257">
      <g id="Groupe_256" data-name="Groupe 256">
        <g id="Groupe_250" data-name="Groupe 250">
          <g id="Groupe_249" data-name="Groupe 249">
            <g id="Groupe_248" data-name="Groupe 248">
              <path id="Tracé_188" data-name="Tracé 188" d="M2102.533,512.11l1.5-2.185,2.405-.142-4.008,6.293A21.632,21.632,0,0,0,2101.3,518a2.706,2.706,0,0,0-.232.924.562.562,0,0,0,.107.374.587.587,0,0,0,.445.124,2.977,2.977,0,0,0,1.488-.757,23.469,23.469,0,0,0,2.448-2.271l.98-1.05a2.41,2.41,0,0,1,.694-.624.239.239,0,0,1,.16.036l.054.107a1.415,1.415,0,0,1-.409.694q-.287.339-.517.588t-.748.766a20.235,20.235,0,0,1-2.841,2.574,3.2,3.2,0,0,1-1.718.6,1.363,1.363,0,0,1-1.114-.463,2.08,2.08,0,0,1-.382-1.353v-.517c.029-.2.048-.332.055-.392s.048-.219.123-.481a11.719,11.719,0,0,1-2.414,2.4,3.885,3.885,0,0,1-2.181.81,1.759,1.759,0,0,1-1.55-.979,4.409,4.409,0,0,1-.409-1.176,7.593,7.593,0,0,1-.143-1.567l.054-.855a4.523,4.523,0,0,1,.178-.837,2.119,2.119,0,0,1-.2.285,2.558,2.558,0,0,1-.214.249.613.613,0,0,1-.338.178.242.242,0,0,1-.16-.035l-.054-.107c0-.106.155-.337.463-.692l1.247-1.35a15.205,15.205,0,0,1,3.419-2.627,6.7,6.7,0,0,1,3.153-.941,2.037,2.037,0,0,1,1.4.462,1.549,1.549,0,0,1,.526,1.226v.373Zm-7.8,6.188a1.345,1.345,0,0,0,.223.818.755.755,0,0,0,.649.3,2.942,2.942,0,0,0,1.514-.6,9.848,9.848,0,0,0,1.87-1.689,18.7,18.7,0,0,0,1.291-1.564,12.262,12.262,0,0,0,.989-1.582,6.1,6.1,0,0,0,.819-2.666,1,1,0,0,0-.356-.8,1.138,1.138,0,0,0-.837-.338,3.4,3.4,0,0,0-1.95.773,9.44,9.44,0,0,0-2.057,2.169,13.855,13.855,0,0,0-1.576,2.808A6.527,6.527,0,0,0,2094.732,518.3Z" fill="#fff"/>
              <path id="Tracé_189" data-name="Tracé 189" d="M2110.333,511.9l-2.03,2.244q-1.051,1.23-1.247,1.229l-.125-.035-.053-.107a.768.768,0,0,1,.178-.392l.657-.821,1.156-1.265q1.155-1.248,1.99-2.229.96-1.105,1.174-1.426l7.2-11.161,2.368-.32-11.236,17.827q-1.033,1.621-1.478,2.458a2.571,2.571,0,0,0-.3.98.8.8,0,0,0,.178.5.775.775,0,0,0,.48.2,2.767,2.767,0,0,0,1.479-.561,24.773,24.773,0,0,0,2.9-2.627l.962-1.032q.534-.642.712-.642l.143.054.07.125a1.069,1.069,0,0,1-.3.543q-.3.365-1.371,1.469a22.236,22.236,0,0,1-2.761,2.5,3.1,3.1,0,0,1-1.692.668,1.811,1.811,0,0,1-1.434-.623,2.46,2.46,0,0,1-.543-1.674q0-1.443,2.636-5.414Z" fill="#fff"/>
              <path id="Tracé_190" data-name="Tracé 190" d="M2118.365,511.9l-2.03,2.244q-1.051,1.23-1.247,1.229l-.124-.035-.054-.107a.768.768,0,0,1,.178-.392l.658-.821,1.155-1.265q1.157-1.248,1.991-2.229.958-1.105,1.173-1.426l7.2-11.161,2.368-.32L2118.4,515.446q-1.033,1.621-1.478,2.458a2.57,2.57,0,0,0-.3.98.8.8,0,0,0,.178.5.776.776,0,0,0,.481.2,2.767,2.767,0,0,0,1.478-.561,24.773,24.773,0,0,0,2.9-2.627l.962-1.032q.534-.642.712-.642l.143.054.071.125a1.075,1.075,0,0,1-.3.543q-.3.365-1.371,1.469a22.165,22.165,0,0,1-2.761,2.5,3.1,3.1,0,0,1-1.692.668,1.808,1.808,0,0,1-1.433-.623,2.455,2.455,0,0,1-.543-1.674q0-1.443,2.635-5.414Z" fill="#fff"/>
              <path id="Tracé_191" data-name="Tracé 191" d="M2132.274,516.729l-.053.089a5.355,5.355,0,0,0-.962,2.066.732.732,0,0,0,.143.5.543.543,0,0,0,.428.161,2.691,2.691,0,0,0,1.416-.739,33.832,33.832,0,0,0,2.537-2.378l.962-1.068q.534-.642.712-.642l.143.054.071.089a1.222,1.222,0,0,1-.285.525,16.047,16.047,0,0,1-1.14,1.274,24.519,24.519,0,0,1-2.742,2.564,3.371,3.371,0,0,1-1.71.855,1.5,1.5,0,0,1-1.247-.677,3.232,3.232,0,0,1-.463-1.8l.071-.446.072-.6a17.543,17.543,0,0,1-2.708,2.618,3.774,3.774,0,0,1-2.066.908,1.845,1.845,0,0,1-1.46-.632,2.441,2.441,0,0,1-.552-1.665q0-1.443,2.69-5.468l.267-.392q-.535.535-.98,1.015-.552.588-1.068,1.176-1.07,1.228-1.265,1.229l-.124-.018-.054-.089a5.984,5.984,0,0,1,1.158-1.532q1.068-1.246,3.472-3.758l2.618-.142-3.615,5.645-.231.375a9.594,9.594,0,0,0-1.55,3.063.677.677,0,0,0,.151.436.639.639,0,0,0,.437.223q1.443,0,3.793-2.529a42.521,42.521,0,0,0,5.058-7.071l2.458-.142Z" fill="#fff"/>
              <path id="Tracé_192" data-name="Tracé 192" d="M2147.135,512.1l8.1-14.374,2.368-.109-9.96,17.275q-.837,1.455-1.37,2.585a3.952,3.952,0,0,0-.427,1.436.5.5,0,0,0,.159.36.915.915,0,0,0,.428.143,3.415,3.415,0,0,0,1.452-.879,29.022,29.022,0,0,0,2.519-2.387l.749-.825c.367-.407.593-.611.676-.611a.238.238,0,0,1,.16.036l.054.107a1.415,1.415,0,0,1-.409.694q-.286.339-.517.588t-.748.766a20.179,20.179,0,0,1-2.841,2.574,3.2,3.2,0,0,1-1.718.6,1.363,1.363,0,0,1-1.114-.463,2.08,2.08,0,0,1-.382-1.353v-.517c.029-.2.048-.332.055-.392s.048-.219.123-.481a11.719,11.719,0,0,1-2.414,2.4,3.885,3.885,0,0,1-2.181.81,1.76,1.76,0,0,1-1.55-.979,4.409,4.409,0,0,1-.409-1.176,7.661,7.661,0,0,1-.143-1.567l.054-.855a4.484,4.484,0,0,1,.178-.837,2.136,2.136,0,0,1-.2.285,2.558,2.558,0,0,1-.214.249.613.613,0,0,1-.338.178.242.242,0,0,1-.16-.035l-.054-.107c0-.107.155-.338.463-.695l1.247-1.353a15.212,15.212,0,0,1,3.42-2.636,6.678,6.678,0,0,1,3.152-.944,2.051,2.051,0,0,1,1.4.46,1.545,1.545,0,0,1,.525,1.221,2.483,2.483,0,0,1-.022.372Zm-7.808,6.194a1.346,1.346,0,0,0,.223.819.755.755,0,0,0,.649.3,2.952,2.952,0,0,0,1.515-.605,9.9,9.9,0,0,0,1.869-1.692,18.934,18.934,0,0,0,1.292-1.568,12.255,12.255,0,0,0,.988-1.585,6.113,6.113,0,0,0,.82-2.671,1,1,0,0,0-.357-.8,1.138,1.138,0,0,0-.837-.338,3.4,3.4,0,0,0-1.95.775,9.445,9.445,0,0,0-2.057,2.173,13.894,13.894,0,0,0-1.576,2.814A6.545,6.545,0,0,0,2139.327,518.3Z" fill="#fff"/>
            </g>
          </g>
          <path id="Tracé_193" data-name="Tracé 193" d="M2056.1,514.485l-.107-.054-.178.036-.125.071-.463.552a5.844,5.844,0,0,1-1.541,1.185,3.279,3.279,0,0,1-1.487.418l-.427-.071-.161-.036a12.546,12.546,0,0,0,1.523-2.431,4.894,4.894,0,0,0,.472-1.986,2.657,2.657,0,0,0-.686-1.923,2.415,2.415,0,0,0-1.825-.712,6.145,6.145,0,0,0-3.081,1.006,15.071,15.071,0,0,0-3.331,2.787l-1.228,1.407c-.042.059-.062.094-.094.142a7.343,7.343,0,0,0-.6.624q-.339.391-.668.739t-.615.632a13.082,13.082,0,0,1-2.493,2.048,4,4,0,0,1-1.994.624,1.334,1.334,0,0,1-1.078-.454,1.856,1.856,0,0,1-.383-1.238l.036-.5.142-.959a15.629,15.629,0,0,0,5.37-2.213q1.966-1.4,1.968-2.87a1.516,1.516,0,0,0-.561-1.217,2.182,2.182,0,0,0-1.452-.471,6.618,6.618,0,0,0-3.276,1,14.418,14.418,0,0,0-3.384,2.779q-.678.727-1.051,1.207c-.059.076-.088.121-.133.183a4.041,4.041,0,0,0-.615.6q-.269.321-.5.57c-.155.167-.291.309-.41.427a24.525,24.525,0,0,1-2.724,2.529,2.823,2.823,0,0,1-1.55.659.572.572,0,0,1-.436-.205.7.7,0,0,1-.187-.489,3.25,3.25,0,0,1,.427-1.2q.428-.846,1.282-2.235l5.458-8.709h4.214l.284-.517h-4.174l2.333-3.7-2.366.169-2.223,3.546-1.795-.011-.306.517h1.763l-1.585,2.368a25.9,25.9,0,0,1-3.019,3.536,21.518,21.518,0,0,0-1.915,2.145,4.34,4.34,0,0,0-.569.553l-.98,1.05a23.249,23.249,0,0,1-2.448,2.271,2.975,2.975,0,0,1-1.487.757.589.589,0,0,1-.446-.124.568.568,0,0,1-.106-.374,2.7,2.7,0,0,1,.231-.924,21.632,21.632,0,0,1,1.122-1.92l4.007-6.293-2.4.142-1.5,2.185.142-.426v-.373a1.553,1.553,0,0,0-.525-1.226,2.039,2.039,0,0,0-1.4-.462,6.7,6.7,0,0,0-3.152.941,15.185,15.185,0,0,0-3.42,2.628l-1.246,1.349a3.312,3.312,0,0,0-.409.545c-.056.061-.114.125-.179.2l-.819.927a12.117,12.117,0,0,1-2.591,2.11,4.667,4.667,0,0,1-2.111.81,1.858,1.858,0,0,1-1.71-1.06,6.228,6.228,0,0,1-.587-2.983,15.263,15.263,0,0,1,.97-5.307,17.12,17.12,0,0,1,2.787-4.88,17.632,17.632,0,0,0,3.847,1.8,11.821,11.821,0,0,0,3.473.534,12.3,12.3,0,0,0,7.836-2.867,8.253,8.253,0,0,0,2.067-2.386,5.168,5.168,0,0,0,.676-2.476,4.184,4.184,0,0,0-2.172-3.553,9.7,9.7,0,0,0-5.451-1.434,14.379,14.379,0,0,0-6.651,1.683,25.507,25.507,0,0,0-6.581,5.138,11.238,11.238,0,0,1-1.914-4.784q-.438-2.7-.686-2.7a.5.5,0,0,0-.392.213,1.114,1.114,0,0,0-.107.553,10.605,10.605,0,0,0,.758,3.545,14.056,14.056,0,0,0,1.931,3.634,59.09,59.09,0,0,0-3.9,5.148q-1.959,2.922-4.007,6.609a43.737,43.737,0,0,0,1.71-6.264,30.864,30.864,0,0,0,.587-5.8,8.9,8.9,0,0,0-1.576-5.648,5.3,5.3,0,0,0-4.408-1.99,8.163,8.163,0,0,0-2.991.6,10.78,10.78,0,0,0-2.877,1.688,8.059,8.059,0,0,0-2.1,2.538,6.257,6.257,0,0,0-.757,2.931,4.128,4.128,0,0,0,1.122,3.01,3.914,3.914,0,0,0,2.938,1.153,4.78,4.78,0,0,0,1.79-.338,6.3,6.3,0,0,0,1.665-1.016,3.7,3.7,0,0,0,1.6-2.475l-.071-.143a.245.245,0,0,0-.178-.071q-.107.018-.392.5-1.621,2.6-3.722,2.6a2.376,2.376,0,0,1-2.048-1.1,5.084,5.084,0,0,1-.766-2.958,6.13,6.13,0,0,1,1.879-4.514,6.03,6.03,0,0,1,4.39-1.869,3.424,3.424,0,0,1,2.912,1.365,6.262,6.262,0,0,1,1.024,3.827,16.618,16.618,0,0,1-1.292,6.109,25.041,25.041,0,0,1-3.552,6.163,19.677,19.677,0,0,1-5.717,5.174,12.755,12.755,0,0,1-3.108,1.284,13.118,13.118,0,0,1-3.322.411,9.621,9.621,0,0,1-6.865-2.574,8.332,8.332,0,0,1-2.734-6.314,6.1,6.1,0,0,1,1.888-4.559,6.417,6.417,0,0,1,4.648-1.834,5.822,5.822,0,0,1,4.257,1.665,5.621,5.621,0,0,1,1.692,4.176,4.831,4.831,0,0,1-.508,2.227,3.3,3.3,0,0,1-1.363,1.46,4.266,4.266,0,0,1-.694.321q-.57.267-.57.445a.211.211,0,0,0,.054.169.487.487,0,0,0,.267.045q1.46,0,3.045-1.9a6.3,6.3,0,0,0,1.585-4.123,5.477,5.477,0,0,0-1.7-4.114,5.977,5.977,0,0,0-4.32-1.639,9.335,9.335,0,0,0-6.8,2.823,9.177,9.177,0,0,0-2.849,6.759,7.87,7.87,0,0,0,2.484,6.037,9.163,9.163,0,0,0,6.51,2.316,17.315,17.315,0,0,0,8.379-2.5,28.827,28.827,0,0,0,8.005-6.687,22.642,22.642,0,0,0,2.725-4.2q.606-1.194,1.087-2.431a24.354,24.354,0,0,0,.819-2.5,27.251,27.251,0,0,1-.232,3.455q-.231,1.816-.623,3.615a29.015,29.015,0,0,1-2.066,6.233,15.983,15.983,0,0,0-2.092,2.512,3.911,3.911,0,0,0-.793,1.888.852.852,0,0,0,.855.854q.713,0,1.389-1.122a11.91,11.91,0,0,0,1.193-3.223,47.907,47.907,0,0,1,4.248-6.8,51.779,51.779,0,0,1,5.352-6.108l.712.659.783.623a22.5,22.5,0,0,0-4.06,5.61,12.269,12.269,0,0,0-1.389,5.4,5.752,5.752,0,0,0,.935,3.446,2.809,2.809,0,0,0,2.359,1.292,6.016,6.016,0,0,0,2.761-.757,16.728,16.728,0,0,0,3.224-2.307,11.359,11.359,0,0,0,1.3-1.335,5.37,5.37,0,0,0,.4-.545,2.693,2.693,0,0,0,.191-.221,2.142,2.142,0,0,0,.2-.285,4.493,4.493,0,0,0-.178.837l-.053.855a7.657,7.657,0,0,0,.142,1.567,4.409,4.409,0,0,0,.41,1.176,1.759,1.759,0,0,0,1.549.979,3.886,3.886,0,0,0,2.181-.81,11.7,11.7,0,0,0,2.414-2.4q-.111.393-.123.481c-.007.06-.025.19-.055.392v.517a2.086,2.086,0,0,0,.382,1.353,1.363,1.363,0,0,0,1.114.463,3.192,3.192,0,0,0,1.719-.6,20.236,20.236,0,0,0,2.84-2.574q.518-.516.748-.766t.517-.588a2.717,2.717,0,0,0,.329-.459,12.736,12.736,0,0,0,.917-.966q.98-1.121,2.084-2.226l-.427.677q-2.531,3.812-2.529,5.2a2.456,2.456,0,0,0,.543,1.674,1.81,1.81,0,0,0,1.433.623,3.1,3.1,0,0,0,1.692-.668,22.156,22.156,0,0,0,2.761-2.5q1.07-1.1,1.371-1.47a2.112,2.112,0,0,0,.211-.3l.466-.531-.16.8-.054.73a4.414,4.414,0,0,0,.882,2.814,2.71,2.71,0,0,0,2.217,1.122,4.679,4.679,0,0,0,2.324-.686,14.207,14.207,0,0,0,2.823-2.306q1.194-1.211,1.523-1.621a2.7,2.7,0,0,0,.251-.358l.435-.5a7.458,7.458,0,0,0-.222.908,3.657,3.657,0,0,0-.063.49v.276a5.2,5.2,0,0,0,.632,2.814,2.03,2.03,0,0,0,1.808.979,3.262,3.262,0,0,0,1.078-.2,6.149,6.149,0,0,0,1.193-.588,11.188,11.188,0,0,0,1.291-.943,13.431,13.431,0,0,0,1.264-1.211,1.112,1.112,0,0,0,.321.035l.5.018a4.393,4.393,0,0,0,2-.49,5.326,5.326,0,0,0,1.719-1.4l.41-.481.017-.053.018-.125Zm-17.686-2.761a4.355,4.355,0,0,1,2.778-1.656.525.525,0,0,1,.446.214.738.738,0,0,1,.2.516,4.239,4.239,0,0,1-1.746,2.948,9.077,9.077,0,0,1-4.185,2.092A11.621,11.621,0,0,1,2038.418,511.724ZM2005.23,503.4c-.231-.2-.5-.448-.81-.756a36.276,36.276,0,0,1,7.426-5.192,14.574,14.574,0,0,1,6.466-1.665,6.789,6.789,0,0,1,3.927,1,3.117,3.117,0,0,1,1.433,2.689,3.539,3.539,0,0,1-.6,1.95,7.717,7.717,0,0,1-1.942,1.915,13.45,13.45,0,0,1-4.087,2.075,15.678,15.678,0,0,1-4.782.739,9.126,9.126,0,0,1-2.743-.418,13.052,13.052,0,0,1-2.831-1.327,9.885,9.885,0,0,1,2.021-2.209,3.168,3.168,0,0,1,1.843-.784,3.051,3.051,0,0,1,1.381.455,2.192,2.192,0,0,0,1.467.4,1.068,1.068,0,0,0,.87-.989c.064-.629-.714-1.934-2.542-1.329a8.414,8.414,0,0,0-1.594.79,22.343,22.343,0,0,0-4.106,3.223A6.084,6.084,0,0,1,2005.23,503.4Zm11.8,13.727a9.884,9.884,0,0,1-1.87,1.689,2.949,2.949,0,0,1-1.514.6.756.756,0,0,1-.65-.3,1.353,1.353,0,0,1-.223-.818,6.522,6.522,0,0,1,.579-2.373,13.867,13.867,0,0,1,1.577-2.808,9.437,9.437,0,0,1,2.056-2.169,3.4,3.4,0,0,1,1.95-.773,1.142,1.142,0,0,1,.838.338,1,1,0,0,1,.356.8,6.1,6.1,0,0,1-.82,2.666,12.349,12.349,0,0,1-.988,1.582A18.893,18.893,0,0,1,2017.029,517.125Zm33.019.192a9.046,9.046,0,0,1-1.879,1.576,3.271,3.271,0,0,1-1.558.6,1.022,1.022,0,0,1-.855-.339,1.522,1.522,0,0,1-.267-.962,6.607,6.607,0,0,1,.534-2.369,12.846,12.846,0,0,1,1.5-2.707,10.669,10.669,0,0,1,1.995-2.217,2.908,2.908,0,0,1,1.727-.739,1.2,1.2,0,0,1,1.024.49,2.206,2.206,0,0,1,.366,1.344,6.01,6.01,0,0,1-.7,2.61A11.563,11.563,0,0,1,2050.048,517.317Z" fill="#fff"/>
          <path id="Tracé_194" data-name="Tracé 194" d="M2097.075,495.046a7.136,7.136,0,0,0-4.318-1.159c-.316,0-.733.011-.958.029a16.221,16.221,0,0,0-4.743,1.159,19.937,19.937,0,0,0-4.47,2.651q-.16-.713-.214-1.158l-.053-.89a5.8,5.8,0,0,1,1.472-4.07,4.781,4.781,0,0,1,3.684-1.611,4.478,4.478,0,0,1,3.1,1.076,3.571,3.571,0,0,1,1.133,1.958c.216-.015.425-.02.579-.021a4.515,4.515,0,0,0-1.4-2.47,5.473,5.473,0,0,0-3.7-1.273,6.547,6.547,0,0,0-4.844,2.047,6.809,6.809,0,0,0-2.013,4.952,5.873,5.873,0,0,0,.036.659c.023.213.059.445.107.694q.177.839.445,1.71a13.867,13.867,0,0,0-2.413,3.651,9.393,9.393,0,0,0-.775,3.758,7.4,7.4,0,0,0,.445,2.645,6.169,6.169,0,0,0,1.336,2.092,6.258,6.258,0,0,0,4.648,1.817,8.439,8.439,0,0,0,1.452-.152,18.125,18.125,0,0,0,1.932-.472,22.837,22.837,0,0,1-5.218,8.317,9.746,9.746,0,0,1-6.785,2.672,8.919,8.919,0,0,1-6.706-2.859,9.729,9.729,0,0,1-2.734-6.99,7.777,7.777,0,0,1,1.194-4.4,3.347,3.347,0,0,1,2.743-1.8q.48,0,1.264.98a2.129,2.129,0,0,0,1.585.979,1.4,1.4,0,0,0,1.059-.463,1.6,1.6,0,0,0,.437-1.14,1.635,1.635,0,0,0-.624-1.362,2.763,2.763,0,0,0-1.745-.489,6.54,6.54,0,0,0-5.164,2.876,10.608,10.608,0,0,0-2.281,6.794,8.125,8.125,0,0,0,2.584,6.322,9.837,9.837,0,0,0,6.891,2.351,14.9,14.9,0,0,0,9.324-3.25,29.668,29.668,0,0,0,7.684-9.84,11.844,11.844,0,0,0,3.394-2.342,3.628,3.628,0,0,0,1.237-2.36,1.488,1.488,0,0,0-.285-.97.939.939,0,0,0-.765-.347,4.967,4.967,0,0,0-3.224,1.727,18.47,18.47,0,0,0-3.348,4.72,7.18,7.18,0,0,1-1.452.5,6.43,6.43,0,0,1-1.4.16,4.8,4.8,0,0,1-3.624-1.415,5.206,5.206,0,0,1-1.362-3.767,10.12,10.12,0,0,1,.471-3.028,13.977,13.977,0,0,1,1.381-3.027,8.127,8.127,0,0,0,3.276,2.787,10.717,10.717,0,0,0,4.595.935,9.56,9.56,0,0,0,6.162-2.021,5.907,5.907,0,0,0,2.53-4.693A3.731,3.731,0,0,0,2097.075,495.046Zm-3.634,11.932q.65-.9,1.149-.9a.414.414,0,0,1,.321.2.831.831,0,0,1,.142.5,3.031,3.031,0,0,1-1.015,1.853,9.629,9.629,0,0,1-2.565,1.9A29.5,29.5,0,0,1,2093.441,506.978Zm2.386-4.7a8.5,8.5,0,0,1-5.3,1.715,9.01,9.01,0,0,1-4.648-1.2,6.226,6.226,0,0,1-2.8-3.143,13.256,13.256,0,0,1,1.82-1.906,12.825,12.825,0,0,1,2.087-1.443,11.733,11.733,0,0,1,3.782-1.366l-.007-.011c.342-.059.663-.1.968-.128h0c.226-.023.44-.04.64-.051h.005c.206-.011.4-.018.57-.021l.212-.008c.043,0,.08.007.123.008.44.005.709.031.709.031l-.034.009a5.331,5.331,0,0,1,2.782.965,3.191,3.191,0,0,1,1.335,2.667A4.876,4.876,0,0,1,2095.827,502.28Z" fill="#fff"/>
        </g>
        <g id="Groupe_254" data-name="Groupe 254">
          <g id="Groupe_252" data-name="Groupe 252">
            <g id="Groupe_251" data-name="Groupe 251">
              <path id="Tracé_195" data-name="Tracé 195" d="M1937.838,463.5c2.229-.076,4.458-.176,6.688-.223,7.979-.167,15.958-.371,23.938-.453a72.984,72.984,0,0,1,18.561,2.442c.768.193,1.535.39,2.3.6a3.66,3.66,0,0,1,.843.307c.842.478.926,1.107.227,1.773a3.161,3.161,0,0,1-3.231.578,48.244,48.244,0,0,0-11.784-1.929c-4.313-.067-8.632.11-12.945.277-6.32.244-12.626.349-18.855-1A14.782,14.782,0,0,1,1937.838,463.5Z" fill="#fff"/>
              <path id="Tracé_196" data-name="Tracé 196" d="M1959.143,467.876a7.832,7.832,0,0,1,.879.119.834.834,0,0,1,.75,1.031c-.855,8.38-2.283,16.632-5.415,24.507a22.758,22.758,0,0,1-1.191,2.609c-.2.357-.638.579-.969.862a5.193,5.193,0,0,1-.991-1.22,2.218,2.218,0,0,1,.113-1.277,121.472,121.472,0,0,0,3.467-16.86c.333-2.575.544-5.167.751-7.756.121-1.511.254-1.724,1.773-1.955C1958.553,467.9,1958.8,467.9,1959.143,467.876Z" fill="#fff"/>
              <path id="Tracé_197" data-name="Tracé 197" d="M2001.162,479l3.035,3.814c-1.3.391-1.847.242-2.624-.73-1.042-1.3-2.071-2.617-3.1-3.929-.027-.035-.013-.1-.029-.248.8-.046,1.6-.073,2.4-.144a5.025,5.025,0,0,0,3.337-1.376c1.254-1.3.891-2.96-.873-3.306a29.739,29.739,0,0,0-4.888-.3c-.163-.005-.43.363-.494.6-.753,2.8-1.476,5.6-2.21,8.4-.352,1.344-.4,1.372-1.9,1.072q1.087-4.2,2.175-8.4c.192-.741.351-1.494.6-2.214a.917.917,0,0,1,.638-.538c2.022.007,4.048.008,6.064.145a2.983,2.983,0,0,1,1.322,5.771A27.028,27.028,0,0,1,2001.162,479Z" fill="#fff"/>
              <path id="Tracé_198" data-name="Tracé 198" d="M1974.3,477.7c-2.648,0-5.132-.015-7.615.027-.2,0-.51.36-.584.608-.336,1.124-.591,2.272-.9,3.4-.367,1.328-.38,1.325-1.914,1.169.383-1.5.758-3,1.144-4.488q.738-2.856,1.492-5.708c.306-1.151.452-1.22,1.837-.886l-1.18,4.707a6.648,6.648,0,0,0,.7.082c2.215,0,4.429-.015,6.644.012a.728.728,0,0,0,.849-.651c.249-1.064.53-2.12.806-3.178.32-1.23.414-1.281,1.873-1-.2.815-.387,1.629-.595,2.438-.7,2.7-1.412,5.391-2.092,8.093-.288,1.145-1.129.438-1.818.7Z" fill="#fff"/>
              <path id="Tracé_199" data-name="Tracé 199" d="M1985.679,476.719h6.662c.038.789-.153,1.17-.995,1.142-1.749-.059-3.5,0-5.254-.026-.519-.006-.778.13-.893.688-.224,1.088-.546,2.155-.855,3.335h6.847c.1.749-.017,1.143-.85,1.131-2.6-.037-5.193-.014-7.907-.014.268-1.081.5-2.077.762-3.067.663-2.54,1.324-5.08,2.021-7.61.066-.238.377-.582.578-.585,2.627-.035,5.254-.018,7.881-.008.071,0,.141.063.219.1.039.745-.289.983-1.025.964-1.832-.047-3.667,0-5.5-.022-.48-.006-.731.107-.841.633C1986.3,474.469,1985.984,475.54,1985.679,476.719Z" fill="#fff"/>
              <path id="Tracé_200" data-name="Tracé 200" d="M2008.025,479.774c.145,1.624.8,2.22,2.378,2.279a4.319,4.319,0,0,0,3.511-1.26,1.519,1.519,0,0,0-.462-2.666,15.937,15.937,0,0,0-2.18-.691c-.549-.165-1.121-.269-1.648-.485-1.478-.6-1.94-1.886-.992-3.172a6.02,6.02,0,0,1,2.122-1.7,5.835,5.835,0,0,1,4.7-.238,2.447,2.447,0,0,1,1.623,1.619c.261.863.039,1.146-.859,1.14-.189,0-.378-.019-.638-.033a1.905,1.905,0,0,0-1.813-1.952,3.666,3.666,0,0,0-3.487,1.2,1.209,1.209,0,0,0,.494,2.106,16.164,16.164,0,0,0,1.963.573,16.7,16.7,0,0,1,1.653.467,2.442,2.442,0,0,1,1,4.162,6.831,6.831,0,0,1-7.63,1.44,2.274,2.274,0,0,1-1.343-1.834c-.071-.686.066-1.144.906-1A6.373,6.373,0,0,0,2008.025,479.774Z" fill="#fff"/>
              <path id="Tracé_201" data-name="Tracé 201" d="M1934.815,481.858l-.291,1.067h-8.089c.51-1.992,1-3.917,1.5-5.841.361-1.4.735-2.8,1.092-4.2.337-1.325.36-1.346,1.909-1.094l-2.588,10.066Z" fill="#fff"/>
              <path id="Tracé_202" data-name="Tracé 202" d="M1979.389,482.931h-1.619c.381-1.488.742-2.909,1.11-4.328.487-1.879.994-3.753,1.468-5.635.355-1.409.337-1.414,1.93-1.188Q1980.831,477.369,1979.389,482.931Z" fill="#fff"/>
              <path id="Tracé_203" data-name="Tracé 203" d="M1937.661,478.819h4.391c.1.611-.195.7-.642.694-1.12-.016-2.241.008-3.361-.01-.421-.007-.643.114-.728.564-.129.686-.335,1.358-.54,2.162h4.493l.154.245c-.184.167-.365.475-.553.479-1.769.037-3.54.022-5.4.022.527-2.045,1.017-4,1.535-5.942.437-1.638.451-1.634,2.189-1.635h3.826c.2.635-.112.745-.558.745-1.148,0-2.3.019-3.443-.006-.487-.011-.748.125-.841.641C1938.064,477.415,1937.864,478.036,1937.661,478.819Z" fill="#fff"/>
            </g>
          </g>
          <g id="Groupe_253" data-name="Groupe 253">
            <path id="Tracé_204" data-name="Tracé 204" d="M2021.676,473.468a1.742,1.742,0,1,1-1.736-1.695A1.7,1.7,0,0,1,2021.676,473.468Zm-3.049,0a1.314,1.314,0,0,0,1.323,1.354,1.3,1.3,0,0,0,1.292-1.343,1.308,1.308,0,1,0-2.615-.011Zm1.044.889h-.393v-1.694a3.339,3.339,0,0,1,.652-.053,1.06,1.06,0,0,1,.589.125.47.47,0,0,1,.165.372.433.433,0,0,1-.351.392v.021a.5.5,0,0,1,.31.413,1.283,1.283,0,0,0,.124.424h-.424a1.477,1.477,0,0,1-.135-.414c-.03-.186-.133-.268-.351-.268h-.186Zm.011-.961h.185c.218,0,.393-.072.393-.248,0-.155-.113-.258-.361-.258a.964.964,0,0,0-.217.02Z" fill="#fff"/>
          </g>
        </g>
        <g id="Groupe_255" data-name="Groupe 255">
          <path id="Tracé_205" data-name="Tracé 205" d="M1961.986,499.339l1.185-6.23c.122-.708.244-1.5.33-2.1h.928l-.171,1.113h.025a2.672,2.672,0,0,1,2.125-1.246c1.283,0,1.82,1.05,1.82,2.137,0,2.077-1.49,4.044-3.456,4.044a2.6,2.6,0,0,1-1.283-.269h-.025l-.476,2.553Zm1.661-3.409a1.786,1.786,0,0,0,1.125.331c1.306,0,2.406-1.626,2.406-3.176,0-.624-.281-1.369-1.137-1.369-.793,0-1.8.917-2.1,2.566Z" fill="#fff"/>
          <path id="Tracé_206" data-name="Tracé 206" d="M1972.845,496.92a15.1,15.1,0,0,1,.135-1.527h-.025a2.59,2.59,0,0,1-2.3,1.662,1.753,1.753,0,0,1-1.7-1.955,4.129,4.129,0,0,1,4.093-4.226,5.53,5.53,0,0,1,1.588.232l-.6,3.078a13.435,13.435,0,0,0-.257,2.736Zm.66-5.155a2.732,2.732,0,0,0-.708-.085,3.154,3.154,0,0,0-2.786,3.236c0,.661.232,1.308,1.014,1.308.842,0,1.844-1.1,2.138-2.675Z" fill="#fff"/>
          <path id="Tracé_207" data-name="Tracé 207" d="M1975.3,496.92l.721-3.811c.147-.77.244-1.552.306-2.1h.891c-.048.416-.1.831-.158,1.283h.036a2.137,2.137,0,0,1,1.809-1.416,2.024,2.024,0,0,1,.28.024l-.195,1a1.464,1.464,0,0,0-.269-.025c-.879,0-1.661,1.062-1.918,2.443l-.489,2.6Z" fill="#fff"/>
        </g>
      </g>
    </g>
  </g>
</svg>
