<svg xmlns="http://www.w3.org/2000/svg" width="246.416" height="65.502" viewBox="0 0 246.416 65.502">
  <g id="mg-logo" transform="translate(-1918.763 -221.91)">
    <g id="Groupe_272" data-name="Groupe 272">
      <g id="Groupe_271" data-name="Groupe 271">
        <g id="Groupe_265" data-name="Groupe 265">
          <g id="Groupe_264" data-name="Groupe 264">
            <g id="Groupe_263" data-name="Groupe 263">
              <path id="Tracé_214" data-name="Tracé 214" d="M2106.475,274.29l1.595-2.322,2.563-.151-4.272,6.687a23.056,23.056,0,0,0-1.2,2.041,2.887,2.887,0,0,0-.246.982.6.6,0,0,0,.113.4.63.63,0,0,0,.475.132,3.173,3.173,0,0,0,1.585-.8,25.048,25.048,0,0,0,2.611-2.413l1.044-1.117a2.56,2.56,0,0,1,.74-.662.257.257,0,0,1,.171.038l.057.113a1.511,1.511,0,0,1-.437.738q-.3.36-.55.625t-.8.814a21.474,21.474,0,0,1-3.028,2.734,3.409,3.409,0,0,1-1.831.635,1.454,1.454,0,0,1-1.187-.493,2.2,2.2,0,0,1-.408-1.438v-.549c.031-.214.051-.353.059-.416a5.027,5.027,0,0,1,.131-.511,12.455,12.455,0,0,1-2.573,2.545,4.148,4.148,0,0,1-2.326.862,1.875,1.875,0,0,1-1.651-1.042,4.65,4.65,0,0,1-.437-1.249,8.134,8.134,0,0,1-.151-1.665l.057-.908a4.8,4.8,0,0,1,.189-.89,2.206,2.206,0,0,1-.208.3,3.1,3.1,0,0,1-.228.265.659.659,0,0,1-.361.189.261.261,0,0,1-.171-.038l-.057-.113q0-.17.494-.736l1.328-1.434a16.221,16.221,0,0,1,3.646-2.792,7.155,7.155,0,0,1,3.36-1,2.179,2.179,0,0,1,1.49.491,1.646,1.646,0,0,1,.56,1.3v.4Zm-8.315,6.576a1.427,1.427,0,0,0,.238.869.806.806,0,0,0,.692.321,3.151,3.151,0,0,0,1.614-.642,10.482,10.482,0,0,0,1.993-1.8,20.108,20.108,0,0,0,1.377-1.662,13.048,13.048,0,0,0,1.053-1.681,6.461,6.461,0,0,0,.874-2.833,1.061,1.061,0,0,0-.38-.851,1.215,1.215,0,0,0-.892-.358,3.629,3.629,0,0,0-2.079.822,10.037,10.037,0,0,0-2.193,2.3,14.751,14.751,0,0,0-1.68,2.984A6.926,6.926,0,0,0,2098.16,280.866Z" fill="#03456f"/>
              <path id="Tracé_215" data-name="Tracé 215" d="M2114.79,274.069l-2.164,2.385q-1.121,1.307-1.329,1.306l-.133-.038-.056-.114a.807.807,0,0,1,.189-.416l.7-.872,1.231-1.345q1.233-1.326,2.122-2.368,1.023-1.174,1.251-1.516l7.679-11.861,2.525-.339-11.978,18.945q-1.1,1.722-1.575,2.611a2.719,2.719,0,0,0-.323,1.041.844.844,0,0,0,.19.53.828.828,0,0,0,.512.208,2.949,2.949,0,0,0,1.576-.6,26.256,26.256,0,0,0,3.094-2.791l1.026-1.1q.569-.681.759-.681l.152.057.076.132a1.135,1.135,0,0,1-.323.577q-.324.389-1.462,1.562a23.683,23.683,0,0,1-2.942,2.659,3.32,3.32,0,0,1-1.8.71,1.929,1.929,0,0,1-1.528-.663,2.6,2.6,0,0,1-.579-1.779q0-1.533,2.81-5.753Z" fill="#03456f"/>
              <path id="Tracé_216" data-name="Tracé 216" d="M2123.352,274.069l-2.164,2.385q-1.121,1.307-1.329,1.306l-.133-.038-.056-.114a.808.808,0,0,1,.189-.416l.7-.872,1.231-1.345q1.233-1.326,2.122-2.368,1.023-1.174,1.251-1.516l7.679-11.861,2.525-.339-11.977,18.945q-1.1,1.722-1.576,2.611a2.719,2.719,0,0,0-.323,1.041.845.845,0,0,0,.19.53.832.832,0,0,0,.512.208,2.949,2.949,0,0,0,1.576-.6,26.256,26.256,0,0,0,3.094-2.791l1.026-1.1q.569-.681.759-.681l.152.057.076.132a1.135,1.135,0,0,1-.323.577q-.324.389-1.462,1.562a23.683,23.683,0,0,1-2.942,2.659,3.32,3.32,0,0,1-1.8.71,1.929,1.929,0,0,1-1.528-.663,2.6,2.6,0,0,1-.579-1.779q0-1.533,2.81-5.753Z" fill="#03456f"/>
              <path id="Tracé_217" data-name="Tracé 217" d="M2138.179,279.2l-.057.1a5.682,5.682,0,0,0-1.025,2.2.78.78,0,0,0,.152.53.578.578,0,0,0,.456.171,2.871,2.871,0,0,0,1.509-.786,35.8,35.8,0,0,0,2.7-2.526l1.025-1.136q.57-.681.76-.681l.152.057.075.094a1.291,1.291,0,0,1-.3.558,16.937,16.937,0,0,1-1.214,1.354,26.076,26.076,0,0,1-2.924,2.725,3.607,3.607,0,0,1-1.822.909,1.6,1.6,0,0,1-1.329-.72,3.426,3.426,0,0,1-.494-1.911l.076-.473.076-.644a18.607,18.607,0,0,1-2.886,2.782,4.023,4.023,0,0,1-2.2.966,1.967,1.967,0,0,1-1.557-.673,2.586,2.586,0,0,1-.588-1.769q0-1.533,2.867-5.81l.284-.417q-.57.568-1.044,1.079-.588.624-1.139,1.249-1.139,1.307-1.347,1.306l-.133-.019-.057-.1a6.378,6.378,0,0,1,1.233-1.627q1.14-1.324,3.7-3.994l2.791-.151-3.854,6-.246.4a10.2,10.2,0,0,0-1.652,3.255.715.715,0,0,0,.161.464.682.682,0,0,0,.465.237q1.539,0,4.044-2.688a45.18,45.18,0,0,0,5.391-7.514l2.62-.151Z" fill="#03456f"/>
              <path id="Tracé_218" data-name="Tracé 218" d="M2154.02,274.282l8.633-15.276,2.526-.115-10.617,18.358q-.892,1.545-1.461,2.747a4.188,4.188,0,0,0-.456,1.526.534.534,0,0,0,.17.382.964.964,0,0,0,.456.152,3.64,3.64,0,0,0,1.548-.934,30.948,30.948,0,0,0,2.686-2.537l.8-.877q.588-.648.721-.648a.254.254,0,0,1,.171.038l.057.113a1.507,1.507,0,0,1-.436.738q-.3.36-.551.625t-.8.814a21.458,21.458,0,0,1-3.028,2.734,3.411,3.411,0,0,1-1.832.635,1.456,1.456,0,0,1-1.187-.493,2.2,2.2,0,0,1-.408-1.438v-.549c.032-.214.052-.353.059-.416s.052-.234.131-.511a12.408,12.408,0,0,1-2.573,2.545,4.142,4.142,0,0,1-2.325.862,1.878,1.878,0,0,1-1.652-1.042,4.633,4.633,0,0,1-.436-1.249,8.06,8.06,0,0,1-.152-1.665l.057-.908a4.763,4.763,0,0,1,.19-.89,2.134,2.134,0,0,1-.209.3,2.97,2.97,0,0,1-.228.265.659.659,0,0,1-.361.189.257.257,0,0,1-.17-.038l-.057-.114q0-.17.493-.738l1.329-1.438a16.2,16.2,0,0,1,3.645-2.8,7.129,7.129,0,0,1,3.36-1,2.184,2.184,0,0,1,1.49.489,1.637,1.637,0,0,1,.561,1.3,2.581,2.581,0,0,1-.024.394Zm-8.324,6.582a1.433,1.433,0,0,0,.238.87.806.806,0,0,0,.693.322,3.145,3.145,0,0,0,1.614-.643,10.528,10.528,0,0,0,1.993-1.8,20.14,20.14,0,0,0,1.376-1.666,13.087,13.087,0,0,0,1.054-1.684,6.479,6.479,0,0,0,.873-2.839,1.064,1.064,0,0,0-.38-.852,1.216,1.216,0,0,0-.892-.359,3.624,3.624,0,0,0-2.079.823,10.068,10.068,0,0,0-2.192,2.309,14.782,14.782,0,0,0-1.681,2.99A6.947,6.947,0,0,0,2145.7,280.864Z" fill="#03456f"/>
            </g>
          </g>
          <path id="Tracé_219" data-name="Tracé 219" d="M2056.984,276.814l-.114-.057-.19.038-.133.076-.494.586a6.24,6.24,0,0,1-1.642,1.259,3.509,3.509,0,0,1-1.585.444l-.455-.075-.171-.038a13.4,13.4,0,0,0,1.623-2.583,5.206,5.206,0,0,0,.5-2.111,2.82,2.82,0,0,0-.731-2.044,2.583,2.583,0,0,0-1.946-.757,6.566,6.566,0,0,0-3.284,1.07,15.993,15.993,0,0,0-3.55,2.961l-1.31,1.5c-.045.062-.066.1-.1.15a7.832,7.832,0,0,0-.641.664q-.36.416-.712.785t-.655.672a13.9,13.9,0,0,1-2.658,2.176,4.268,4.268,0,0,1-2.126.663,1.421,1.421,0,0,1-1.148-.483,1.967,1.967,0,0,1-.408-1.315l.038-.529.151-1.02a16.66,16.66,0,0,0,5.724-2.351q2.1-1.482,2.1-3.05a1.605,1.605,0,0,0-.6-1.293,2.329,2.329,0,0,0-1.547-.5,7.071,7.071,0,0,0-3.493,1.066,15.4,15.4,0,0,0-3.607,2.953q-.721.773-1.12,1.283c-.063.08-.094.128-.142.194a4.336,4.336,0,0,0-.656.636q-.285.341-.532.605t-.436.455a26.049,26.049,0,0,1-2.905,2.687,3.015,3.015,0,0,1-1.651.7.611.611,0,0,1-.465-.217.745.745,0,0,1-.2-.521,3.447,3.447,0,0,1,.456-1.277q.454-.9,1.367-2.375l5.818-9.255h4.491l.3-.549h-4.45l2.487-3.937-2.522.18-2.369,3.769-1.914-.012-.326.549h1.88l-1.69,2.517a27.526,27.526,0,0,1-3.218,3.757,22.97,22.97,0,0,0-2.042,2.28,4.7,4.7,0,0,0-.606.587l-1.044,1.117a25.079,25.079,0,0,1-2.61,2.413,3.18,3.18,0,0,1-1.585.8.628.628,0,0,1-.475-.132.593.593,0,0,1-.114-.4,2.87,2.87,0,0,1,.247-.982,22.823,22.823,0,0,1,1.2-2.041l4.271-6.687-2.563.151-1.594,2.322.152-.453v-.4a1.644,1.644,0,0,0-.561-1.3,2.18,2.18,0,0,0-1.49-.491,7.144,7.144,0,0,0-3.36,1,16.227,16.227,0,0,0-3.645,2.792l-1.329,1.434a3.571,3.571,0,0,0-.436.58c-.059.064-.121.132-.19.212l-.873.985a12.866,12.866,0,0,1-2.763,2.242,4.972,4.972,0,0,1-2.25.862,1.982,1.982,0,0,1-1.822-1.127,6.6,6.6,0,0,1-.626-3.17,16.166,16.166,0,0,1,1.034-5.64,18.184,18.184,0,0,1,2.971-5.186,18.809,18.809,0,0,0,4.1,1.912,12.61,12.61,0,0,0,3.7.568,13.15,13.15,0,0,0,8.353-3.047,8.789,8.789,0,0,0,2.2-2.536A5.477,5.477,0,0,0,2023,260.9a4.444,4.444,0,0,0-2.316-3.776,10.369,10.369,0,0,0-5.81-1.523,15.37,15.37,0,0,0-7.09,1.788,27.181,27.181,0,0,0-7.015,5.46,11.918,11.918,0,0,1-2.04-5.084q-.466-2.869-.732-2.869a.528.528,0,0,0-.417.226,1.177,1.177,0,0,0-.114.588,11.246,11.246,0,0,0,.807,3.767,14.927,14.927,0,0,0,2.059,3.861,62.767,62.767,0,0,0-4.157,5.472q-2.088,3.1-4.272,7.022a46.26,46.26,0,0,0,1.823-6.656,32.7,32.7,0,0,0,.626-6.163,9.451,9.451,0,0,0-1.679-6,5.666,5.666,0,0,0-4.7-2.114,8.745,8.745,0,0,0-3.189.636,11.518,11.518,0,0,0-3.067,1.794,8.581,8.581,0,0,0-2.24,2.7,6.637,6.637,0,0,0-.807,3.114,4.387,4.387,0,0,0,1.2,3.2,4.183,4.183,0,0,0,3.133,1.225,5.1,5.1,0,0,0,1.908-.36,6.712,6.712,0,0,0,1.775-1.079q1.708-1.476,1.708-2.63l-.075-.152a.26.26,0,0,0-.19-.075c-.076.012-.216.189-.418.53q-1.728,2.763-3.968,2.763a2.538,2.538,0,0,1-2.183-1.169,5.4,5.4,0,0,1-.816-3.144,6.5,6.5,0,0,1,2-4.8,6.436,6.436,0,0,1,4.679-1.986,3.658,3.658,0,0,1,3.1,1.451,6.646,6.646,0,0,1,1.09,4.066,17.608,17.608,0,0,1-1.376,6.493,26.611,26.611,0,0,1-3.787,6.549,20.952,20.952,0,0,1-6.094,5.5,13.646,13.646,0,0,1-3.312,1.365,14.041,14.041,0,0,1-3.542.436,10.268,10.268,0,0,1-7.317-2.735,8.839,8.839,0,0,1-2.915-6.709,6.476,6.476,0,0,1,2.012-4.845,6.85,6.85,0,0,1,4.955-1.949,6.215,6.215,0,0,1,4.538,1.769,5.963,5.963,0,0,1,1.8,4.438,5.124,5.124,0,0,1-.542,2.366,3.507,3.507,0,0,1-1.453,1.552,4.557,4.557,0,0,1-.74.341q-.607.283-.607.473a.224.224,0,0,0,.057.179.52.52,0,0,0,.285.048q1.555,0,3.246-2.016a6.686,6.686,0,0,0,1.69-4.381,5.811,5.811,0,0,0-1.813-4.372,6.377,6.377,0,0,0-4.6-1.741,9.96,9.96,0,0,0-7.252,3,9.736,9.736,0,0,0-3.038,7.182,8.352,8.352,0,0,0,2.649,6.416,9.787,9.787,0,0,0,6.939,2.46,18.5,18.5,0,0,0,8.931-2.659,30.713,30.713,0,0,0,8.534-7.106,24.012,24.012,0,0,0,2.9-4.467q.645-1.268,1.159-2.583a25.908,25.908,0,0,0,.873-2.66,28.909,28.909,0,0,1-.247,3.672q-.246,1.931-.664,3.842a30.77,30.77,0,0,1-2.2,6.624,17.024,17.024,0,0,0-2.23,2.669,4.148,4.148,0,0,0-.845,2.006.907.907,0,0,0,.911.908q.759,0,1.481-1.192a12.642,12.642,0,0,0,1.272-3.426,50.83,50.83,0,0,1,4.528-7.229,54.988,54.988,0,0,1,5.7-6.492l.759.7.835.663a23.885,23.885,0,0,0-4.328,5.962,13,13,0,0,0-1.481,5.734,6.1,6.1,0,0,0,1,3.662,3,3,0,0,0,2.516,1.372,6.438,6.438,0,0,0,2.943-.8,17.8,17.8,0,0,0,3.436-2.451,12.118,12.118,0,0,0,1.386-1.419,6.218,6.218,0,0,0,.424-.579c.058-.061.123-.134.2-.235a2.128,2.128,0,0,0,.208-.3,4.782,4.782,0,0,0-.189.89l-.057.908a8.069,8.069,0,0,0,.152,1.665,4.67,4.67,0,0,0,.436,1.25,1.879,1.879,0,0,0,1.652,1.041,4.145,4.145,0,0,0,2.325-.862,12.437,12.437,0,0,0,2.573-2.545c-.079.277-.123.448-.131.511s-.027.2-.059.416v.549a2.2,2.2,0,0,0,.408,1.438,1.455,1.455,0,0,0,1.187.493,3.417,3.417,0,0,0,1.832-.634,21.556,21.556,0,0,0,3.028-2.735q.551-.549.8-.814t.551-.625a2.961,2.961,0,0,0,.351-.488,13.979,13.979,0,0,0,.978-1.026q1.043-1.192,2.221-2.366l-.456.72q-2.7,4.05-2.7,5.526a2.607,2.607,0,0,0,.579,1.779,1.932,1.932,0,0,0,1.528.663,3.315,3.315,0,0,0,1.8-.71,23.684,23.684,0,0,0,2.943-2.659q1.138-1.174,1.461-1.562a2.167,2.167,0,0,0,.225-.315l.5-.565-.171.852-.057.776a4.677,4.677,0,0,0,.94,2.99,2.89,2.89,0,0,0,2.363,1.193,5.007,5.007,0,0,0,2.478-.729,15.264,15.264,0,0,0,3.009-2.451q1.272-1.287,1.623-1.722a2.959,2.959,0,0,0,.268-.381l.463-.528a8.253,8.253,0,0,0-.237.965,4.031,4.031,0,0,0-.067.521v.293a5.507,5.507,0,0,0,.675,2.991,2.162,2.162,0,0,0,1.926,1.041,3.485,3.485,0,0,0,1.149-.209,6.625,6.625,0,0,0,1.272-.624,12.151,12.151,0,0,0,1.376-1,14.418,14.418,0,0,0,1.348-1.287,1.164,1.164,0,0,0,.342.038l.531.018a4.7,4.7,0,0,0,2.136-.52,5.68,5.68,0,0,0,1.832-1.486l.437-.511.019-.056.019-.133Zm-18.852-2.934q1.709-1.76,2.961-1.76a.56.56,0,0,1,.475.227.782.782,0,0,1,.209.549,4.5,4.5,0,0,1-1.86,3.132,9.687,9.687,0,0,1-4.462,2.224A12.339,12.339,0,0,1,2038.132,273.88Zm-35.377-8.848q-.37-.312-.864-.8a38.712,38.712,0,0,1,7.916-5.517,15.575,15.575,0,0,1,6.892-1.77,7.25,7.25,0,0,1,4.186,1.06,3.308,3.308,0,0,1,1.528,2.858,3.749,3.749,0,0,1-.645,2.072,8.2,8.2,0,0,1-2.07,2.035,14.373,14.373,0,0,1-4.357,2.2,16.747,16.747,0,0,1-5.1.785,9.758,9.758,0,0,1-2.923-.444,13.868,13.868,0,0,1-3.018-1.411,10.508,10.508,0,0,1,2.154-2.346,3.381,3.381,0,0,1,1.965-.833,3.253,3.253,0,0,1,1.471.483,2.347,2.347,0,0,0,1.564.421,1.135,1.135,0,0,0,.928-1.05c.068-.668-.761-2.056-2.71-1.412a8.944,8.944,0,0,0-1.7.839,23.755,23.755,0,0,0-4.376,3.425A6.379,6.379,0,0,1,2002.755,265.032Zm12.577,14.587a10.481,10.481,0,0,1-1.994,1.8,3.144,3.144,0,0,1-1.614.642.807.807,0,0,1-.692-.321,1.434,1.434,0,0,1-.237-.869,6.907,6.907,0,0,1,.617-2.522,14.684,14.684,0,0,1,1.68-2.984,10.039,10.039,0,0,1,2.192-2.3,3.633,3.633,0,0,1,2.079-.821,1.212,1.212,0,0,1,.892.359,1.058,1.058,0,0,1,.38.85,6.458,6.458,0,0,1-.873,2.833,13.043,13.043,0,0,1-1.054,1.681A19.918,19.918,0,0,1,2015.332,279.619Zm35.2.2a9.623,9.623,0,0,1-2,1.675,3.492,3.492,0,0,1-1.661.634,1.092,1.092,0,0,1-.911-.36,1.609,1.609,0,0,1-.285-1.022,7.008,7.008,0,0,1,.569-2.517,13.647,13.647,0,0,1,1.595-2.877A11.331,11.331,0,0,1,2049.96,273a3.1,3.1,0,0,1,1.841-.785,1.286,1.286,0,0,1,1.092.52,2.351,2.351,0,0,1,.389,1.429,6.367,6.367,0,0,1-.75,2.773A12.314,12.314,0,0,1,2050.529,279.823Z" fill="#03456f"/>
          <path id="Tracé_220" data-name="Tracé 220" d="M2100.657,256.156a7.618,7.618,0,0,0-4.6-1.231c-.337,0-.781.011-1.021.03a17.348,17.348,0,0,0-5.056,1.232,21.259,21.259,0,0,0-4.765,2.817c-.114-.5-.19-.915-.228-1.23l-.057-.946a6.153,6.153,0,0,1,1.57-4.325,5.1,5.1,0,0,1,3.927-1.712,4.778,4.778,0,0,1,3.3,1.144,3.786,3.786,0,0,1,1.207,2.08c.23-.016.454-.021.618-.022a4.8,4.8,0,0,0-1.491-2.625,5.849,5.849,0,0,0-3.949-1.353,6.991,6.991,0,0,0-5.164,2.176,7.222,7.222,0,0,0-2.145,5.261,6.382,6.382,0,0,0,.038.7q.037.34.114.738.189.89.475,1.817a14.746,14.746,0,0,0-2.573,3.88,9.954,9.954,0,0,0-.825,3.993,7.823,7.823,0,0,0,.474,2.81,6.541,6.541,0,0,0,1.424,2.224,6.681,6.681,0,0,0,4.955,1.931,9.044,9.044,0,0,0,1.547-.161,19.726,19.726,0,0,0,2.06-.5q-2.45,6-5.563,8.839a10.4,10.4,0,0,1-7.232,2.838,9.519,9.519,0,0,1-7.148-3.037,10.324,10.324,0,0,1-2.914-7.428,8.249,8.249,0,0,1,1.272-4.675,3.567,3.567,0,0,1,2.923-1.912q.513,0,1.348,1.041a2.274,2.274,0,0,0,1.69,1.041A1.5,1.5,0,0,0,2076,271.1a1.7,1.7,0,0,0,.466-1.211,1.737,1.737,0,0,0-.665-1.448,2.952,2.952,0,0,0-1.861-.52q-3.075,0-5.505,3.056a11.256,11.256,0,0,0-2.43,7.22,8.625,8.625,0,0,0,2.753,6.719,10.516,10.516,0,0,0,7.347,2.5,15.916,15.916,0,0,0,9.938-3.454,31.528,31.528,0,0,0,8.191-10.456,12.632,12.632,0,0,0,3.617-2.489,3.852,3.852,0,0,0,1.319-2.508,1.577,1.577,0,0,0-.3-1.031,1,1,0,0,0-.815-.369,5.305,5.305,0,0,0-3.437,1.835,19.636,19.636,0,0,0-3.568,5.016,7.665,7.665,0,0,1-1.548.53,6.923,6.923,0,0,1-1.49.17,5.121,5.121,0,0,1-3.863-1.5,5.52,5.52,0,0,1-1.453-4,10.746,10.746,0,0,1,.5-3.218,14.852,14.852,0,0,1,1.472-3.217,8.649,8.649,0,0,0,3.493,2.962,11.449,11.449,0,0,0,4.9.993,10.208,10.208,0,0,0,6.568-2.148,6.271,6.271,0,0,0,2.7-4.987A3.96,3.96,0,0,0,2100.657,256.156Zm-3.873,12.68q.693-.955,1.225-.955a.439.439,0,0,1,.342.208.878.878,0,0,1,.151.53,3.215,3.215,0,0,1-1.082,1.968,10.25,10.25,0,0,1-2.734,2.025A31.413,31.413,0,0,1,2096.784,268.836Zm2.544-4.993a9.074,9.074,0,0,1-5.648,1.823,9.625,9.625,0,0,1-4.954-1.277,6.618,6.618,0,0,1-2.981-3.341,14.138,14.138,0,0,1,1.94-2.025,13.689,13.689,0,0,1,2.225-1.533,12.531,12.531,0,0,1,4.031-1.452l-.008-.012c.366-.062.707-.1,1.033-.135h0c.242-.024.469-.042.683-.054h.005c.22-.012.424-.019.608-.022l.226-.008c.046,0,.085.007.13.008.469.006.756.033.756.033l-.035.009a5.69,5.69,0,0,1,2.965,1.026,3.386,3.386,0,0,1,1.423,2.834A5.176,5.176,0,0,1,2099.328,263.843Z" fill="#03456f"/>
        </g>
        <g id="Groupe_269" data-name="Groupe 269">
          <g id="Groupe_267" data-name="Groupe 267">
            <g id="Groupe_266" data-name="Groupe 266">
              <path id="Tracé_221" data-name="Tracé 221" d="M1930.917,222.631c2.377-.08,4.753-.186,7.13-.236,8.505-.177,17.01-.4,25.517-.482a78.022,78.022,0,0,1,19.785,2.6c.819.205,1.637.415,2.451.637a3.965,3.965,0,0,1,.9.327c.9.508.987,1.177.243,1.885a3.383,3.383,0,0,1-3.445.614,51.551,51.551,0,0,0-12.562-2.051c-4.6-.07-9.2.117-13.8.295-6.736.259-13.459.371-20.1-1.065A15.8,15.8,0,0,1,1930.917,222.631Z" fill="#03456f"/>
              <path id="Tracé_222" data-name="Tracé 222" d="M1953.627,227.283a8.087,8.087,0,0,1,.938.126.887.887,0,0,1,.8,1.1c-.911,8.906-2.434,17.675-5.772,26.043a24.213,24.213,0,0,1-1.269,2.773c-.21.379-.681.615-1.033.916a5.507,5.507,0,0,1-1.057-1.3,2.351,2.351,0,0,1,.121-1.357,128.519,128.519,0,0,0,3.695-17.916c.356-2.737.58-5.491.8-8.243.129-1.6.271-1.832,1.89-2.077C1953,227.308,1953.263,227.308,1953.627,227.283Z" fill="#03456f"/>
              <path id="Tracé_223" data-name="Tracé 223" d="M1998.418,239.108l3.236,4.053c-1.39.416-1.969.257-2.8-.777-1.111-1.384-2.208-2.78-3.307-4.174-.029-.038-.014-.109-.031-.263.856-.05,1.71-.079,2.56-.154a5.36,5.36,0,0,0,3.557-1.462c1.337-1.376.95-3.146-.93-3.514a31.881,31.881,0,0,0-5.21-.313c-.175-.005-.459.385-.527.637-.8,2.972-1.573,5.953-2.356,8.931-.375,1.428-.431,1.458-2.023,1.139q1.16-4.467,2.319-8.928c.2-.787.373-1.587.644-2.351a.974.974,0,0,1,.68-.573c2.155.008,4.314.009,6.463.155a3.169,3.169,0,0,1,1.41,6.132A28.928,28.928,0,0,1,1998.418,239.108Z" fill="#03456f"/>
              <path id="Tracé_224" data-name="Tracé 224" d="M1969.787,237.726c-2.823,0-5.471-.016-8.118.029-.217,0-.543.382-.622.645-.358,1.2-.63,2.415-.963,3.618-.391,1.412-.4,1.408-2.04,1.243.408-1.6.809-3.186,1.219-4.77q.788-3.034,1.591-6.066c.326-1.223.482-1.3,1.958-.942l-1.258,5a7.147,7.147,0,0,0,.75.087c2.36,0,4.721-.016,7.082.012a.774.774,0,0,0,.905-.691c.266-1.131.565-2.253.859-3.377.341-1.307.441-1.361,2-1.059-.212.865-.412,1.731-.635,2.59-.741,2.868-1.5,5.729-2.229,8.6-.308,1.217-1.2.466-1.938.742C1968.839,241.451,1969.294,239.664,1969.787,237.726Z" fill="#03456f"/>
              <path id="Tracé_225" data-name="Tracé 225" d="M1981.914,236.68h7.1c.041.839-.162,1.243-1.06,1.214-1.865-.062-3.734,0-5.6-.027-.553-.007-.829.137-.952.731-.238,1.156-.582,2.29-.911,3.544h7.3c.109.8-.018,1.214-.906,1.2-2.767-.039-5.535-.014-8.429-.014.286-1.149.537-2.208.813-3.26.706-2.7,1.411-5.4,2.154-8.087.07-.253.4-.618.616-.621,2.8-.037,5.6-.019,8.4-.009.075,0,.15.067.233.106.042.792-.308,1.045-1.092,1.025-1.953-.051-3.909,0-5.864-.024-.512-.006-.78.114-.9.673C1982.575,234.289,1982.24,235.427,1981.914,236.68Z" fill="#03456f"/>
              <path id="Tracé_226" data-name="Tracé 226" d="M2005.734,239.927c.155,1.726.859,2.359,2.535,2.421a4.613,4.613,0,0,0,3.743-1.338,1.612,1.612,0,0,0-.493-2.833,16.932,16.932,0,0,0-2.324-.735c-.585-.175-1.195-.285-1.757-.515-1.574-.643-2.067-2-1.057-3.371a6.408,6.408,0,0,1,2.262-1.809,6.24,6.24,0,0,1,5.012-.254,2.6,2.6,0,0,1,1.73,1.721c.278.917.042,1.218-.915,1.211-.2,0-.4-.02-.681-.034a2.026,2.026,0,0,0-1.932-2.075,3.915,3.915,0,0,0-3.717,1.279,1.284,1.284,0,0,0,.526,2.238,17.235,17.235,0,0,0,2.093.609,17.655,17.655,0,0,1,1.762.5,2.592,2.592,0,0,1,1.066,4.423,7.3,7.3,0,0,1-8.134,1.53,2.419,2.419,0,0,1-1.431-1.949c-.075-.73.071-1.216.966-1.06A6.943,6.943,0,0,0,2005.734,239.927Z" fill="#03456f"/>
              <path id="Tracé_227" data-name="Tracé 227" d="M1927.7,242.141l-.311,1.135h-8.622c.544-2.117,1.067-4.163,1.6-6.207.385-1.488.784-2.973,1.164-4.462.359-1.408.385-1.43,2.035-1.163-.909,3.527-1.816,7.043-2.759,10.7Z" fill="#03456f"/>
              <path id="Tracé_228" data-name="Tracé 228" d="M1975.21,243.282h-1.727c.407-1.581.791-3.092,1.184-4.6.519-2,1.06-3.987,1.564-5.987.379-1.5.36-1.5,2.058-1.263Q1976.746,237.371,1975.21,243.282Z" fill="#03456f"/>
              <path id="Tracé_229" data-name="Tracé 229" d="M1930.729,238.912h4.681c.107.649-.208.744-.685.737-1.194-.016-2.388.009-3.582-.01-.449-.008-.686.12-.776.6-.138.73-.357,1.444-.576,2.3h4.789l.165.26c-.2.178-.39.5-.59.509-1.886.039-3.773.023-5.76.023.562-2.173,1.084-4.247,1.636-6.314.465-1.74.481-1.737,2.333-1.737h4.079c.215.674-.12.791-.6.791-1.223,0-2.447.021-3.669-.007-.519-.011-.8.134-.9.682C1931.159,237.419,1930.946,238.08,1930.729,238.912Z" fill="#03456f"/>
            </g>
          </g>
          <g id="Groupe_268" data-name="Groupe 268">
            <path id="Tracé_230" data-name="Tracé 230" d="M2020.285,233.225a1.856,1.856,0,1,1-1.85-1.8A1.812,1.812,0,0,1,2020.285,233.225Zm-3.25,0a1.4,1.4,0,0,0,1.411,1.439,1.38,1.38,0,0,0,1.377-1.427,1.395,1.395,0,1,0-2.788-.012Zm1.114.946h-.419v-1.8a3.644,3.644,0,0,1,.694-.056,1.126,1.126,0,0,1,.628.133.5.5,0,0,1,.176.395.462.462,0,0,1-.374.417v.022a.532.532,0,0,1,.33.439,1.368,1.368,0,0,0,.133.451h-.452a1.574,1.574,0,0,1-.144-.44c-.032-.2-.143-.286-.374-.286h-.2Zm.01-1.022h.2c.231,0,.419-.076.419-.263,0-.165-.121-.275-.386-.275a1.01,1.01,0,0,0-.232.022Z" fill="#03456f"/>
          </g>
        </g>
        <g id="Groupe_270" data-name="Groupe 270">
          <path id="Tracé_231" data-name="Tracé 231" d="M1956.658,260.719l1.264-6.621c.129-.753.26-1.6.351-2.234h.99l-.183,1.183h.027a2.849,2.849,0,0,1,2.265-1.324c1.367,0,1.941,1.115,1.941,2.271,0,2.206-1.59,4.3-3.685,4.3a2.78,2.78,0,0,1-1.368-.286h-.026l-.508,2.714Zm1.771-3.623a1.906,1.906,0,0,0,1.2.351c1.393,0,2.565-1.727,2.565-3.375,0-.662-.3-1.454-1.212-1.454-.846,0-1.914.974-2.239,2.726Z" fill="#03456f"/>
          <path id="Tracé_232" data-name="Tracé 232" d="M1968.234,258.148a15.911,15.911,0,0,1,.144-1.623h-.027a2.759,2.759,0,0,1-2.448,1.766,1.865,1.865,0,0,1-1.81-2.078,4.393,4.393,0,0,1,4.362-4.49,5.891,5.891,0,0,1,1.693.246l-.638,3.272a14.352,14.352,0,0,0-.274,2.907Zm.7-5.478a2.923,2.923,0,0,0-.755-.091c-1.628,0-2.956,1.7-2.969,3.439,0,.7.247,1.39,1.081,1.39.9,0,1.966-1.168,2.279-2.843Z" fill="#03456f"/>
          <path id="Tracé_233" data-name="Tracé 233" d="M1970.85,258.148l.769-4.05c.156-.819.26-1.649.325-2.234h.951c-.052.442-.1.883-.169,1.364h.038a2.278,2.278,0,0,1,1.928-1.5,2.138,2.138,0,0,1,.3.025l-.208,1.065a1.536,1.536,0,0,0-.286-.027c-.938,0-1.771,1.129-2.045,2.6l-.521,2.766Z" fill="#03456f"/>
        </g>
      </g>
    </g>
  </g>
</svg>
