<svg width="11" height="18" viewBox="0 0 11 18" fill="none" xmlns="http://www.w3.org/2000/svg">
<path d="M2.37769 17.6788C1.24637 17.6788 0.31958 16.7537 0.31958 15.6102V2.38969C0.31958 1.25264 1.23998 0.321167 2.37769 0.321167H8.62231C9.75363 0.321167 10.6804 1.24622 10.6804 2.38969V15.6102C10.6804 16.7473 9.76002 17.6788 8.62231 17.6788H2.37769Z" fill="white"/>
<path d="M8.62231 0.642398C9.58106 0.642398 10.3608 1.42612 10.3608 2.38972V15.6103C10.3608 16.5739 9.58106 17.3576 8.62231 17.3576H2.37769C1.41894 17.3576 0.639163 16.5739 0.639163 15.6103V2.38972C0.639163 1.42612 1.41894 0.642398 2.37769 0.642398H8.62231ZM8.62231 0H2.37769C1.0674 0 0 1.0728 0 2.38972V15.6103C0 16.9272 1.0674 18 2.37769 18H8.62231C9.9326 18 11 16.9272 11 15.6103V2.38972C11 1.0728 9.9326 0 8.62231 0Z" fill="#3C3C3B"/>
<path d="M3.01685 2.70447H7.33759" stroke="#3C3C3B" stroke-width="1.3259" stroke-miterlimit="10"/>
<path d="M4.10986 14.7495H6.24467" stroke="#3C3C3B" stroke-width="1.3259" stroke-miterlimit="10"/>
</svg>
