<?xml version="1.0" encoding="utf-8"?>
<svg width="13" height="20" viewBox="0 0 13 20" fill="none" xmlns="http://www.w3.org/2000/svg">
<path d="M3.37769 18.6788C2.24637 18.6788 1.31958 17.7537 1.31958 16.6102V3.38969C1.31958 2.25264 2.23998 1.32117 3.37769 1.32117H9.62231C10.7536 1.32117 11.6804 2.24622 11.6804 3.38969V16.6102C11.6804 17.7473 10.76 18.6788 9.62231 18.6788H3.37769Z" fill="white" stroke="black" stroke-width="1.2"/>
<path d="M9.62231 1.6424C10.5811 1.6424 11.3608 2.42612 11.3608 3.38972V16.6103C11.3608 17.5739 10.5811 18.3576 9.62231 18.3576H3.37769C2.41894 18.3576 1.63916 17.5739 1.63916 16.6103V3.38972C1.63916 2.42612 2.41894 1.6424 3.37769 1.6424H9.62231ZM9.62231 1H3.37769C2.0674 1 1 2.0728 1 3.38972V16.6103C1 17.9272 2.0674 19 3.37769 19H9.62231C10.9326 19 12 17.9272 12 16.6103V3.38972C12 2.0728 10.9326 1 9.62231 1Z" fill="#3C3C3B"/>
<path d="M4.01685 3.70447H8.33759" stroke="#3C3C3B" stroke-width="1.3259" stroke-miterlimit="10"/>
<path d="M5.10986 15.7495H7.24467" stroke="#3C3C3B" stroke-width="1.3259" stroke-miterlimit="10"/>
</svg>
