<svg width="18" height="29" viewBox="0 0 18 29" fill="none" xmlns="http://www.w3.org/2000/svg">
<path d="M3.72 27.52C1.95 27.52 0.5 26.08 0.5 24.3V3.72C0.5 1.95 1.94 0.5 3.72 0.5H13.49C15.26 0.5 16.71 1.94 16.71 3.72V24.3C16.71 26.07 15.27 27.52 13.49 27.52H3.72Z" fill="white"/>
<path d="M13.49 1C14.99 1 16.21 2.22 16.21 3.72V24.3C16.21 25.8 14.99 27.02 13.49 27.02H3.72C2.22 27.02 1 25.8 1 24.3V3.72C1 2.22 2.22 1 3.72 1H13.49ZM13.49 0H3.72C1.67 0 0 1.67 0 3.72V24.3C0 26.35 1.67 28.02 3.72 28.02H13.49C15.54 28.02 17.21 26.35 17.21 24.3V3.72C17.21 1.67 15.54 0 13.49 0Z" fill="#3C3C3B"/>
<path d="M4.71997 4.20996H11.48" stroke="#3C3C3B" stroke-width="1.3259" stroke-miterlimit="10"/>
<path d="M6.43005 22.96H9.77005" stroke="#3C3C3B" stroke-width="1.3259" stroke-miterlimit="10"/>
</svg>
