<svg width="27" height="27" viewBox="0 0 27 27" fill="none" xmlns="http://www.w3.org/2000/svg">
<path d="M13.4 25.8C20.2483 25.8 25.8 20.2483 25.8 13.4C25.8 6.55167 20.2483 1 13.4 1C6.55166 1 1 6.55167 1 13.4C1 20.2483 6.55166 25.8 13.4 25.8Z" fill="white" stroke="#3C3C3B" stroke-miterlimit="10"/>
<path d="M9.18994 10.77C9.18994 10.1 9.28994 9.48004 9.48994 8.93004C9.68994 8.38004 9.98993 7.91004 10.3699 7.52004C10.7499 7.13004 11.2199 6.83004 11.7699 6.61004C12.3099 6.40004 12.9199 6.29004 13.5999 6.29004C14.1599 6.29004 14.6899 6.37004 15.1699 6.54004C15.6499 6.71004 16.0799 6.94004 16.4399 7.26004C16.7999 7.57004 17.0899 7.96004 17.2899 8.43004C17.4999 8.90004 17.5999 9.42004 17.5999 10.01C17.5999 10.44 17.5499 10.81 17.4599 11.12C17.3699 11.43 17.2499 11.7 17.0899 11.93C16.9399 12.16 16.7599 12.36 16.5699 12.54C16.3699 12.72 16.1799 12.89 15.9799 13.06C15.7499 13.26 15.5299 13.45 15.3399 13.63C15.1499 13.81 14.9699 14.02 14.8299 14.24C14.6799 14.47 14.5699 14.73 14.4899 15.04C14.4099 15.35 14.3699 15.72 14.3699 16.16H12.3899C12.3899 15.62 12.4199 15.17 12.4699 14.79C12.5199 14.42 12.6099 14.09 12.7399 13.81C12.8599 13.53 13.0099 13.28 13.1899 13.07C13.3699 12.86 13.5799 12.64 13.8199 12.44C14.0199 12.27 14.1999 12.11 14.3799 11.96C14.5599 11.81 14.7199 11.65 14.8599 11.47C14.9999 11.29 15.1099 11.09 15.1899 10.87C15.2699 10.65 15.3099 10.39 15.3099 10.08C15.3099 9.71004 15.2499 9.40004 15.1199 9.13004C14.9899 8.87004 14.8399 8.66004 14.6499 8.50004C14.4599 8.34004 14.2699 8.22004 14.0599 8.15004C13.8499 8.08004 13.6699 8.04004 13.5099 8.04004C12.7499 8.04004 12.1899 8.29004 11.8299 8.78004C11.4699 9.28004 11.2899 9.94004 11.2899 10.77H9.18994V10.77ZM12.1099 17.42H14.5699V19.71H12.1099V17.42Z" fill="black"/>
</svg>
