<svg width="18" height="18" viewBox="0 0 18 18" fill="none" xmlns="http://www.w3.org/2000/svg">
<path d="M9 17C13.4183 17 17 13.4183 17 9C17 4.58172 13.4183 1 9 1C4.58172 1 1 4.58172 1 9C1 13.4183 4.58172 17 9 17Z" fill="white" stroke="#3C3C3B" stroke-miterlimit="10"/>
<path d="M6.28381 7.30329C6.28381 6.87103 6.34833 6.47103 6.47736 6.11619C6.6064 5.76135 6.79994 5.45812 7.0451 5.20651C7.29026 4.9549 7.59349 4.76135 7.94833 4.61942C8.29672 4.48393 8.69027 4.41296 9.12898 4.41296C9.49027 4.41296 9.8322 4.46458 10.1419 4.57425C10.4516 4.68393 10.729 4.83232 10.9612 5.03877C11.1935 5.23877 11.3806 5.49038 11.5096 5.79361C11.6451 6.09683 11.7096 6.43232 11.7096 6.81296C11.7096 7.09038 11.6774 7.32909 11.6193 7.52909C11.5612 7.72909 11.4838 7.90329 11.3806 8.05167C11.2838 8.20006 11.1677 8.32909 11.0451 8.44522C10.9161 8.56135 10.7935 8.67103 10.6645 8.78071C10.5161 8.90974 10.3741 9.03232 10.2516 9.14845C10.129 9.26458 10.0128 9.40006 9.92252 9.542C9.82575 9.69038 9.75478 9.85813 9.70317 10.0581C9.65156 10.2581 9.62574 10.4968 9.62574 10.7807H8.34833C8.34833 10.4323 8.36768 10.142 8.39994 9.89684C8.4322 9.65813 8.49027 9.44522 8.57414 9.26458C8.65156 9.08393 8.74833 8.92264 8.86446 8.78716C8.98059 8.65167 9.11606 8.50974 9.2709 8.3807C9.39994 8.27103 9.51607 8.1678 9.6322 8.07103C9.74833 7.97425 9.85155 7.87103 9.94188 7.7549C10.0322 7.63877 10.1032 7.50974 10.1548 7.3678C10.2064 7.22587 10.2322 7.05813 10.2322 6.85813C10.2322 6.61942 10.1935 6.41942 10.1096 6.24522C10.0257 6.07748 9.92897 5.942 9.80639 5.83877C9.68381 5.73554 9.56123 5.65812 9.42575 5.61296C9.29026 5.5678 9.17413 5.542 9.0709 5.542C8.58058 5.542 8.2193 5.70329 7.98704 6.01942C7.75478 6.342 7.63865 6.7678 7.63865 7.30329H6.28381V7.30329ZM8.16768 11.5936H9.75477V13.071H8.16768V11.5936Z" fill="black"/>
</svg>
