<svg width="13" height="17" viewBox="0 0 13 17" fill="none" xmlns="http://www.w3.org/2000/svg">
<path d="M3.94236 16.6597C2.76958 16.6597 1.80883 15.6797 1.80883 14.4683L1.14624 4.8179C1.14624 3.58609 2.10036 2.60608 3.27977 2.60608H9.75327C10.9261 2.60608 11.8868 3.58609 11.8868 4.79749L11.2242 14.4955C11.2242 15.6797 10.2701 16.6597 9.09068 16.6597H3.94236Z" fill="white"/>
<path d="M9.75327 2.93959C10.7472 2.93959 11.5555 3.76988 11.5555 4.79072L10.8929 14.4683C10.8929 15.4891 10.0846 16.3194 9.09068 16.3194H3.94236C2.94847 16.3194 2.14012 15.4891 2.14012 14.4683L1.47753 4.79072C1.47753 3.76988 2.28589 2.93959 3.27977 2.93959H9.75327ZM9.75327 2.25903H3.27977C1.92146 2.25903 0.814941 3.39557 0.814941 4.79072V4.81795V4.83836L1.47753 14.4955C1.49078 15.8771 2.59068 17 3.94236 17H9.09068C10.4424 17 11.5423 15.8771 11.5555 14.4955L12.2181 4.83836V4.81795V4.79072C12.2115 3.39557 11.1116 2.25903 9.75327 2.25903Z" fill="#3C3C3B"/>
<path d="M3.94238 2.58571V2.04126C3.94238 1.46959 4.39295 1 4.95615 1H7.40773C7.9643 1 8.42149 1.46278 8.42149 2.04126V2.58571" stroke="#3C3C3B" stroke-miterlimit="10"/>
<path d="M0 4.96082H13" stroke="#3C3C3B" stroke-miterlimit="10"/>
<path d="M4.20081 6.81885V14.5909" stroke="#3C3C3B" stroke-miterlimit="10"/>
<path d="M6.5 6.81885V14.5909" stroke="#3C3C3B" stroke-miterlimit="10"/>
<path d="M8.79919 6.81885V14.5909" stroke="#3C3C3B" stroke-miterlimit="10"/>
</svg>
