<?xml version="1.0" encoding="UTF-8"?>
<svg width="20" height="25" viewBox="0 0 20 25" fill="none" xmlns="http://www.w3.org/2000/svg">
<path d="M5.94997 24.01C4.17997 24.01 2.72998 22.57 2.72998 20.79L1.72998 6.60999C1.72998 4.79999 3.16997 3.35999 4.94997 3.35999H14.72C16.49 3.35999 17.94 4.79999 17.94 6.57999L16.94 20.83C16.94 22.57 15.5 24.01 13.72 24.01H5.94997Z" fill="white"/>
<path d="M14.72 3.84998C16.22 3.84998 17.44 5.06998 17.44 6.56998L16.44 20.79C16.44 22.29 15.22 23.51 13.72 23.51H5.94997C4.44997 23.51 3.22998 22.29 3.22998 20.79L2.22998 6.56998C2.22998 5.06998 3.44997 3.84998 4.94997 3.84998H14.72ZM14.72 2.84998H4.94997C2.89997 2.84998 1.22998 4.51998 1.22998 6.56998V6.60998V6.63998L2.22998 20.83C2.24998 22.86 3.90997 24.51 5.94997 24.51H13.72C15.76 24.51 17.42 22.86 17.44 20.83L18.44 6.63998V6.60998V6.56998C18.43 4.51998 16.77 2.84998 14.72 2.84998Z" fill="#3C3C3B"/>
<path d="M5.94995 3.33V2.53C5.94995 1.69 6.62996 1 7.47996 1H11.18C12.02 1 12.71 1.68 12.71 2.53V3.33" stroke="#3C3C3B" stroke-miterlimit="10"/>
<path d="M0 6.81995H19.62" stroke="#3C3C3B" stroke-miterlimit="10"/>
<path d="M6.33997 9.55005V20.97" stroke="#3C3C3B" stroke-miterlimit="10"/>
<path d="M9.81006 9.55005V20.97" stroke="#3C3C3B" stroke-miterlimit="10"/>
<path d="M13.28 9.55005V20.97" stroke="#3C3C3B" stroke-miterlimit="10"/>
</svg>
