<svg xmlns="http://www.w3.org/2000/svg" width="34.775" height="37.596" viewBox="0 0 34.775 37.596">
  <g id="Groupe_339" data-name="Groupe 339" transform="translate(-2844.043 -153.082)">
    <g id="Groupe_338" data-name="Groupe 338">
      <g id="Tracé_344" data-name="Tracé 344" fill="#fff" stroke-miterlimit="10">
        <path d="M 2877.94677734375 189.8279876708984 L 2844.914306640625 189.8279876708984 C 2845.120361328125 185.7293701171875 2846.814453125 181.9053649902344 2849.73681640625 178.9824981689453 C 2852.860595703125 175.8584747314453 2857.013427734375 174.1379852294922 2861.430908203125 174.1379852294922 C 2865.84814453125 174.1379852294922 2870.001220703125 175.8584594726562 2873.12451171875 178.9824829101562 C 2876.046875 181.9053039550781 2877.74072265625 185.7293395996094 2877.94677734375 189.8279876708984 Z" stroke="none"/>
        <path d="M 2877.027587890625 188.9779968261719 C 2876.64794921875 185.4297943115234 2875.08203125 182.1424865722656 2872.5234375 179.5834655761719 C 2869.560546875 176.6200256347656 2865.62109375 174.9879913330078 2861.430908203125 174.9879913330078 C 2857.240478515625 174.9879913330078 2853.301025390625 176.6200408935547 2850.337890625 179.58349609375 C 2847.779296875 182.1425628662109 2846.213134765625 185.4298400878906 2845.83349609375 188.9779968261719 L 2877.027587890625 188.9779968261719 M 2878.818115234375 190.6779937744141 L 2844.04296875 190.6779937744141 C 2844.04296875 181.0740051269531 2851.827880859375 173.2879943847656 2861.430908203125 173.2879943847656 C 2871.033935546875 173.2879943847656 2878.818115234375 181.0740051269531 2878.818115234375 190.6779937744141 Z" stroke="none" fill="#3c3c3b"/>
      </g>
      <circle id="Ellipse_14" data-name="Ellipse 14" cx="7.595" cy="7.595" r="7.595" transform="translate(2853.836 153.932)" fill="#fff" stroke="#3c3c3b" stroke-miterlimit="10" stroke-width="1.7"/>
    </g>
  </g>
</svg>
