<?xml version="1.0" encoding="utf-8"?>
<svg width="275" height="101" viewBox="0 0 275 101" fill="none" xmlns="http://www.w3.org/2000/svg">
<path d="M112.122 59.6471C120.043 59.6471 130.744 53.4582 130.744 46.1385C130.744 43.665 129.514 41.8577 127.064 41.8577C122.153 41.8577 116.022 47.8245 114.462 50.6413L114.792 51.0957C117.692 46.8149 122.933 42.5443 126.834 42.5443C128.734 42.5443 130.064 43.7861 130.064 45.6943C130.064 51.0957 118.463 58.9807 112.112 58.9807C109.551 58.9807 106.871 57.9711 106.871 55.0433C106.871 50.7625 114.122 41.6457 117.692 37.9304C131.074 37.8193 149.917 28.7025 149.917 21.8372C149.917 18.9093 146.796 18.344 144.566 18.344C133.415 18.344 119.703 29.2679 114.012 37.0318C109.771 36.8097 106.431 33.8818 106.431 30.1665C106.431 23.6343 112.012 19.6968 118.473 19.6968C122.153 19.6968 125.163 20.5954 127.504 21.8372L127.834 21.1608C125.604 19.8079 122.143 19.0204 118.583 19.0204C111.782 19.0204 104.421 22.4026 104.421 30.0554C104.421 35.3458 108.991 37.264 113.232 37.7083C109.771 41.4236 105.541 47.5015 105.541 53.0139C105.541 57.2846 107.881 59.6471 112.122 59.6471ZM144.566 19.0002C146.466 19.0002 149.247 19.3334 149.247 21.817C149.247 27.5617 133.525 36.4563 118.023 37.2438C123.703 30.9338 135.525 19.0002 144.566 19.0002Z" fill="#3D3D3B"/>
<path d="M269.252 50.4596L267.652 48.3091C268.512 48.0466 268.992 47.3298 268.992 46.512C268.992 45.3005 267.992 44.7856 266.702 44.7856H264.082V45.0784H264.442C264.702 45.0784 264.922 45.1794 264.922 45.5024V50.4899C264.922 50.813 264.692 50.9139 264.442 50.9139H264.082V51.2067H266.632V50.9139H266.272C266.012 50.9139 265.792 50.813 265.792 50.4899V48.4404H266.822C268.662 51.2168 268.842 51.2168 269.062 51.2168H269.982V51.0855C269.812 51.0553 269.622 50.9745 269.252 50.4596ZM266.692 48.1476H265.792V45.0784H266.632C267.372 45.0784 268.022 45.4015 268.022 46.5423C268.022 47.5923 267.572 48.1476 266.692 48.1476Z" fill="#3D3D3B"/>
<path d="M266.792 42.1202C263.511 42.1202 260.861 44.7957 260.861 48.1072C260.861 48.6221 260.931 49.1269 261.051 49.6014C255.14 55.0937 249.65 58.9706 247.719 58.9706C247.049 58.9706 246.599 58.6374 246.599 57.8499C246.599 56.9514 247.209 56.2144 249.83 53.2865L259.871 41.9688H256.301L249.67 49.3995C243.089 56.7192 239.018 58.9706 236.508 58.9706C234.948 58.9706 233.998 58.4052 233.998 57.5066C233.998 56.6586 234.498 55.649 236.168 53.7307L246.479 41.9688H242.799L236.538 49.4096C233.738 52.2971 225.347 58.9706 222.156 58.9706C221.426 58.9706 220.816 58.6374 220.816 57.7893C220.816 57.2845 221.146 56.7192 222.156 55.5985C226.057 51.2673 231.297 45.4116 234.868 41.9789H230.967L228.067 45.0178H227.957C228.177 44.3414 228.177 44.0082 228.177 43.6649C228.177 42.201 226.617 41.3024 224.716 41.3024C221.156 41.3024 212.795 46.0375 209.434 51.4995C203.904 55.9014 198.903 58.9807 194.663 58.9807C193.552 58.9807 192.432 58.7586 192.432 57.6278C192.432 56.8403 192.932 55.5985 196.223 51.9942C200.353 51.9942 210.055 49.0663 210.055 43.8366C210.055 42.3726 209.054 41.3024 207.544 41.3024C203.844 41.3024 198.203 45.0077 194.502 49.2683C185.481 57.4158 182.041 58.9807 180.431 58.9807C179.871 58.9807 179.201 58.7586 179.201 58.1932C179.201 57.5168 180.371 56.3355 182.661 53.8014L193.032 42.5241H196.653L197.103 41.8476H193.642L198.203 37.2438H194.522L189.962 41.8476H186.281L185.721 42.5241H189.342L182.711 49.7731C179.621 52.812 171.75 58.9807 168.689 58.9807C167.969 58.9807 167.359 58.6475 167.349 57.8096C167.359 57.3047 167.689 56.7394 168.689 55.6288C172.59 51.2976 177.83 45.4418 181.401 42.0092H181.371C181.381 41.9991 181.391 41.989 181.401 41.9789H177.5L174.6 45.0178H174.5C174.71 44.3615 174.71 44.0284 174.71 43.6952C174.71 43.6851 174.71 43.675 174.71 43.6649C174.71 42.201 173.15 41.3024 171.249 41.3024C167.729 41.3024 159.528 45.9264 156.087 51.2976C150.057 56.699 146.956 58.9807 145.326 58.9807C144.766 58.9807 144.436 58.6475 144.436 58.1932C144.436 56.2749 153.807 49.5207 153.807 44.9068C153.807 42.938 152.577 41.6457 150.797 41.6457C147.896 41.6457 143.216 45.4721 140.755 47.3904V47.2793L145.936 41.3731C157.198 36.5876 170.749 27.4708 170.749 21.6756C170.749 20.3833 169.969 19.3636 168.849 19.3636C167.359 19.3636 165.269 20.3733 162.418 22.5237C162.068 21.5141 161.878 20.4237 161.878 19.3031C161.878 14.6992 165.879 11.9531 169.199 11.9531C172.72 11.9531 175.64 14.6589 175.64 18.2935C175.64 20.555 174.64 22.4127 172.4 23.0588C172.33 23.079 172.26 23.0992 172.21 23.1194C172.19 23.1901 172.16 23.2607 172.13 23.3314C172.13 23.3415 172.12 23.3516 172.12 23.3516C172.12 23.3617 172.11 23.3718 172.11 23.3819C172.09 23.4324 172.06 23.4728 172.03 23.5232C172.05 23.5333 172.07 23.5333 172.09 23.5333C173.65 23.5333 177.25 21.4333 177.25 17.0314C177.25 13.4372 174.21 10.893 170.769 10.893C164.969 10.893 160.688 15.4161 160.688 21.3526C160.688 22.1804 160.788 22.9478 160.958 23.6747C156.227 27.5415 149.657 34.1241 140.645 43.9577L127.154 58.6475H131.054C138.635 49.0764 146.996 42.3222 150.677 42.3222C151.787 42.3222 152.457 42.9986 152.457 43.8971C152.457 46.0375 143.086 52.8423 143.086 57.0725C143.086 58.8696 144.036 59.6571 145.316 59.6571C147.216 59.6571 150.757 56.9615 155.197 52.9533C154.767 53.9428 154.517 54.9524 154.517 55.9418C154.517 55.9519 154.517 55.9519 154.517 55.9619V55.9721C154.517 58.3345 155.857 59.6874 158.088 59.6874C160.378 59.6874 163.218 58.1124 166.399 55.0735H166.499C166.179 55.7399 166.009 56.5173 166.009 57.4057V57.4158C166.009 57.4259 166.009 57.4259 166.009 57.4259C166.009 58.4355 166.789 59.6773 168.459 59.6773C171.309 59.6773 176.13 56.3456 179.801 53.2865C178.61 54.9927 178.2 56.2143 178.2 57.2845C178.2 58.5768 178.87 59.647 180.211 59.647C182.471 59.647 186.281 57.2139 192.732 51.5802C191.522 53.4076 190.762 55.235 190.762 56.8302C190.762 58.9706 192.542 59.647 194.222 59.647C198.983 59.647 204.204 56.386 208.754 52.7817C208.284 53.8216 208.004 54.8817 208.004 55.9317C208.004 58.2941 209.344 59.647 211.575 59.647C213.865 59.647 216.705 58.072 219.886 55.0331H219.996C219.666 55.7096 219.496 56.4971 219.496 57.3956C219.496 58.4052 220.276 59.647 221.946 59.647C224.916 59.647 230.037 56.0225 233.748 52.8524C232.827 54.2052 232.317 55.4874 232.317 56.6586C232.317 58.2336 234.048 59.6369 235.888 59.6369C239.008 59.6369 241.909 57.7187 245.809 54.2355L245.919 54.3466C245.529 54.912 245.249 55.6995 245.249 56.8201C245.139 58.3951 246.029 59.6369 247.539 59.6369C250.11 59.6369 254.79 55.8307 261.251 50.2476C262.101 52.4889 264.252 54.0841 266.782 54.0841C270.062 54.0841 272.713 51.4086 272.713 48.0971C272.713 44.7856 270.072 42.1202 266.792 42.1202ZM207.564 41.9587C208.284 41.9587 208.734 42.4635 208.734 43.0894C208.734 46.1284 202.764 51.3077 196.803 51.3077C202.544 44.7755 205.444 41.9587 207.564 41.9587ZM161.428 24.9872C161.908 26.1078 162.598 27.077 163.458 27.8544C163.518 27.804 163.578 27.7535 163.638 27.6929C163.818 27.5213 163.999 27.3497 164.179 27.1679C164.359 26.9862 164.529 26.8146 164.709 26.6328C164.799 26.542 164.889 26.441 164.969 26.3501C164.129 25.5626 163.438 24.6237 162.928 23.5939C165.429 21.3425 167.379 19.9997 168.559 19.9997C169.789 19.9997 170.119 20.6761 170.119 21.7968C170.119 27.703 153.507 37.5568 147.256 40.202L147.166 40.1111C152.507 34.2352 157.498 28.7429 161.428 24.9872ZM158.288 53.1351C167.539 43.2308 169.439 41.989 171.89 41.989C172.83 41.989 174.05 42.6553 174.06 43.9375C174.04 46.8856 163.408 58.9504 158.118 58.9504C156.728 58.9504 155.887 58.2235 155.887 57.2139C155.887 56.598 156.077 55.4673 158.288 53.1351ZM211.585 58.9605C210.195 58.9605 209.354 58.2336 209.354 57.2139C209.354 56.598 209.524 55.4673 211.755 53.1048C221.006 43.2005 222.906 41.9587 225.357 41.9587C226.307 41.9587 227.527 42.6351 227.527 43.9274C227.537 46.8553 216.885 58.9605 211.585 58.9605ZM266.792 53.6903C263.741 53.6903 261.251 51.1764 261.251 48.0971C261.251 45.0178 263.741 42.5039 266.792 42.5039C269.842 42.5039 272.333 45.0178 272.333 48.0971C272.333 51.1764 269.842 53.6903 266.792 53.6903Z" fill="#3D3D3B"/>
<path d="M176.96 33.5689C173.53 36.3453 171.539 37.2337 168.989 38.2029L169.209 38.425C172.11 37.8597 175.01 36.6279 177.46 34.8208C177.46 36.2847 178.24 37.9707 179.471 38.425L179.691 38.2029C179.241 37.8698 178.8 37.0722 178.8 36.1737C178.8 34.7097 178.97 34.9116 179.751 33.5587H176.96V33.5689Z" fill="#3D3D3B"/>
<path d="M108.111 88.5622L108.091 66.4417L105.581 66.4518L105.611 90.7531L121.473 90.7329V88.5421L108.111 88.5622Z" fill="#3D3D3B"/>
<path d="M135.975 66.4114H133.275L123.623 90.7228H126.284L129.144 83.2315L139.835 83.2214L142.746 90.7026H145.436L135.995 66.4821L135.975 66.4114ZM129.944 81.0507L134.535 69.1474L138.995 81.0306L129.944 81.0507Z" fill="#3D3D3B"/>
<path d="M188.072 66.3508L188.092 81.3637C188.092 82.7368 187.942 83.918 187.632 84.8873C187.332 85.8464 186.882 86.6339 186.291 87.2396C185.711 87.8454 184.981 88.2896 184.141 88.5622C183.291 88.8348 182.301 88.9762 181.201 88.9863H181.191C180.121 88.9863 179.15 88.8449 178.3 88.5723C177.45 88.2997 176.73 87.8555 176.14 87.2598C175.55 86.6541 175.1 85.8666 174.8 84.9176C174.49 83.9584 174.34 82.7772 174.33 81.394L174.31 66.3811H171.81L171.83 81.8988C171.83 83.1406 172.01 84.3421 172.36 85.4526C172.71 86.5733 173.27 87.5728 174.02 88.4108C174.77 89.2488 175.76 89.9252 176.94 90.4098C178.11 90.8944 179.541 91.1367 181.191 91.1367C181.201 91.1367 181.201 91.1367 181.211 91.1367C182.891 91.1367 184.331 90.8843 185.511 90.3997C186.691 89.9151 187.672 89.2387 188.422 88.3906C189.172 87.5526 189.732 86.5531 190.082 85.4324C190.432 84.3118 190.602 83.1204 190.602 81.8786L190.582 66.3609L188.072 66.3508Z" fill="#3D3D3B"/>
<path d="M197.588 66.3394L195.088 66.3425L195.118 90.6438L197.618 90.6407L197.588 66.3394Z" fill="#3D3D3B"/>
<path d="M220.946 69.6422C220.006 68.4811 218.806 67.5422 217.395 66.8557C215.985 66.1691 214.325 65.8259 212.455 65.8259C212.445 65.8259 212.445 65.8259 212.435 65.8259C210.555 65.8259 208.884 66.1792 207.464 66.8758C206.044 67.5725 204.844 68.5114 203.904 69.6725C202.964 70.8335 202.254 72.1965 201.783 73.7109C201.313 75.2253 201.083 76.8306 201.083 78.4964C201.083 80.1623 201.323 81.7777 201.793 83.282C202.264 84.7964 202.984 86.1493 203.924 87.3002C204.864 88.4512 206.064 89.3901 207.494 90.0767C208.914 90.7632 210.585 91.1064 212.455 91.1064C212.465 91.1064 212.465 91.1064 212.475 91.1064C214.355 91.1064 216.025 90.7531 217.436 90.0565C218.846 89.3699 220.036 88.431 220.976 87.2699C221.916 86.119 222.626 84.7661 223.096 83.2517C223.566 81.7474 223.796 80.132 223.796 78.4662C223.796 76.8003 223.556 75.1849 223.086 73.6806C222.596 72.1561 221.886 70.8032 220.946 69.6422ZM220.776 82.2926C220.436 83.5445 219.906 84.6753 219.196 85.6647C218.486 86.644 217.566 87.4517 216.465 88.0473C215.365 88.643 214.015 88.9459 212.465 88.9459H212.455C210.905 88.9459 209.554 88.643 208.444 88.0574C207.324 87.4618 206.404 86.6642 205.694 85.6849C204.984 84.7055 204.444 83.5647 204.104 82.3229C203.764 81.071 203.584 79.7887 203.584 78.4964C203.584 77.184 203.754 75.8917 204.094 74.6498C204.434 73.408 204.964 72.2873 205.674 71.2979C206.384 70.3186 207.304 69.521 208.424 68.9153C209.534 68.3196 210.885 68.0167 212.445 68.0167H212.455C214.005 68.0167 215.345 68.3196 216.445 68.9052C217.546 69.5008 218.466 70.2984 219.176 71.2777C219.886 72.2571 220.426 73.3878 220.766 74.6297C221.106 75.8715 221.286 77.1638 221.286 78.4763C221.286 79.7484 221.116 81.0306 220.776 82.2926Z" fill="#3D3D3B"/>
<path d="M228.717 88.4108L228.697 66.3004H226.187L226.217 90.6016L242.079 90.5814V88.3906L228.717 88.4108Z" fill="#3D3D3B"/>
<path d="M246.529 88.3906L246.519 79.1224L259.811 79.1022V76.9113L246.519 76.9316L246.509 68.4609L260.701 68.4508V66.26L243.999 66.2802L244.029 90.5814L260.891 90.5613V88.3704L246.529 88.3906Z" fill="#3D3D3B"/>
<path d="M157.568 78.1734V80.3642L165.679 80.3541C165.689 81.5757 165.529 82.7065 165.189 83.7363C164.839 84.7964 164.309 85.7252 163.608 86.4925C162.908 87.2598 162.048 87.8757 161.028 88.2997C160.008 88.7339 158.838 88.956 157.548 88.956C157.538 88.956 157.538 88.956 157.528 88.956C155.977 88.956 154.637 88.6531 153.527 88.0675C152.417 87.4719 151.487 86.6743 150.777 85.6949C150.067 84.7156 149.527 83.5849 149.187 82.333C148.847 81.081 148.666 79.7988 148.666 78.5065C148.666 77.194 148.837 75.9018 149.177 74.6599C149.517 73.4181 150.047 72.2873 150.757 71.308C151.467 70.3287 152.387 69.521 153.507 68.9254C154.617 68.3297 155.967 68.0268 157.528 68.0268H157.538C158.648 68.0268 159.658 68.2085 160.558 68.572C161.458 68.9355 162.238 69.41 162.878 69.9854C163.528 70.5609 164.049 71.197 164.429 71.8936C164.809 72.5801 165.039 73.2768 165.099 73.9532L165.109 74.0643H167.619L167.599 73.9229C167.369 72.5902 166.949 71.409 166.339 70.4095C165.729 69.4099 164.979 68.5619 164.109 67.8854C163.228 67.209 162.218 66.6941 161.098 66.3508C159.988 66.0177 158.788 65.846 157.538 65.846H157.528C155.647 65.846 153.977 66.1994 152.557 66.896C151.137 67.5927 149.937 68.5316 148.997 69.6926C148.056 70.8537 147.346 72.2167 146.876 73.7311C146.406 75.2455 146.176 76.8508 146.176 78.5166C146.176 80.1825 146.416 81.7979 146.886 83.3022C147.356 84.8166 148.076 86.1594 149.017 87.3204C149.957 88.4714 151.157 89.4103 152.587 90.0968C154.007 90.7834 155.667 91.1266 157.538 91.1266C157.548 91.1266 157.548 91.1266 157.558 91.1266C158.428 91.1266 159.288 91.0358 160.098 90.854C160.918 90.6723 161.698 90.3795 162.418 89.9757C163.138 89.5819 163.799 89.0569 164.399 88.431C164.929 87.8757 165.389 87.2094 165.769 86.4623L166.059 90.642H167.919L167.899 78.1734H157.568Z" fill="#3D3D3B"/>
<path d="M182.271 14.5882C185.871 14.5882 187.512 10.5901 187.512 10.2267C187.512 10.1055 187.432 10.0248 187.272 10.0248C187.112 10.0248 187.032 10.3478 186.792 10.8325C186.111 12.2055 184.791 13.6997 182.871 13.6997C180.311 13.6997 179.671 11.2363 179.671 9.13632C179.671 5.58249 183.031 2.39212 186.671 2.39212C190.152 2.39212 190.952 5.2998 190.952 8.08632C190.952 17.2132 181.671 29.1266 172.15 29.1266C170.939 29.1266 169.799 28.9246 168.749 28.5814C168.649 28.6924 168.559 28.8136 168.459 28.9246C168.299 29.1165 168.129 29.3083 167.969 29.5001C167.819 29.6718 167.669 29.8434 167.519 30.015C168.339 30.2271 169.199 30.3381 170.069 30.3381C179.671 30.3381 190.432 20.0805 192.712 11.5997H192.792C192.792 13.2555 192.472 15.6382 192.152 17.2536C189.992 28.1977 186.872 27.067 186.872 29.7727C186.872 30.2573 187.232 30.5804 187.712 30.5804C190.272 30.5804 188.272 24.4016 200.793 11.5594C201.393 12.1651 202.074 12.8113 202.634 13.2151C199.673 16.4055 196.793 20.9689 196.793 25.1689C196.793 28.3996 198.033 30.3381 200.953 30.3381C203.434 30.3381 206.634 28.44 209.274 25.4516C209.664 25.0074 209.895 24.7348 210.005 24.5429C210.025 24.5328 210.045 24.5228 210.075 24.5228C209.955 25.1689 209.875 25.7747 209.875 26.4208C209.875 28.2381 210.355 30.0958 212.395 30.0958C213.915 30.0958 216.155 27.7939 217.356 26.5824C217.356 26.7843 217.316 27.0266 217.316 27.3093C217.316 29.5304 217.996 30.0958 219.076 30.0958C220.156 30.0958 221.676 28.8439 223.516 26.9054C224.256 26.0876 225.237 24.9872 225.587 24.553C225.657 24.4824 225.767 24.3511 225.957 24.1189C227.877 21.9382 228.877 20.8881 229.357 20.4035L229.437 20.4843C228.077 22.5439 225.637 25.2901 225.637 27.9958C225.637 29.2073 226.317 30.0958 227.557 30.0958C228.677 30.0958 230.317 29.0458 232.277 26.9862C233.528 25.6636 234.258 24.8155 234.558 24.4218C234.578 24.3915 234.608 24.3612 234.638 24.3208C235.598 23.2304 238.798 19.3939 239.278 19.1112L239.358 19.192C239.118 19.3939 239.118 21.0497 239.118 22.9882C239.118 25.1689 236.958 29.6112 235.078 29.6112C234.598 29.6112 234.398 29.3689 234.398 29.0054C234.398 28.2785 234.958 28.6016 234.958 27.7939C234.958 27.4304 234.558 27.1477 234.118 27.1477C233.398 27.1477 233.118 27.592 233.118 28.2785C233.118 28.7227 233.438 29.4093 233.758 29.6516C234.278 30.0554 234.638 30.0958 235.558 30.0958C237.798 30.0958 239.678 28.8035 241.839 26.34C242.579 25.5122 243.359 24.5934 243.459 24.3713C243.559 24.2603 243.679 24.1593 243.799 24.1593C243.879 24.1593 243.919 24.2401 243.919 24.4016C243.919 24.6439 243.719 25.0477 243.719 26.5016C243.719 28.6823 244.599 30.0958 246.199 30.0958C248.44 30.0958 250.08 28.642 251.32 27.2285C251.44 27.2689 251.56 27.2689 251.84 27.2689C253.4 27.2689 254.8 26.5824 255.801 25.5324C256.411 24.8862 256.651 24.6035 256.741 24.4622C256.961 24.1997 257.401 23.6444 258.481 22.4631C260.521 20.2016 261.601 19.3536 262.721 19.3536C263.042 19.3536 263.322 19.5555 263.322 19.9593C263.322 21.2113 257.681 28.6016 256.921 30.0958L259.601 29.8535C260.801 27.9554 268.042 19.3536 269.962 19.3536C270.322 19.3536 270.522 19.5555 270.522 19.8382C270.522 20.9285 266.202 24.2804 266.202 27.5112C266.202 28.965 266.762 30.0958 267.962 30.0958C268.882 30.0958 270.282 29.0054 272.043 27.2285C272.563 26.7035 274.563 24.4824 274.563 24.2805C274.563 24.1997 274.523 24.0785 274.403 24.0785C274.163 24.0785 274.323 24.1997 272.283 26.3804C270.643 28.1573 268.962 29.6112 268.042 29.6112C267.642 29.6112 267.402 29.2073 267.402 28.8035C267.402 28.1573 268.282 26.7035 270.082 24.2401C270.763 23.3112 271.563 22.1401 271.563 20.767C271.563 19.9189 271.123 18.8689 270.122 18.8689C268.082 18.8689 263.482 24.5228 261.921 26.017L261.841 25.9362C262.721 24.7651 264.362 22.4631 264.362 20.8478C264.362 19.6362 263.922 18.8689 262.881 18.8689C261.321 18.8689 259.721 20.3228 257.801 22.5843C257.391 23.0689 256.681 23.8665 256.401 24.2401C256.311 24.341 256.171 24.5026 255.921 24.8054C254.92 25.9766 253.56 26.7843 252.2 26.7843C251.96 26.7843 251.84 26.7439 251.76 26.7035C252.96 25.492 254.12 23.3112 254.12 21.6555C254.12 20.0401 253.24 18.8689 251.72 18.8689C249.92 18.8689 247.479 19.8382 245.159 22.0593C244.479 22.7156 243.609 23.604 243.149 24.1492C243.129 24.1694 243.109 24.1997 243.079 24.23C242.999 24.3208 242.939 24.4016 242.899 24.4622C242.769 24.6338 242.579 24.8761 242.269 25.2093C241.589 26.017 240.709 27.1074 239.388 28.0362L239.348 27.9958C239.968 27.3194 240.429 26.5218 240.429 25.5728C240.429 23.917 239.588 23.0285 239.588 20.0401C239.588 19.6362 239.668 19.5151 239.748 19.1112C240.469 18.8689 241.349 18.6266 241.349 17.8593C241.349 17.4959 241.149 17.2536 240.669 17.2536C239.788 17.2536 239.428 18.4247 239.348 18.4651C239.108 18.5863 236.788 21.0901 235.868 22.2612C235.108 23.2204 234.578 23.7655 234.308 24.1088C233.908 24.5329 232.878 25.7646 232.027 26.6227C230.707 27.9958 228.867 29.6112 227.587 29.6112C227.227 29.6112 226.827 29.4496 226.827 28.7631C226.827 27.915 227.477 27.0468 232.277 19.0507H229.867C229.267 19.8987 227.467 21.7362 226.427 22.9478C225.847 23.6242 225.547 23.9675 225.387 24.1593C225.317 24.2199 225.197 24.3814 224.866 24.7651C222.546 27.5112 220.386 29.6112 219.186 29.6112C218.666 29.6112 218.506 29.3689 218.506 29.0458C218.506 27.6324 223.146 20.4237 224.266 19.0507L222.346 19.1516C221.506 19.192 221.586 19.717 220.146 22.0189L220.066 21.9382C220.146 21.6959 220.186 21.292 220.186 20.8478C220.186 19.7574 219.666 18.8689 218.466 18.8689C215.705 18.8689 212.465 20.9285 210.305 23.5939C210.065 23.8867 209.915 24.0482 209.825 24.1694C209.565 24.3713 208.884 25.2699 207.594 26.5016C206.394 27.6323 204.154 29.2881 202.154 29.2881C200.153 29.2881 199.113 27.7535 199.113 24.8054C199.113 20.6862 201.033 16.4055 203.274 13.6997C205.634 15.1536 208.314 16.2036 211.115 16.2036C216.035 16.2036 221.516 13.7401 221.516 8.00555C221.516 4.00749 218.236 2.39212 214.715 2.39212C208.994 2.39212 204.074 6.0671 200.193 10.1055C196.993 5.58249 198.193 1.74597 197.273 1.74597C197.033 1.74597 196.833 1.98828 196.833 2.31135C196.833 3.52288 197.793 8.04593 199.873 10.5094C195.993 14.7901 193.152 19.9593 190.312 25.0074L190.232 24.9266C192.232 20.8074 193.432 14.669 193.432 10.1863C193.432 6.18824 192.072 1.9075 186.872 1.9075C182.911 1.9075 177.83 5.82478 177.83 9.9036C177.83 12.6901 179.511 14.5882 182.271 14.5882ZM251.83 19.3536C252.83 19.3536 253.23 20.2016 253.23 21.1708C253.23 24.8458 249.51 29.6112 246.349 29.6112C245.789 29.6112 245.309 29.2477 245.309 28.117C245.309 24.7247 249.03 19.3536 251.83 19.3536ZM218.476 19.3536C219.316 19.3536 219.716 19.9997 219.716 20.8074C219.716 23.7958 214.715 29.6112 212.395 29.6112C211.755 29.6112 211.475 29.0862 211.475 28.3189C211.475 25.4112 215.235 19.3536 218.476 19.3536ZM216.475 3.28057C218.676 3.28057 220.636 4.57287 220.636 6.8344C220.636 12.044 214.755 15.3151 210.235 15.3151C207.874 15.3151 205.394 14.7497 203.514 13.3363C204.354 12.2055 206.914 9.9036 208.154 9.9036C209.514 9.9036 209.635 10.5498 210.915 10.5498C211.635 10.5498 212.355 9.98438 212.355 9.21708C212.355 8.57093 211.795 8.04592 210.995 8.04592C208.794 8.04592 204.514 11.3574 202.954 12.9324C202.354 12.4478 201.633 11.8421 201.153 11.2767C205.034 7.52094 210.995 3.28057 216.475 3.28057Z" fill="#3D3D3B"/>
<path d="M233.248 16.1632C234.128 16.1632 234.648 15.3151 234.648 14.6286C234.648 14.0228 234.288 13.5786 233.728 13.5786C232.847 13.5786 232.327 14.4267 232.327 15.1132C232.327 15.719 232.687 16.1632 233.248 16.1632Z" fill="#3D3D3B"/>
<path d="M47.4833 5.27959C59.4849 5.27959 68.8761 6.94544 73.6867 8.43966C73.1567 13.417 74.1168 17.8391 76.5771 21.6352C79.2574 25.7746 83.1779 28.2078 86.6984 29.6314C85.0782 40.8784 87.7985 49.6519 87.9186 50.1264L87.9286 50.1567L87.9386 50.187L87.9586 50.2678V50.2779V50.2879C90.3689 58.4961 89.7588 65.634 86.1583 71.4998C83.518 75.8008 79.1274 79.6777 73.4667 82.7065C68.5761 85.3214 63.6054 86.8257 60.585 87.3608C54.3442 88.4612 49.9336 91.1973 46.9332 93.9636C43.9428 91.1771 39.5422 88.431 33.3114 87.2901C30.291 86.7449 25.3304 85.2204 20.4498 82.5752C14.809 79.5262 10.4385 75.6291 7.80811 71.308C4.23764 65.422 3.66759 58.284 6.10791 50.0759L6.1279 49.9952L6.13791 49.9649L6.14789 49.9346C6.27791 49.4601 9.03827 40.7068 7.46807 29.4496C10.9885 28.0463 14.919 25.6333 17.6194 21.504C20.0897 17.718 21.0798 13.2959 20.5698 8.3286C25.4304 6.84448 34.9717 5.33006 47.1332 5.29978C47.2633 5.27958 47.3733 5.27959 47.4833 5.27959ZM47.4833 4.48199V5.28968V4.48199H47.1433C34.6916 4.51228 25.1404 6.08728 20.3498 7.55121L19.7197 7.74303L19.7897 8.40937C20.2797 13.1949 19.3296 17.4454 16.9693 21.0598C14.769 24.4218 11.4786 26.9862 7.18803 28.7025L6.60797 28.9347L6.69798 29.5607C8.06816 39.4145 6.06791 47.3904 5.42782 49.6115L5.39779 49.7327L5.38781 49.763L5.3778 49.7831L5.35781 49.8639C2.84748 58.2942 3.44756 65.6643 7.13804 71.7522C9.83839 76.1945 14.309 80.1825 20.0797 83.3022C25.0404 85.9877 30.101 87.5425 33.1814 88.0978C38.3521 89.0367 42.8027 91.2175 46.4031 94.5694L46.9432 95.0742L47.4833 94.5795C51.1038 91.2478 55.5644 89.0872 60.735 88.1685C63.8154 87.6233 68.8761 86.0887 73.8567 83.4334C79.6375 80.344 84.1381 76.3661 86.8484 71.9441C90.5689 65.8763 91.209 58.5163 88.7287 50.0759L88.6987 49.9851L88.6887 49.9548V49.9346L88.6587 49.8235C88.0286 47.6125 86.0683 39.6164 87.4885 29.7727L87.5785 29.1467L86.9985 28.9145C82.7179 27.178 79.4375 24.5934 77.2572 21.2213C74.9069 17.5968 73.9768 13.3363 74.4968 8.55072L74.5668 7.88437L73.9368 7.69256C68.9561 6.12766 59.3948 4.48199 47.4833 4.48199Z" fill="#3D3D3B"/>
<g opacity="0.2">
<path opacity="0.2" d="M58.5648 49.5812H85.8583C85.7483 49.0865 85.6083 48.4504 85.4583 47.673H60.465C60.465 47.673 59.6149 48.7129 58.5648 49.5812Z" fill="#3D3D3B"/>
<path opacity="0.2" d="M51.0432 47.673V49.5812H53.4935C54.4437 48.9754 55.4038 48.3394 56.2139 47.6831L51.0432 47.673Z" fill="#3D3D3B"/>
<path opacity="0.2" d="M54.4342 52.4788C53.8241 52.8422 52.784 53.3874 52.784 53.3874H86.8484C86.7084 52.7615 86.5584 52.1254 86.3784 51.4792H56.0444C56.0344 51.4792 55.3943 51.9033 54.4342 52.4788Z" fill="#3D3D3B"/>
<path opacity="0.2" d="M51.0438 57.2037H87.4385C87.3785 56.5778 87.2985 55.9418 87.1985 55.2956H51.0438V57.2037Z" fill="#3D3D3B"/>
<path opacity="0.2" d="M51.0438 61.01H87.5185C87.5585 60.384 87.5685 59.748 87.5485 59.1018H51.0438V61.01Z" fill="#3D3D3B"/>
<path opacity="0.2" d="M51.0438 64.8162H86.9585C87.1085 64.1903 87.2385 63.5542 87.3285 62.908H51.0438V64.8162Z" fill="#3D3D3B"/>
<path opacity="0.2" d="M51.0438 68.6325H85.6083C85.8983 68.0066 86.1683 67.3806 86.3884 66.7244H51.0438V68.6325Z" fill="#3D3D3B"/>
<path opacity="0.2" d="M64.2055 72.4388H83.2579C83.728 71.833 84.1681 71.197 84.5781 70.5306H64.2055V72.4388Z" fill="#3D3D3B"/>
<path opacity="0.2" d="M46.9332 76.245H79.6475C80.3276 75.6493 80.9877 75.0132 81.6277 74.3368H46.9432V76.245H46.9332Z" fill="#3D3D3B"/>
<path opacity="0.2" d="M46.9332 80.0613H74.3568C75.2869 79.506 76.2671 78.87 77.2572 78.1531H46.9432V80.0613H46.9332Z" fill="#3D3D3B"/>
<path opacity="0.2" d="M46.9332 83.8675H66.2158C67.676 83.3425 69.2261 82.7165 70.7964 81.9594H46.9332V83.8675Z" fill="#3D3D3B"/>
<path opacity="0.2" d="M46.9332 87.6738H53.144C54.8843 86.8964 56.8145 86.2401 58.9648 85.7656H46.9332V87.6738Z" fill="#3D3D3B"/>
<path opacity="0.2" d="M46.9332 91.4699L46.9432 91.48C47.7433 90.8238 48.6235 90.1877 49.5836 89.5819H46.9332V91.4699Z" fill="#3D3D3B"/>
</g>
<path d="M46.9232 100.809L46.0931 99.7487C43.8128 96.8309 39.6023 93.0852 32.5113 91.803C25.6804 90.5612 10.9185 85.18 3.95762 73.721C-0.322939 66.684 -1.05306 58.2942 1.77731 48.7937L1.82734 48.6322C2.52743 46.1889 4.66771 37.4154 2.51743 27.3295L2.30738 26.34L3.27751 26.0674C6.59794 25.1487 11.1185 23.1799 13.8589 18.9901C16.1392 15.4968 16.7493 11.1858 15.6591 6.16805L15.4591 5.24932L16.3392 4.92623C20.5898 3.38153 31.8612 0.766642 47.1532 0.726257C62.4452 0.837314 73.7067 3.51278 77.9573 5.06758L78.8374 5.39066L78.6373 6.30939C77.5272 11.3171 78.1073 15.6382 80.3776 19.1415C83.0979 23.3415 87.6185 25.3304 90.929 26.2593L91.8991 26.5319L91.679 27.5213C89.4888 37.6073 91.579 46.3808 92.2691 48.8341L92.3191 48.9956C95.1095 58.5062 94.3394 66.8859 90.0288 73.9027C83.0079 85.3315 68.226 90.642 61.3851 91.8535C54.2942 93.1055 50.0636 96.8309 47.7633 99.7386L46.9232 100.809ZM4.79773 27.8444C6.71798 38.0111 4.58767 46.7341 3.86758 49.2279L3.81759 49.4096C1.16724 58.3042 1.82734 66.0984 5.76785 72.6003C12.3387 83.4132 26.3805 88.5117 32.8814 89.693C39.8423 90.955 44.2729 94.4078 46.9232 97.4266C49.5836 94.428 54.0341 90.9954 61.005 89.7636C67.5159 88.6127 81.5777 83.5849 88.1986 72.8022C92.1691 66.3205 92.8692 58.5264 90.2589 49.6317L90.2089 49.45C89.5088 46.9562 87.4185 38.2332 89.3887 28.0665C85.8483 26.9256 81.4077 24.6944 78.5773 20.3429C76.127 16.567 75.3769 12.0137 76.347 6.8142C71.6864 5.27959 61.1751 2.99789 47.1432 2.89693C33.1114 2.92721 22.59 5.15844 17.9294 6.67285C18.8696 11.8824 18.0995 16.4257 15.6391 20.1915C12.7988 24.5025 8.33819 26.7136 4.79773 27.8444Z" fill="#3D3D3B"/>
<path d="M46.9332 52.5091C46.9332 52.5091 47.6833 52.2062 48.0734 52.0547C48.4634 51.9033 49.1535 51.5701 49.1535 51.5701V47.673H46.9332V52.5091Z" fill="#3D3D3B"/>
<path d="M49.1535 55.4672C49.1535 55.4672 48.3934 55.7903 48.0934 55.9013C47.7933 56.0225 46.9232 56.3557 46.9232 56.3557V72.4388H62.1152V70.5306H49.1435V55.4672H49.1535Z" fill="#3D3D3B"/>
<path d="M61.4652 43.4529C61.9752 43.0288 62.5153 42.5543 63.0753 42.0293C63.1354 41.9688 62.9953 41.5245 62.9953 41.5245C62.4653 41.9587 61.9352 42.3726 61.4151 42.7563L60.215 43.5942C58.8448 44.5029 57.6046 45.0986 56.7445 45.0986C55.1643 45.0986 54.2642 43.8062 54.0742 41.7769C53.7241 41.8375 52.784 42.1101 52.0339 42.4231C52.3439 44.5534 53.8041 45.9971 55.6744 46.0375C57.0646 46.0678 58.4547 45.5832 59.9849 44.5635L61.4652 43.4529ZM23.6102 42.8572C21.91 41.2317 20.6198 38.5159 20.6298 36.0221C20.6398 31.8928 24.2403 29.4294 27.2206 29.4395C30.3811 29.4496 32.9914 31.8827 32.9914 35.1438C32.9914 37.1731 32.0813 38.839 30.071 39.4144C30.151 39.5255 30.341 39.7678 30.341 39.7678C31.8912 39.3741 34.4116 37.5063 34.4216 34.0231C34.4316 30.7924 31.7012 28.5107 28.6208 28.5006C23.4101 28.4905 19.5597 32.539 19.5497 37.8697C19.5397 40.3736 20.7598 42.6048 22.25 43.9981C22.8001 44.513 24.1403 45.25 24.6803 45.4317C25.4004 45.6841 27.1506 45.987 27.9407 45.9769C31.4012 45.9163 34.6616 44.8562 37.312 43.0288C37.0319 42.9582 36.7419 42.8976 36.4619 42.8572C34.4216 43.9981 31.9413 44.8764 29.811 44.8966C27.2706 44.9168 25.3704 44.5534 23.6102 42.8572Z" fill="#3D3D3B"/>
<path d="M68.066 20.9891C62.9353 20.979 58.8848 23.2304 54.8742 27.5314C52.0139 23.4626 53.234 20.3732 52.4139 20.3732C52.1939 20.3732 52.0139 20.5852 52.0139 20.878C52.0139 21.9684 52.754 25.6232 54.6142 27.8342C51.1238 31.6708 48.9835 35.1943 46.8132 39.7981C48.8134 35.2751 50.0936 31.7212 50.0936 27.703C50.0936 17.6978 46.0031 12.4377 40.5424 12.4377C36.9919 12.4276 32.4213 15.9309 32.4113 19.5958C32.4013 22.0997 33.9115 23.8059 36.3918 23.8059C39.6223 23.816 40.8624 20.7771 41.1024 19.8987L40.7324 19.8482C40.7324 19.8482 40.6024 20.1511 40.4524 20.4439C39.8223 21.6655 38.6521 23.0083 36.9319 23.0083C34.6316 22.9982 34.0615 20.7872 34.0715 18.9093C34.0815 15.7189 37.1019 12.8718 40.3723 12.8718C44.2528 12.8718 47.6633 18.0006 47.0332 25.5222C46.5331 31.5496 43.6028 36.6885 39.3222 40.5452C39.5822 40.626 39.7823 40.6967 39.9623 40.7673C43.9728 37.476 47.2132 33.1852 48.2934 29.2073H48.3634C48.3634 30.6914 48.0634 32.8318 47.7733 34.2756C46.8232 39.0308 45.7931 40.9491 44.8829 42.1909C45.483 41.8779 46.3231 41.4741 46.9132 41.2418C47.8533 39.3034 49.9036 34.9419 55.5343 29.1871C56.0744 29.7323 56.6845 30.3179 57.1846 30.6813C54.9043 33.1246 52.2839 36.6279 51.6638 39.889C52.3939 39.7274 52.944 39.6265 53.6641 39.5861C54.0841 36.4462 56.0444 33.1751 57.7546 31.1155C59.8749 32.428 62.2752 33.377 64.7855 33.377C69.2061 33.3871 74.1268 31.1861 74.1368 26.0371C74.1668 22.453 71.2264 20.9891 68.066 20.9891ZM64.0154 32.5794C61.8952 32.5794 59.6749 32.0645 57.9847 30.7924C58.7448 29.7828 61.045 27.7232 62.1552 27.7232C63.3753 27.7232 63.4854 28.3088 64.6355 28.3088C65.2856 28.3088 65.9257 27.804 65.9357 27.1174C65.9357 26.542 65.4356 26.0674 64.7155 26.0674C62.7453 26.0674 58.8948 29.0256 57.4846 30.439C56.9445 30.0049 56.3044 29.4597 55.8744 28.9448C59.3648 25.5828 64.7255 21.7867 69.6462 21.7968C71.6164 21.7968 73.3767 22.9679 73.3767 24.9972C73.3567 29.6616 68.066 32.5895 64.0154 32.5794Z" fill="#3D3D3B"/>
<path d="M27.0006 77.7998C34.3016 77.7998 44.1729 72.1258 44.1729 65.4119C44.1729 63.1403 43.0427 61.4946 40.7824 61.4946C36.2618 61.4946 30.6011 66.9667 29.1609 69.5412L29.4709 69.9551C32.1413 66.0378 36.9819 62.1105 40.5824 62.1105C42.3326 62.1105 43.5628 63.2412 43.5628 64.9979C43.5628 69.9551 32.8714 77.1738 27.0006 77.1738C24.6403 77.1738 22.17 76.245 22.17 73.5594C22.17 69.6421 29.0309 61.4845 32.3213 58.0821C44.6629 57.9811 61.8652 49.4096 61.8652 43.1197C61.8652 40.4341 58.9848 39.9193 56.9245 39.9193C46.6432 39.9193 33.5215 49.4903 28.2708 56.6081C24.3603 56.4062 21.7499 54.1547 21.7499 50.7524C21.7499 44.7654 26.8906 41.151 32.8614 41.151C36.2518 41.151 39.0322 41.9789 41.1925 43.1096L41.5025 42.4937C39.4422 41.2519 36.2618 40.5351 32.9614 40.5351C26.6906 40.5351 19.8997 43.6346 19.8997 50.6514C19.8997 55.4975 24.5003 57.3956 27.3207 57.7893C24.1303 61.1917 20.9198 66.6436 20.9198 71.7018C20.9298 75.6392 23.0901 77.7998 27.0006 77.7998ZM56.9245 40.5351C58.6748 40.5351 61.2451 40.8481 61.2451 43.1197C61.2451 48.3798 47.5533 56.0629 33.2614 56.7898C38.4921 51.0048 48.5934 40.5351 56.9245 40.5351Z" fill="#3D3D3B"/>
</svg>
