<?xml version="1.0" encoding="utf-8"?>
<svg width="275" height="101" viewBox="0 0 275 101" fill="none" xmlns="http://www.w3.org/2000/svg">
<path d="M112.033 58.9208C119.954 58.9208 130.655 52.7319 130.655 45.4122C130.655 42.9387 129.425 41.1314 126.975 41.1314C122.064 41.1314 115.933 47.0982 114.373 49.9151L114.703 50.3694C117.603 46.0886 122.844 41.818 126.744 41.818C128.645 41.818 129.975 43.0598 129.975 44.968C129.975 50.3694 118.373 58.2544 112.023 58.2544C109.462 58.2544 106.782 57.2448 106.782 54.317C106.782 50.0362 114.033 40.9194 117.603 37.2041C130.985 37.093 149.827 27.9763 149.827 21.1109C149.827 18.183 146.707 17.6177 144.477 17.6177C133.325 17.6177 119.614 28.5416 113.923 36.3055C109.682 36.0834 106.342 33.1555 106.342 29.4402C106.342 22.908 111.923 18.9705 118.383 18.9705C122.064 18.9705 125.074 19.8691 127.415 21.1109L127.745 20.4345C125.514 19.0816 122.054 18.2941 118.493 18.2941C111.693 18.2941 104.332 21.6763 104.332 29.3291C104.332 34.6195 108.902 36.5377 113.143 36.982C109.682 40.6973 105.452 46.7752 105.452 52.2876C105.452 56.5583 107.792 58.9208 112.033 58.9208ZM144.477 18.2739C146.377 18.2739 149.157 18.6071 149.157 21.0907C149.157 26.8354 133.435 35.7301 117.933 36.5176C123.614 30.2075 135.436 18.2739 144.477 18.2739Z" fill="white"/>
<path d="M269.163 49.7333L267.563 47.5828C268.423 47.3203 268.903 46.6035 268.903 45.7857C268.903 44.5742 267.903 44.0593 266.613 44.0593H263.992V44.3521H264.352C264.612 44.3521 264.832 44.4531 264.832 44.7761V49.7636C264.832 50.0867 264.602 50.1876 264.352 50.1876H263.992V50.4804H266.543V50.1876H266.183C265.923 50.1876 265.703 50.0867 265.703 49.7636V47.7141H266.733C268.573 50.4905 268.753 50.4905 268.973 50.4905H269.893V50.3593C269.723 50.329 269.533 50.2482 269.163 49.7333ZM266.603 47.4213H265.703V44.3521H266.543C267.283 44.3521 267.933 44.6752 267.933 45.816C267.933 46.866 267.483 47.4213 266.603 47.4213Z" fill="white"/>
<path d="M266.703 41.3939C263.422 41.3939 260.772 44.0694 260.772 47.3809C260.772 47.8958 260.842 48.4006 260.962 48.8751C255.051 54.3674 249.561 58.2443 247.63 58.2443C246.96 58.2443 246.51 57.9111 246.51 57.1237C246.51 56.2251 247.12 55.4881 249.741 52.5602L259.782 41.2425H256.211L249.58 48.6732C243 55.9929 238.929 58.2443 236.419 58.2443C234.859 58.2443 233.908 57.6789 233.908 56.7804C233.908 55.9323 234.408 54.9227 236.079 53.0044L246.39 41.2425H242.71L236.449 48.6833C233.648 51.5708 225.257 58.2443 222.067 58.2443C221.337 58.2443 220.727 57.9111 220.727 57.0631C220.727 56.5582 221.057 55.9929 222.067 54.8722C225.967 50.541 231.208 44.6853 234.779 41.2526H230.878L227.978 44.2915H227.868C228.088 43.6151 228.088 43.2819 228.088 42.9386C228.088 41.4747 226.527 40.5762 224.627 40.5762C221.067 40.5762 212.706 45.3112 209.345 50.7732C203.815 55.1751 198.814 58.2544 194.573 58.2544C193.463 58.2544 192.343 58.0323 192.343 56.9015C192.343 56.114 192.843 54.8722 196.134 51.2679C200.264 51.2679 209.965 48.3401 209.965 43.1103C209.965 41.6463 208.965 40.5762 207.455 40.5762C203.755 40.5762 198.114 44.2814 194.413 48.542C185.392 56.6895 181.952 58.2544 180.341 58.2544C179.781 58.2544 179.111 58.0323 179.111 57.4669C179.111 56.7905 180.281 55.6092 182.572 53.0751L192.943 41.7978H196.564L197.014 41.1214H193.553L198.114 36.5175H194.433L189.873 41.1214H186.192L185.632 41.7978H189.253L182.622 49.0468C179.531 52.0857 171.66 58.2544 168.6 58.2544C167.88 58.2544 167.27 57.9212 167.26 57.0833C167.27 56.5785 167.6 56.0131 168.6 54.9025C172.5 50.5713 177.741 44.7156 181.312 41.2829H181.282C181.292 41.2728 181.302 41.2627 181.312 41.2526H177.411L174.511 44.2915H174.411C174.621 43.6353 174.621 43.3021 174.621 42.9689C174.621 42.9588 174.621 42.9487 174.621 42.9386C174.621 41.4747 173.061 40.5762 171.16 40.5762C167.64 40.5762 159.439 45.2002 155.998 50.5713C149.967 55.9727 146.867 58.2544 145.237 58.2544C144.677 58.2544 144.347 57.9212 144.347 57.4669C144.347 55.5487 153.718 48.7944 153.718 44.1805C153.718 42.2117 152.488 40.9194 150.708 40.9194C147.807 40.9194 143.127 44.7458 140.666 46.6641V46.5531L145.847 40.6468C157.108 35.8613 170.66 26.7445 170.66 20.9494C170.66 19.6571 169.88 18.6373 168.76 18.6373C167.27 18.6373 165.179 19.647 162.329 21.7974C161.979 20.7878 161.789 19.6974 161.789 18.5768C161.789 13.973 165.79 11.2268 169.11 11.2268C172.63 11.2268 175.551 13.9326 175.551 17.5672C175.551 19.8287 174.551 21.6864 172.31 22.3325C172.24 22.3527 172.17 22.3729 172.12 22.3931C172.1 22.4638 172.07 22.5345 172.04 22.6051C172.04 22.6152 172.03 22.6253 172.03 22.6253C172.03 22.6354 172.02 22.6455 172.02 22.6556C172 22.7061 171.97 22.7465 171.94 22.797C171.96 22.8071 171.98 22.807 172 22.807C173.561 22.807 177.161 20.707 177.161 16.3052C177.161 12.7109 174.121 10.1667 170.68 10.1667C164.879 10.1667 160.599 14.6898 160.599 20.6263C160.599 21.4542 160.699 22.2215 160.869 22.9484C156.138 26.8152 149.567 33.3978 140.556 43.2314L127.065 57.9212H130.965C138.546 48.3501 146.907 41.5959 150.588 41.5959C151.698 41.5959 152.368 42.2723 152.368 43.1709C152.368 45.3112 142.997 52.116 142.997 56.3462C142.997 58.1433 143.947 58.9308 145.227 58.9308C147.127 58.9308 150.668 56.2352 155.108 52.227C154.678 53.2165 154.428 54.2261 154.428 55.2155C154.428 55.2256 154.428 55.2256 154.428 55.2357V55.2458C154.428 57.6083 155.768 58.9611 157.999 58.9611C160.289 58.9611 163.129 57.3862 166.31 54.3472H166.41C166.09 55.0136 165.92 55.791 165.92 56.6794V56.6895C165.92 56.6996 165.92 56.6996 165.92 56.6996C165.92 57.7092 166.7 58.951 168.37 58.951C171.22 58.951 176.041 55.6193 179.711 52.5602C178.521 54.2664 178.111 55.4881 178.111 56.5582C178.111 57.8505 178.781 58.9208 180.121 58.9208C182.382 58.9208 186.192 56.4876 192.643 50.854C191.433 52.6814 190.673 54.5088 190.673 56.1039C190.673 58.2443 192.453 58.9208 194.133 58.9208C198.894 58.9208 204.115 55.6597 208.665 52.0554C208.195 53.0953 207.915 54.1554 207.915 55.2054C207.915 57.5679 209.255 58.9208 211.486 58.9208C213.776 58.9208 216.616 57.3458 219.797 54.3068H219.907C219.577 54.9833 219.407 55.7708 219.407 56.6693C219.407 57.6789 220.187 58.9208 221.857 58.9208C224.827 58.9208 229.948 55.2963 233.658 52.1261C232.738 53.479 232.228 54.7611 232.228 55.9323C232.228 57.5073 233.958 58.9107 235.799 58.9107C238.919 58.9107 241.819 56.9924 245.72 53.5092L245.83 53.6203C245.44 54.1857 245.16 54.9732 245.16 56.0938C245.05 57.6688 245.94 58.9107 247.45 58.9107C250.021 58.9107 254.701 55.1044 261.162 49.5213C262.012 51.7626 264.162 53.3578 266.693 53.3578C269.973 53.3578 272.624 50.6823 272.624 47.3708C272.624 44.0593 269.983 41.3939 266.703 41.3939ZM207.475 41.2324C208.195 41.2324 208.645 41.7372 208.645 42.3632C208.645 45.4021 202.674 50.5814 196.714 50.5814C202.454 44.0492 205.355 41.2324 207.475 41.2324ZM161.339 24.2609C161.819 25.3815 162.509 26.3508 163.369 27.1282C163.429 27.0777 163.489 27.0272 163.549 26.9666C163.729 26.795 163.909 26.6234 164.089 26.4416C164.269 26.2599 164.439 26.0883 164.619 25.9065C164.709 25.8157 164.799 25.7147 164.879 25.6239C164.039 24.8364 163.349 23.8974 162.839 22.8676C165.339 20.6162 167.29 19.2734 168.47 19.2734C169.7 19.2734 170.03 19.9498 170.03 21.0705C170.03 26.9767 153.418 36.8305 147.167 39.4757L147.077 39.3848C152.418 33.5089 157.408 28.0166 161.339 24.2609ZM158.199 52.4088C167.45 42.5045 169.35 41.2627 171.8 41.2627C172.74 41.2627 173.961 41.929 173.971 43.2112C173.951 46.1593 163.319 58.2241 158.029 58.2241C156.638 58.2241 155.798 57.4972 155.798 56.4876C155.798 55.8717 155.988 54.741 158.199 52.4088ZM211.496 58.2342C210.105 58.2342 209.265 57.5073 209.265 56.4876C209.265 55.8717 209.435 54.741 211.666 52.3785C220.917 42.4742 222.817 41.2324 225.267 41.2324C226.217 41.2324 227.438 41.9088 227.438 43.2011C227.448 46.129 216.796 58.2342 211.496 58.2342ZM266.703 52.964C263.652 52.964 261.162 50.4501 261.162 47.3708C261.162 44.2915 263.652 41.7776 266.703 41.7776C269.753 41.7776 272.243 44.2915 272.243 47.3708C272.243 50.4501 269.753 52.964 266.703 52.964Z" fill="white"/>
<path d="M176.871 32.8425C173.441 35.6189 171.45 36.5074 168.9 37.4766L169.12 37.6987C172.02 37.1333 174.921 35.9016 177.371 34.0944C177.371 35.5583 178.151 37.2444 179.381 37.6987L179.601 37.4766C179.151 37.1434 178.711 36.3458 178.711 35.4473C178.711 33.9834 178.881 34.1853 179.661 32.8324H176.871V32.8425Z" fill="white"/>
<path d="M108.022 87.8359L108.002 65.7153L105.492 65.7254L105.522 90.0267L121.384 90.0065V87.8157L108.022 87.8359Z" fill="white"/>
<path d="M135.886 65.6851H133.185L123.534 89.9965H126.194L129.055 82.5051L139.746 82.495L142.657 89.9762H145.347L135.906 65.7557L135.886 65.6851ZM129.855 80.3244L134.445 68.4211L138.906 80.3042L129.855 80.3244Z" fill="white"/>
<path d="M187.982 65.6245L188.002 80.6374C188.002 82.0105 187.852 83.1917 187.542 84.1609C187.242 85.1201 186.792 85.9076 186.202 86.5133C185.622 87.1191 184.892 87.5633 184.052 87.8359C183.202 88.1085 182.212 88.2499 181.112 88.26H181.102C180.031 88.26 179.061 88.1186 178.211 87.846C177.361 87.5734 176.641 87.1292 176.051 86.5335C175.461 85.9277 175.011 85.1403 174.711 84.1912C174.401 83.2321 174.251 82.0508 174.241 80.6677L174.221 65.6548H171.72L171.74 81.1725C171.74 82.4143 171.92 83.6158 172.27 84.7263C172.62 85.847 173.181 86.8465 173.931 87.6845C174.681 88.5224 175.671 89.1989 176.851 89.6835C178.021 90.1681 179.451 90.4104 181.102 90.4104C181.112 90.4104 181.112 90.4104 181.122 90.4104C182.802 90.4104 184.242 90.158 185.422 89.6734C186.602 89.1888 187.582 88.5124 188.332 87.6643C189.083 86.8263 189.643 85.8268 189.993 84.7061C190.343 83.5854 190.513 82.3941 190.513 81.1523L190.493 65.6346L187.982 65.6245Z" fill="white"/>
<path d="M197.499 65.6131L194.999 65.6162L195.029 89.9175L197.529 89.9144L197.499 65.6131Z" fill="white"/>
<path d="M220.857 68.9159C219.917 67.7549 218.716 66.8159 217.306 66.1294C215.896 65.4429 214.236 65.0996 212.366 65.0996C212.356 65.0996 212.356 65.0996 212.346 65.0996C210.465 65.0996 208.795 65.453 207.375 66.1496C205.955 66.8462 204.755 67.7852 203.815 68.9462C202.874 70.1073 202.164 71.4702 201.694 72.9847C201.224 74.4991 200.994 76.1043 200.994 77.7702C200.994 79.436 201.234 81.0514 201.704 82.5557C202.174 84.0701 202.894 85.423 203.835 86.574C204.775 87.7249 205.975 88.6639 207.405 89.3504C208.825 90.0369 210.495 90.3802 212.366 90.3802C212.376 90.3802 212.376 90.3802 212.386 90.3802C214.266 90.3802 215.936 90.0268 217.346 89.3302C218.756 88.6437 219.947 87.7047 220.887 86.5437C221.827 85.3927 222.537 84.0398 223.007 82.5254C223.477 81.0211 223.707 79.4058 223.707 77.7399C223.707 76.074 223.467 74.4587 222.997 72.9544C222.507 71.4299 221.797 70.077 220.857 68.9159ZM220.687 81.5663C220.347 82.8182 219.817 83.949 219.107 84.9384C218.396 85.9177 217.476 86.7254 216.376 87.3211C215.276 87.9167 213.926 88.2196 212.376 88.2196H212.366C210.815 88.2196 209.465 87.9168 208.355 87.3312C207.235 86.7355 206.315 85.9379 205.605 84.9586C204.895 83.9793 204.355 82.8384 204.015 81.5966C203.675 80.3447 203.494 79.0625 203.494 77.7702C203.494 76.4577 203.665 75.1654 204.005 73.9236C204.345 72.6818 204.875 71.5611 205.585 70.5717C206.295 69.5924 207.215 68.7948 208.335 68.189C209.445 67.5933 210.795 67.2904 212.356 67.2904H212.366C213.916 67.2904 215.256 67.5933 216.356 68.1789C217.456 68.7746 218.376 69.5722 219.087 70.5515C219.797 71.5308 220.337 72.6616 220.677 73.9034C221.017 75.1452 221.197 76.4375 221.197 77.75C221.197 79.0221 221.027 80.3043 220.687 81.5663Z" fill="white"/>
<path d="M228.628 87.6844L228.608 65.574H226.097L226.127 89.8752L241.99 89.8551V87.6642L228.628 87.6844Z" fill="white"/>
<path d="M246.44 87.6643L246.43 78.3961L259.722 78.3759V76.1851L246.43 76.2053L246.42 67.7346L260.612 67.7246V65.5337L243.91 65.5539L243.94 89.8552L260.802 89.835V87.6441L246.44 87.6643Z" fill="white"/>
<path d="M157.478 77.4471V79.6379L165.59 79.6278C165.6 80.8494 165.44 81.9802 165.099 83.01C164.749 84.0701 164.219 84.999 163.519 85.7663C162.819 86.5336 161.959 87.1494 160.939 87.5734C159.919 88.0076 158.749 88.2297 157.458 88.2297C157.448 88.2297 157.448 88.2297 157.438 88.2297C155.888 88.2297 154.548 87.9268 153.438 87.3412C152.328 86.7456 151.398 85.948 150.688 84.9687C149.977 83.9893 149.437 82.8586 149.097 81.6067C148.757 80.3548 148.577 79.0726 148.577 77.7803C148.577 76.4678 148.747 75.1755 149.087 73.9336C149.427 72.6918 149.958 71.5611 150.668 70.5817C151.378 69.6024 152.298 68.7947 153.418 68.1991C154.528 67.6034 155.878 67.3005 157.438 67.3005H157.448C158.559 67.3005 159.569 67.4822 160.469 67.8457C161.369 68.2092 162.149 68.6837 162.789 69.2592C163.439 69.8346 163.959 70.4707 164.339 71.1673C164.719 71.8538 164.949 72.5505 165.009 73.2269L165.019 73.338H167.53L167.51 73.1966C167.28 71.8639 166.86 70.6827 166.25 69.6832C165.64 68.6837 164.889 67.8356 164.019 67.1591C163.139 66.4827 162.129 65.9678 161.009 65.6246C159.899 65.2914 158.699 65.1198 157.448 65.1198H157.438C155.558 65.1198 153.888 65.4731 152.468 66.1698C151.048 66.8664 149.847 67.8053 148.907 68.9664C147.967 70.1274 147.257 71.4904 146.787 73.0048C146.317 74.5192 146.087 76.1245 146.087 77.7904C146.087 79.4562 146.327 81.0716 146.797 82.5759C147.267 84.0903 147.987 85.4331 148.927 86.5941C149.867 87.7451 151.068 88.684 152.498 89.3705C153.918 90.0571 155.578 90.4004 157.448 90.4004C157.458 90.4004 157.458 90.4004 157.468 90.4004C158.339 90.4004 159.199 90.3095 160.009 90.1277C160.829 89.946 161.609 89.6532 162.329 89.2494C163.049 88.8556 163.709 88.3306 164.309 87.7047C164.839 87.1494 165.3 86.4831 165.68 85.736L165.97 89.9157H167.83L167.81 77.4471H157.478Z" fill="white"/>
<path d="M182.182 13.8619C185.782 13.8619 187.422 9.86383 187.422 9.50037C187.422 9.37921 187.342 9.29843 187.182 9.29843C187.022 9.29843 186.942 9.62153 186.702 10.1061C186.022 11.4792 184.702 12.9734 182.782 12.9734C180.221 12.9734 179.581 10.51 179.581 8.41C179.581 4.85618 182.942 1.6658 186.582 1.6658C190.063 1.6658 190.863 4.57348 190.863 7.36C190.863 16.4869 181.582 28.4003 172.06 28.4003C170.85 28.4003 169.71 28.1983 168.66 27.8551C168.56 27.9661 168.47 28.0873 168.37 28.1983C168.21 28.3901 168.04 28.582 167.88 28.7738C167.73 28.9454 167.58 29.1171 167.43 29.2887C168.25 29.5007 169.11 29.6118 169.98 29.6118C179.581 29.6118 190.343 19.3541 192.623 10.8734H192.703C192.703 12.5292 192.383 14.9119 192.063 16.5272C189.903 27.4714 186.782 26.3406 186.782 29.0464C186.782 29.531 187.142 29.8541 187.622 29.8541C190.183 29.8541 188.183 23.6753 200.704 10.8331C201.304 11.4388 201.984 12.085 202.544 12.4888C199.584 15.6792 196.704 20.2426 196.704 24.4426C196.704 27.6733 197.944 29.6118 200.864 29.6118C203.345 29.6118 206.545 27.7137 209.185 24.7253C209.575 24.281 209.805 24.0084 209.915 23.8166C209.935 23.8065 209.955 23.7964 209.985 23.7964C209.865 24.4426 209.785 25.0484 209.785 25.6945C209.785 27.5118 210.265 29.3695 212.306 29.3695C213.826 29.3695 216.066 27.0676 217.266 25.8561C217.266 26.058 217.226 26.3003 217.226 26.583C217.226 28.8041 217.906 29.3695 218.987 29.3695C220.067 29.3695 221.587 28.1176 223.427 26.1791C224.167 25.3613 225.147 24.2609 225.497 23.8267C225.567 23.7561 225.677 23.6248 225.867 23.3926C227.788 21.2118 228.788 20.1618 229.268 19.6772L229.348 19.758C227.988 21.8176 225.547 24.5637 225.547 27.2695C225.547 28.481 226.227 29.3695 227.468 29.3695C228.588 29.3695 230.228 28.3195 232.188 26.2599C233.438 24.9373 234.169 24.0892 234.469 23.6955C234.489 23.6652 234.519 23.6349 234.549 23.5945C235.509 22.5041 238.709 18.6676 239.189 18.3849L239.269 18.4657C239.029 18.6676 239.029 20.3234 239.029 22.2618C239.029 24.4426 236.869 28.8849 234.989 28.8849C234.509 28.8849 234.309 28.6426 234.309 28.2791C234.309 27.5522 234.869 27.8753 234.869 27.0676C234.869 26.7041 234.469 26.4214 234.028 26.4214C233.308 26.4214 233.028 26.8657 233.028 27.5522C233.028 27.9964 233.348 28.6829 233.668 28.9252C234.189 29.3291 234.549 29.3695 235.469 29.3695C237.709 29.3695 239.589 28.0772 241.75 25.6137C242.49 24.7858 243.27 23.8671 243.37 23.645C243.47 23.5339 243.59 23.433 243.71 23.433C243.79 23.433 243.83 23.5138 243.83 23.6753C243.83 23.9176 243.63 24.3214 243.63 25.7753C243.63 27.956 244.51 29.3695 246.11 29.3695C248.35 29.3695 249.991 27.9156 251.231 26.5022C251.351 26.5426 251.471 26.5426 251.751 26.5426C253.311 26.5426 254.711 25.856 255.711 24.806C256.321 24.1599 256.561 23.8772 256.651 23.7359C256.871 23.4734 257.312 22.9181 258.392 21.7368C260.432 19.4753 261.512 18.6272 262.632 18.6272C262.952 18.6272 263.232 18.8292 263.232 19.233C263.232 20.4849 257.592 27.8753 256.831 29.3695L259.512 29.1272C260.712 27.2291 267.953 18.6272 269.873 18.6272C270.233 18.6272 270.433 18.8291 270.433 19.1118C270.433 20.2022 266.113 23.5541 266.113 26.7849C266.113 28.2387 266.673 29.3695 267.873 29.3695C268.793 29.3695 270.193 28.2791 271.953 26.5022C272.474 25.9772 274.474 23.7561 274.474 23.5541C274.474 23.4734 274.434 23.3522 274.314 23.3522C274.074 23.3522 274.234 23.4734 272.194 25.6541C270.553 27.431 268.873 28.8849 267.953 28.8849C267.553 28.8849 267.313 28.481 267.313 28.0772C267.313 27.431 268.193 25.9772 269.993 23.5138C270.673 22.5849 271.473 21.4138 271.473 20.0407C271.473 19.1926 271.033 18.1426 270.033 18.1426C267.993 18.1426 263.392 23.7965 261.832 25.2907L261.752 25.2099C262.632 24.0387 264.272 21.7368 264.272 20.1214C264.272 18.9099 263.832 18.1426 262.792 18.1426C261.232 18.1426 259.632 19.5965 257.712 21.858C257.302 22.3426 256.591 23.1402 256.311 23.5138C256.221 23.6147 256.081 23.7762 255.831 24.0791C254.831 25.2503 253.471 26.058 252.111 26.058C251.871 26.058 251.751 26.0176 251.671 25.9772C252.871 24.7657 254.031 22.5849 254.031 20.9292C254.031 19.3138 253.151 18.1426 251.631 18.1426C249.831 18.1426 247.39 19.1118 245.07 21.333C244.39 21.9892 243.52 22.8777 243.06 23.4229C243.04 23.4431 243.02 23.4734 242.99 23.5036C242.91 23.5945 242.85 23.6753 242.81 23.7359C242.68 23.9075 242.49 24.1498 242.18 24.483C241.499 25.2907 240.619 26.3811 239.299 27.3099L239.259 27.2695C239.879 26.5931 240.339 25.7955 240.339 24.8464C240.339 23.1907 239.499 22.3022 239.499 19.3138C239.499 18.9099 239.579 18.7888 239.659 18.3849C240.379 18.1426 241.259 17.9003 241.259 17.133C241.259 16.7696 241.059 16.5272 240.579 16.5272C239.699 16.5272 239.339 17.6984 239.259 17.7388C239.019 17.8599 236.699 20.3638 235.779 21.5349C235.019 22.4941 234.489 23.0392 234.219 23.3825C233.818 23.8065 232.788 25.0382 231.938 25.8964C230.618 27.2695 228.778 28.8849 227.498 28.8849C227.138 28.8849 226.738 28.7233 226.738 28.0368C226.738 27.1887 227.388 26.3205 232.188 18.3243H229.778C229.178 19.1724 227.378 21.0099 226.337 22.2215C225.757 22.8979 225.457 23.2411 225.297 23.433C225.227 23.4935 225.107 23.6551 224.777 24.0387C222.457 26.7849 220.297 28.8849 219.097 28.8849C218.576 28.8849 218.416 28.6426 218.416 28.3195C218.416 26.906 223.057 19.6974 224.177 18.3243L222.257 18.4253C221.417 18.4657 221.497 18.9907 220.057 21.2926L219.977 21.2118C220.057 20.9695 220.097 20.5657 220.097 20.1214C220.097 19.0311 219.577 18.1426 218.376 18.1426C215.616 18.1426 212.376 20.2022 210.215 22.8676C209.975 23.1604 209.825 23.3219 209.735 23.4431C209.475 23.645 208.795 24.5435 207.505 25.7753C206.305 26.906 204.065 28.5618 202.064 28.5618C200.064 28.5618 199.024 27.0272 199.024 24.0791C199.024 19.9599 200.944 15.6792 203.184 12.9734C205.545 14.4273 208.225 15.4773 211.025 15.4773C215.946 15.4773 221.427 13.0138 221.427 7.27923C221.427 3.28118 218.146 1.6658 214.626 1.6658C208.905 1.6658 203.985 5.34078 200.104 9.37922C196.904 4.85617 198.104 1.01965 197.184 1.01965C196.944 1.01965 196.744 1.26196 196.744 1.58503C196.744 2.79656 197.704 7.31961 199.784 9.78306C195.904 14.0638 193.063 19.233 190.223 24.2811L190.143 24.2003C192.143 20.0811 193.343 13.9426 193.343 9.45997C193.343 5.46192 191.983 1.18118 186.782 1.18118C182.822 1.18118 177.741 5.09846 177.741 9.17728C177.741 11.9638 179.421 13.8619 182.182 13.8619ZM251.741 18.6272C252.741 18.6272 253.141 19.4753 253.141 20.4445C253.141 24.1195 249.421 28.8849 246.26 28.8849C245.7 28.8849 245.22 28.5214 245.22 27.3906C245.22 23.9984 248.94 18.6272 251.741 18.6272ZM218.386 18.6272C219.227 18.6272 219.627 19.2734 219.627 20.0811C219.627 23.0695 214.626 28.8849 212.306 28.8849C211.666 28.8849 211.386 28.3599 211.386 27.5926C211.386 24.6849 215.146 18.6272 218.386 18.6272ZM216.386 2.55425C218.586 2.55425 220.547 3.84655 220.547 6.10808C220.547 11.3177 214.666 14.5888 210.145 14.5888C207.785 14.5888 205.305 14.0234 203.425 12.61C204.265 11.4792 206.825 9.17728 208.065 9.17728C209.425 9.17728 209.545 9.82345 210.825 9.82345C211.546 9.82345 212.266 9.25806 212.266 8.49076C212.266 7.84461 211.706 7.31961 210.905 7.31961C208.705 7.31961 204.425 10.6311 202.864 12.2061C202.264 11.7215 201.544 11.1158 201.064 10.5504C204.945 6.79462 210.905 2.55425 216.386 2.55425Z" fill="white"/>
<path d="M233.158 15.4369C234.038 15.4369 234.559 14.5888 234.559 13.9023C234.559 13.2965 234.198 12.8523 233.638 12.8523C232.758 12.8523 232.238 13.7004 232.238 14.3869C232.238 14.9927 232.598 15.4369 233.158 15.4369Z" fill="white"/>
<path d="M47.3941 4.55334C59.3957 4.55334 68.7869 6.21918 73.5975 7.7134C73.0675 12.6908 74.0276 17.1129 76.4879 20.909C79.1682 25.0484 83.0887 27.4815 86.6092 28.9051C84.989 40.1521 87.7093 48.9256 87.8294 49.4001L87.8394 49.4304L87.8494 49.4607L87.8694 49.5415V49.5516V49.5617C90.2797 57.7698 89.6696 64.9077 86.0691 70.7736C83.4288 75.0745 79.0382 78.9514 73.3775 81.9802C68.4869 84.5951 63.5162 86.0994 60.4958 86.6345C54.255 87.735 49.8444 90.471 46.844 93.2374C43.8536 90.4508 39.453 87.7047 33.2222 86.5638C30.2018 86.0186 25.2412 84.4942 20.3606 81.849C14.7198 78.8 10.3492 74.9029 7.71891 70.5817C4.14844 64.6957 3.57838 57.5578 6.0187 49.3497L6.03869 49.2689L6.0487 49.2386L6.05869 49.2083C6.1887 48.7338 8.94907 39.9805 7.37886 28.7234C10.8993 27.32 14.8298 24.9071 17.5302 20.7778C20.0005 16.9917 20.9906 12.5696 20.4806 7.60234C25.3412 6.11822 34.8825 4.60381 47.044 4.57352C47.1741 4.55333 47.2841 4.55334 47.3941 4.55334ZM47.3941 3.75574V4.56343V3.75574H47.0541C34.6024 3.78603 25.0512 5.36102 20.2605 6.82496L19.6305 7.01677L19.7005 7.68311C20.1905 12.4687 19.2404 16.7191 16.8801 20.3335C14.6798 23.6955 11.3894 26.2599 7.09883 27.9762L6.51877 28.2085L6.60878 28.8344C7.97895 38.6882 5.9787 46.6641 5.33862 48.8853L5.30859 49.0064L5.29861 49.0367L5.2886 49.0569L5.2686 49.1377C2.75828 57.5679 3.35835 64.938 7.04884 71.026C9.74919 75.4683 14.2198 79.4562 19.9905 82.5759C24.9512 85.2615 30.0118 86.8163 33.0922 87.3715C38.2629 88.3105 42.7135 90.4912 46.3139 93.8431L46.854 94.3479L47.3941 93.8532C51.0146 90.5215 55.4751 88.361 60.6458 87.4422C63.7262 86.897 68.7869 85.3624 73.7675 82.7072C79.5483 79.6178 84.0489 75.6399 86.7592 71.2178C90.4797 65.1501 91.1198 57.79 88.6395 49.3497L88.6095 49.2588L88.5995 49.2285V49.2083L88.5694 49.0973C87.9394 46.8862 85.9791 38.8901 87.3993 29.0464L87.4893 28.4205L86.9093 28.1883C82.6287 26.4518 79.3483 23.8672 77.168 20.4951C74.8177 16.8706 73.8876 12.61 74.4076 7.82446L74.4776 7.15811L73.8476 6.9663C68.8669 5.40141 59.3056 3.75574 47.3941 3.75574Z" fill="white"/>
<g opacity="0.2">
<path opacity="0.2" d="M58.4756 48.8549H85.7691C85.6591 48.3602 85.5191 47.7242 85.3691 46.9468H60.3758C60.3758 46.9468 59.5257 47.9867 58.4756 48.8549Z" fill="white"/>
<path opacity="0.2" d="M50.954 46.9468V48.8549H53.4043C54.3545 48.2492 55.3146 47.6131 56.1247 46.9569L50.954 46.9468Z" fill="white"/>
<path opacity="0.2" d="M54.345 51.7525C53.7349 52.1159 52.6948 52.6611 52.6948 52.6611H86.7592C86.6192 52.0351 86.4692 51.3991 86.2892 50.7529H55.9552C55.9452 50.7529 55.3051 51.177 54.345 51.7525Z" fill="white"/>
<path opacity="0.2" d="M50.9546 56.4774H87.3493C87.2893 55.8515 87.2093 55.2155 87.1093 54.5693H50.9546V56.4774Z" fill="white"/>
<path opacity="0.2" d="M50.9546 60.2837H87.4293C87.4693 59.6577 87.4793 59.0216 87.4593 58.3755H50.9546V60.2837Z" fill="white"/>
<path opacity="0.2" d="M50.9546 64.09H86.8693C87.0193 63.464 87.1493 62.8279 87.2393 62.1818H50.9546V64.09Z" fill="white"/>
<path opacity="0.2" d="M50.9546 67.9062H85.5191C85.8091 67.2803 86.0791 66.6543 86.2992 65.998H50.9546V67.9062Z" fill="white"/>
<path opacity="0.2" d="M64.1163 71.7125H83.1687C83.6388 71.1067 84.0789 70.4707 84.4889 69.8043H64.1163V71.7125Z" fill="white"/>
<path opacity="0.2" d="M46.844 75.5188H79.5583C80.2384 74.9231 80.8985 74.287 81.5385 73.6106H46.854V75.5188H46.844Z" fill="white"/>
<path opacity="0.2" d="M46.844 79.3351H74.2676C75.1977 78.7798 76.1779 78.1437 77.168 77.4269H46.854V79.3351H46.844Z" fill="white"/>
<path opacity="0.2" d="M46.844 83.1413H66.1266C67.5868 82.6163 69.1369 81.9903 70.7072 81.2332H46.844V83.1413V83.1413Z" fill="white"/>
<path opacity="0.2" d="M46.844 86.9474H53.0548C54.7951 86.1701 56.7253 85.5138 58.8756 85.0393H46.844V86.9474Z" fill="white"/>
<path opacity="0.2" d="M46.844 90.7437L46.854 90.7538C47.6541 90.0976 48.5343 89.4615 49.4944 88.8557H46.844V90.7437Z" fill="white"/>
</g>
<path d="M46.834 100.083L46.0039 99.0224C43.7236 96.1047 39.5131 92.359 32.4221 91.0768C25.5912 89.835 10.8293 84.4538 3.86842 72.9947C-0.412142 65.9578 -1.14226 57.5679 1.68811 48.0675L1.73813 47.9059C2.43822 45.4627 4.57851 36.6892 2.42823 26.6032L2.21818 25.6138L3.1883 25.3412C6.50874 24.4224 11.0293 22.4537 13.7697 18.2638C16.05 14.7706 16.6601 10.4595 15.5699 5.44179L15.3699 4.52306L16.25 4.19998C20.5006 2.65527 31.772 0.0403843 47.064 0C62.356 0.111057 73.6175 2.78652 77.8681 4.34132L78.7482 4.6644L78.5481 5.58313C77.438 10.5908 78.0181 14.9119 80.2884 18.4153C83.0087 22.6152 87.5293 24.6042 90.8397 25.533L91.8099 25.8056L91.5898 26.795C89.3996 36.881 91.4898 45.6545 92.1799 48.1078L92.2299 48.2694C95.0203 57.7799 94.2502 66.1597 89.9396 73.1764C82.9187 84.6052 68.1368 89.9158 61.2959 91.1273C54.205 92.3792 49.9744 96.1047 47.6741 99.0123L46.834 100.083ZM4.70852 27.1181C6.62877 37.2849 4.49847 46.0079 3.77838 48.5016L3.72838 48.6833C1.07804 57.578 1.73814 65.3722 5.67865 71.874C12.2495 82.6869 26.2913 87.7855 32.7922 88.9667C39.7531 90.2287 44.1837 93.6816 46.834 96.7003C49.4944 93.7018 53.9449 90.2691 60.9158 89.0374C67.4267 87.8864 81.4885 82.8586 88.1094 72.076C92.0799 65.5943 92.78 57.8001 90.1696 48.9054L90.1197 48.7237C89.4196 46.23 87.3293 37.507 89.2995 27.3402C85.7591 26.1994 81.3185 23.9681 78.4881 19.6167C76.0378 15.8408 75.2877 11.2874 76.2578 6.08794C71.5972 4.55333 61.0859 2.27163 47.054 2.17067C33.0222 2.20096 22.5008 4.43218 17.8402 5.94659C18.7804 11.1562 18.0103 15.6994 15.5499 19.4653C12.7096 23.7763 8.24898 25.9873 4.70852 27.1181Z" fill="white"/>
<path d="M46.844 51.7828C46.844 51.7828 47.5941 51.4799 47.9842 51.3285C48.3742 51.177 49.0643 50.8439 49.0643 50.8439V46.9468H46.844V51.7828V51.7828Z" fill="white"/>
<path d="M49.0643 54.741C49.0643 54.741 48.3042 55.064 48.0042 55.1751C47.7041 55.2962 46.834 55.6294 46.834 55.6294V71.7125H62.026V69.8043H49.0543V54.741H49.0643Z" fill="white"/>
<path d="M61.3759 42.7266C61.886 42.3026 62.4261 41.8281 62.9861 41.3031C63.0462 41.2425 62.9061 40.7983 62.9061 40.7983C62.3761 41.2324 61.846 41.6463 61.3259 42.03L60.1258 42.868C58.7556 43.7766 57.5154 44.3723 56.6553 44.3723C55.0751 44.3723 54.175 43.08 53.985 41.0507C53.6349 41.1112 52.6948 41.3839 51.9447 41.6968C52.2547 43.8271 53.7149 45.2708 55.5852 45.3112C56.9754 45.3415 58.3655 44.8569 59.8957 43.8372L61.3759 42.7266ZM23.521 42.131C21.8208 40.5055 20.5306 37.7896 20.5406 35.2959C20.5506 31.1666 24.151 28.7031 27.1314 28.7132C30.2919 28.7233 32.9022 31.1565 32.9022 34.4175C32.9022 36.4468 31.9921 38.1127 29.9818 38.6882C30.0618 38.7992 30.2518 39.0416 30.2518 39.0416C31.802 38.6478 34.3224 36.78 34.3324 33.2969C34.3424 30.0661 31.612 27.7844 28.5316 27.7743C23.3209 27.7642 19.4705 31.8127 19.4604 37.1435C19.4504 39.6473 20.6706 41.8786 22.1608 43.2718C22.7109 43.7867 24.0511 44.5237 24.5911 44.7055C25.3112 44.9579 27.0614 45.2607 27.8515 45.2507C31.312 45.1901 34.5724 44.13 37.2228 42.3026C36.9427 42.2319 36.6527 42.1713 36.3727 42.131C34.3324 43.2718 31.8521 44.1502 29.7218 44.1704C27.1814 44.1906 25.2812 43.8271 23.521 42.131Z" fill="white"/>
<path d="M67.9768 20.2628C62.8461 20.2527 58.7956 22.5042 54.785 26.8051C51.9247 22.7364 53.1448 19.647 52.3247 19.647C52.1047 19.647 51.9247 19.859 51.9247 20.1518C51.9247 21.2421 52.6648 24.8969 54.525 27.108C51.0346 30.9445 48.8943 34.468 46.724 39.0719C48.7242 34.5488 50.0044 30.995 50.0044 26.9767C50.0044 16.9715 45.9139 11.7114 40.4532 11.7114C36.9027 11.7014 32.3321 15.2047 32.3221 18.8696C32.3121 21.3734 33.8223 23.0797 36.3026 23.0797C39.5331 23.0898 40.7732 20.0508 41.0132 19.1724L40.6432 19.122C40.6432 19.122 40.5132 19.4249 40.3632 19.7176C39.7331 20.9393 38.5629 22.2821 36.8427 22.2821C34.5424 22.272 33.9723 20.0609 33.9823 18.183C33.9923 14.9927 37.0127 12.1456 40.2831 12.1456C44.1636 12.1456 47.5741 17.2744 46.944 24.796C46.4439 30.8233 43.5136 35.9623 39.233 39.819C39.493 39.8997 39.6931 39.9704 39.8731 40.0411C43.8836 36.7498 47.124 32.4589 48.2042 28.481H48.2742C48.2742 29.9652 47.9742 32.1056 47.6841 33.5493C46.734 38.3046 45.7039 40.2228 44.7937 41.4646C45.3938 41.1516 46.2339 40.7478 46.824 40.5156C47.7641 38.5771 49.8144 34.2156 55.4451 28.4609C55.9852 29.006 56.5953 29.5916 57.0954 29.9551C54.8151 32.3983 52.1947 35.9017 51.5746 39.1627C52.3047 39.0012 52.8548 38.9002 53.5749 38.8598C53.9949 35.7199 55.9552 32.4488 57.6654 30.3892C59.7857 31.7017 62.186 32.6507 64.6963 32.6507C69.1169 32.6608 74.0376 30.4599 74.0476 25.3109C74.0776 21.7268 71.1372 20.2628 67.9768 20.2628ZM63.9262 31.8532C61.806 31.8532 59.5857 31.3382 57.8955 30.0661C58.6556 29.0565 60.9558 26.9969 62.066 26.9969C63.2861 26.9969 63.3962 27.5825 64.5463 27.5825C65.1964 27.5825 65.8365 27.0777 65.8465 26.3912C65.8465 25.8157 65.3464 25.3412 64.6263 25.3412C62.6561 25.3412 58.8056 28.2993 57.3954 29.7128C56.8553 29.2786 56.2152 28.7335 55.7852 28.2186C59.2756 24.8566 64.6363 21.0604 69.557 21.0705C71.5272 21.0705 73.2875 22.2417 73.2875 24.271C73.2675 28.9354 67.9768 31.8633 63.9262 31.8532Z" fill="white"/>
<path d="M26.9114 77.0735C34.2124 77.0735 44.0837 71.3995 44.0837 64.6856C44.0837 62.414 42.9535 60.7683 40.6932 60.7683C36.1726 60.7683 30.5119 66.2404 29.0717 68.8149L29.3817 69.2289C32.0521 65.3116 36.8927 61.3842 40.4932 61.3842C42.2434 61.3842 43.4736 62.515 43.4736 64.2717C43.4736 69.2289 32.7822 76.4476 26.9114 76.4476C24.5511 76.4476 22.0808 75.5187 22.0808 72.8332C22.0808 68.9159 28.9417 60.7582 32.2321 57.3559C44.5737 57.2549 61.776 48.6833 61.776 42.3934C61.776 39.7079 58.8956 39.193 56.8353 39.193C46.554 39.193 33.4323 48.7641 28.1816 55.8818C24.2711 55.6799 21.6607 53.4285 21.6607 50.0261C21.6607 44.0391 26.8014 40.4247 32.7722 40.4247C36.1626 40.4247 38.943 41.2526 41.1033 42.3834L41.4133 41.7675C39.353 40.5257 36.1726 39.8088 32.8722 39.8088C26.6014 39.8088 19.8105 42.9084 19.8105 49.9251C19.8105 54.7713 24.4111 56.6693 27.2315 57.0631C24.041 60.4654 20.8306 65.9174 20.8306 70.9755C20.8406 74.913 23.0009 77.0735 26.9114 77.0735ZM56.8353 39.8088C58.5856 39.8088 61.1559 40.1218 61.1559 42.3934C61.1559 47.6535 47.4641 55.3366 33.1722 56.0636C38.4029 50.2785 48.5042 39.8088 56.8353 39.8088Z" fill="white"/>
</svg>
